<svg width="110" height="49" viewBox="0 0 110 49" fill="none" xmlns="http://www.w3.org/2000/svg">
<path fill-rule="evenodd" clip-rule="evenodd" d="M47.1334 1.50723H0.866609V47.774H47.1334V1.50723ZM48 0.640625V48.6406H0V0.640625H48Z" fill="white"/>
<path fill-rule="evenodd" clip-rule="evenodd" d="M15.6505 32.768L13.484 34.421C12.8008 33.5595 11.6576 32.9406 10.6075 32.9406C8.61867 32.9406 7.0075 34.6016 7.0075 36.6497C7.0075 38.6978 8.61867 40.3588 10.6075 40.3588C11.6706 40.3588 12.7856 39.7601 13.484 38.8783L15.6505 40.5314C14.8399 41.5846 13.7199 42.3577 12.4477 42.7421C11.1755 43.1265 9.8148 43.1031 8.55659 42.675C7.29838 42.2468 6.20576 41.4356 5.432 40.355C4.65825 39.2744 4.24219 37.9787 4.24219 36.6497C4.24219 35.3206 4.65825 34.0249 5.432 32.9443C6.20576 31.8637 7.29838 31.0525 8.55659 30.6244C9.8148 30.1963 11.1755 30.1728 12.4477 30.5572C13.7199 30.9417 14.8399 31.7147 15.6505 32.768Z" fill="white"/>
<path fill-rule="evenodd" clip-rule="evenodd" d="M26.2969 37.9848L20.5773 30.6367H18.1602V42.6681H20.8279V35.3135L26.5475 42.6681H28.9646V30.6367H26.2969V37.9848Z" fill="white"/>
<path fill-rule="evenodd" clip-rule="evenodd" d="M40.9622 35.2124C40.9622 34.7043 40.7603 34.217 40.401 33.8576C40.0417 33.4983 39.5544 33.2965 39.0463 33.2965H35.6318V37.1298H39.0463C39.298 37.1297 39.5472 37.08 39.7797 36.9836C40.0122 36.8872 40.2234 36.7459 40.4013 36.5679C40.5792 36.3899 40.7203 36.1785 40.8166 35.9459C40.9128 35.7134 40.9623 35.4641 40.9622 35.2124ZM39.1871 30.6367C40.4004 30.6367 41.5641 31.1187 42.4221 31.9767C43.2801 32.8347 43.7621 33.9983 43.7621 35.2117C43.7621 36.425 43.2801 37.5887 42.4221 38.4467C41.5641 39.3047 40.4004 39.7867 39.1871 39.7867H35.6318V42.6681H32.9648V30.6367H39.1871Z" fill="white"/>
<path d="M53.846 24.6406H48V48.6406H53.846V24.6406Z" fill="white"/>
<path fill-rule="evenodd" clip-rule="evenodd" d="M23.9219 22.9141C30.1788 14.8771 39.9455 9.70703 50.9211 9.70703C61.8967 9.70703 71.6626 14.8771 77.9202 22.9141H69.9843C64.766 18.1754 57.9699 15.55 50.9211 15.55C43.8722 15.55 37.0761 18.1754 31.8578 22.9141H23.9219Z" fill="white"/>
<path d="M64.6014 34.8555C65.2831 34.8555 65.8813 35.0099 66.396 35.3185C66.8945 35.6087 67.2985 36.0368 67.5594 36.5512L66.5967 37.2012C66.4996 36.9859 66.3679 36.7881 66.2067 36.6155C66.0596 36.4576 65.8855 36.3272 65.6926 36.2306C65.5147 36.142 65.3271 36.0746 65.1336 36.0298C64.9441 35.9867 64.7502 35.9651 64.5559 35.9655C64.2556 35.9633 63.9578 36.0187 63.6784 36.1287C63.4216 36.2281 63.1858 36.3751 62.9837 36.5621C62.7874 36.7484 62.6197 36.9628 62.4861 37.1983C62.3481 37.4375 62.2445 37.6949 62.1785 37.9631C62.1125 38.2291 62.0792 38.5022 62.0795 38.7762C62.0759 39.2634 62.1849 39.7449 62.398 40.183C62.6 40.6072 62.911 40.97 63.2993 41.2345C63.6777 41.4969 64.1279 41.6359 64.5884 41.6324C64.8546 41.6326 65.1191 41.5902 65.3719 41.5068C65.6425 41.414 65.8929 41.2706 66.11 41.0843C66.3467 40.8866 66.5343 40.6367 66.6581 40.3542L67.68 40.9319C67.5166 41.3161 67.259 41.6529 66.9311 41.9112C66.5933 42.1885 66.2068 42.4006 65.7915 42.5366C65.3895 42.6705 64.9687 42.7392 64.545 42.7402C64.0264 42.7422 63.5145 42.623 63.0501 42.3922C62.597 42.1725 62.1945 41.8612 61.8679 41.4779C61.5465 41.0938 61.2916 40.6585 61.114 40.1903C60.9314 39.726 60.8371 39.2318 60.8359 38.7329C60.8364 38.352 60.8903 37.973 60.9963 37.607C61.1038 37.2334 61.2671 36.8782 61.4808 36.5534C61.6934 36.2267 61.9516 35.9322 62.2478 35.6788C62.56 35.4161 62.9173 35.2121 63.3022 35.0765C63.719 34.9275 64.1587 34.8527 64.6014 34.8555Z" fill="white"/>
<path d="M68.2166 40.9458C68.077 40.5841 68.0062 40.1996 68.0078 39.812C68.0075 39.4237 68.081 39.0389 68.2245 38.6782C68.3604 38.3288 68.5599 38.0078 68.8131 37.7314C69.0746 37.4508 69.3929 37.2292 69.7468 37.0814C70.128 36.9191 70.5386 36.837 70.9529 36.8402C71.4972 36.8315 72.0333 36.9743 72.5012 37.2526C72.9411 37.5111 73.3012 37.8859 73.5419 38.3359C73.7772 38.7905 73.9 39.295 73.9 39.8069C73.9 40.3189 73.7772 40.8233 73.5419 41.278C73.3009 41.7277 72.9409 42.1024 72.5012 42.3612C72.0332 42.6393 71.4971 42.7818 70.9529 42.7729C70.535 42.7771 70.1208 42.6952 69.736 42.5324C69.3822 42.3843 69.0639 42.1628 68.8022 41.8824C68.55 41.6097 68.3513 41.292 68.2166 40.9458ZM69.7382 41.2029C69.8892 41.3767 70.0759 41.516 70.2857 41.611C70.4954 41.7061 70.7232 41.7548 70.9535 41.7538C71.1838 41.7528 71.4112 41.702 71.6201 41.6051C71.829 41.5081 72.0145 41.3672 72.1639 41.192C72.4952 40.8179 72.661 40.3579 72.6615 39.812C72.662 39.266 72.4961 38.8069 72.1639 38.4348C72.0154 38.2578 71.8295 38.1158 71.6196 38.0192C71.4097 37.9226 71.181 37.8736 70.95 37.8758C70.4753 37.8758 70.0723 38.0648 69.7411 38.4427C69.4075 38.8258 69.23 39.3201 69.2435 39.8279C69.2435 40.3777 69.4084 40.836 69.7382 41.2029Z" fill="white"/>
<path d="M79.8318 42.6764H78.6229V39.4685C78.6229 38.9389 78.5382 38.5485 78.3687 38.2972C78.1992 38.0458 77.9453 37.9209 77.6068 37.9224C77.2573 37.9224 76.9157 38.0516 76.5821 38.3101C76.2602 38.5525 76.0205 38.8877 75.8953 39.2706V42.6779H74.6914V36.9489H75.7884V38.0964C76.0139 37.7066 76.3458 37.3892 76.7453 37.1814C77.1672 36.9558 77.639 36.8399 78.1174 36.8441C78.3577 36.8392 78.5966 36.8812 78.8208 36.9676C79.0078 37.0394 79.1759 37.1527 79.3126 37.2991C79.4468 37.4502 79.5512 37.6255 79.6202 37.8155C79.6989 38.0206 79.7537 38.234 79.7835 38.4517C79.8152 38.6937 79.8304 38.9377 79.829 39.1818L79.8318 42.6764Z" fill="white"/>
<path d="M82.992 42.7822C82.5222 42.7855 82.0556 42.7041 81.6148 42.5417C81.2014 42.3915 80.8261 42.1521 80.5156 41.8405L80.9648 41.0331C81.5994 41.5853 82.2609 41.8617 82.9493 41.8621C83.2955 41.8621 83.5719 41.7971 83.7784 41.6672C83.8756 41.6105 83.9557 41.5287 84.0102 41.4303C84.0647 41.3319 84.0917 41.2206 84.0882 41.1082C84.0886 41.0541 84.0833 41.0001 84.0723 40.9471C84.062 40.898 84.041 40.8516 84.0109 40.8114C83.9836 40.7739 83.9542 40.738 83.9228 40.7038C83.8839 40.6669 83.8396 40.6362 83.7914 40.6128C83.7329 40.5832 83.6809 40.5579 83.6369 40.5406C83.5928 40.5232 83.5271 40.4965 83.4411 40.4684C83.3552 40.4402 83.2844 40.4171 83.2245 40.4012L82.9703 40.329C82.8584 40.2986 82.7659 40.2726 82.6951 40.2517C82.3581 40.1477 82.0861 40.0514 81.8791 39.9628C81.6783 39.878 81.4881 39.7701 81.3122 39.6415C81.1537 39.5301 81.0274 39.3789 80.946 39.2031C80.8671 39.0154 80.8287 38.8131 80.8334 38.6095C80.8334 38.0635 81.0402 37.6328 81.4537 37.3175C81.8673 37.0022 82.413 36.8442 83.0909 36.8438C83.9575 36.8438 84.6556 37.1085 85.1852 37.6381L84.666 38.4325C84.1705 37.9795 83.6231 37.7532 83.0237 37.7537C82.7609 37.7442 82.5001 37.8031 82.2669 37.9248C82.0654 38.0389 81.965 38.2238 81.965 38.4809C81.9631 38.5661 81.9815 38.6505 82.0185 38.7272C82.0507 38.7938 82.0942 38.8544 82.147 38.9063C82.2212 38.9693 82.3051 39.0198 82.3954 39.0558C82.4982 39.1028 82.6035 39.1437 82.711 39.1785C82.8073 39.2089 82.9491 39.2527 83.1364 39.31C83.3073 39.3581 83.4481 39.4 83.5589 39.4356C83.6696 39.4713 83.7953 39.5122 83.9358 39.5584C84.0764 39.6066 84.1905 39.6504 84.2781 39.6898C84.3655 39.7288 84.4609 39.7772 84.567 39.8343C84.6556 39.8813 84.7389 39.9377 84.8154 40.0025C84.8825 40.063 84.9459 40.1274 85.0054 40.1954C85.0662 40.2632 85.115 40.3408 85.1498 40.425C85.1838 40.5127 85.2106 40.6031 85.23 40.6951C85.2521 40.8025 85.2628 40.9119 85.2617 41.0215C85.2617 41.5709 85.0569 42.0015 84.6472 42.3135C84.2375 42.6255 83.6857 42.7817 82.992 42.7822Z" fill="white"/>
<path d="M85.8955 40.9482C85.7565 40.5864 85.686 40.2019 85.6875 39.8144C85.6868 39.4261 85.7603 39.0412 85.9042 38.6805C86.0398 38.3311 86.2394 38.01 86.4928 37.7338C86.754 37.4532 87.0721 37.2316 87.4258 37.0838C87.807 36.9215 88.2175 36.8394 88.6318 36.8426C89.1764 36.8339 89.7127 36.9767 90.1809 37.255C90.6204 37.5137 90.9802 37.8885 91.2208 38.3382C91.4562 38.7929 91.579 39.2973 91.579 39.8093C91.579 40.3212 91.4562 40.8257 91.2208 41.2804C90.9799 41.7299 90.6202 42.1046 90.1809 42.3636C89.7126 42.6417 89.1763 42.7842 88.6318 42.7753C88.214 42.7794 87.7998 42.6975 87.415 42.5348C87.0613 42.3869 86.7432 42.1653 86.4819 41.8848C86.2292 41.6123 86.0302 41.2945 85.8955 40.9482ZM87.4178 41.2053C87.5689 41.3791 87.7556 41.5183 87.9654 41.6134C88.1751 41.7085 88.4029 41.7572 88.6332 41.7562C88.8635 41.7551 89.0909 41.7044 89.2998 41.6075C89.5087 41.5105 89.6942 41.3696 89.8436 41.1944C90.1753 40.8203 90.3412 40.3603 90.3412 39.8144C90.3412 39.2684 90.1753 38.8093 89.8436 38.4372C89.695 38.2601 89.5089 38.1182 89.2989 38.0216C89.0889 37.9249 88.8601 37.876 88.6289 37.8782C88.1552 37.8782 87.7522 38.0672 87.42 38.4451C87.0867 38.8283 86.9094 39.3226 86.9232 39.8302C86.9232 40.3801 87.0881 40.8384 87.4178 41.2053ZM89.0464 36.1233L88.2599 35.8828L88.886 34.6797H90.0357L89.0464 36.1233Z" fill="white"/>
<path d="M95.5952 37.9824C95.1575 37.9844 94.7276 38.0977 94.3458 38.3118C94 38.5023 93.7292 38.8049 93.5781 39.1697V42.6737H92.375V36.9447H93.4929V38.2287C93.6753 37.8571 93.9416 37.533 94.2707 37.2819C94.5638 37.053 94.9187 36.917 95.2897 36.8912C95.3916 36.8891 95.4936 36.8927 95.5952 36.9021V37.9824Z" fill="white"/>
<path d="M98.6954 42.7827C98.1493 42.7911 97.6115 42.6487 97.1413 42.371C96.6979 42.1111 96.3344 41.7344 96.0905 41.282C95.8804 40.881 95.7582 40.4399 95.7319 39.988C95.7057 39.5361 95.7759 39.0838 95.9381 38.6612C96.0734 38.3135 96.2739 37.9948 96.5289 37.7224C96.7934 37.4458 97.1133 37.228 97.4677 37.0833C97.857 36.9233 98.2745 36.8432 98.6954 36.8478C99.2731 36.8478 99.776 36.9764 100.204 37.2335C100.622 37.4799 100.96 37.8421 101.177 38.2763L100.006 38.6453C99.8749 38.411 99.6825 38.2168 99.4493 38.0835C99.2118 37.9477 98.9423 37.8777 98.6687 37.8806C98.4384 37.8764 98.2101 37.923 97.9999 38.0168C97.7896 38.1106 97.6025 38.2495 97.4518 38.4236C97.1254 38.7857 96.9622 39.2464 96.9622 39.8059C96.9622 40.3557 97.1307 40.8184 97.4677 41.1939C97.8047 41.5694 98.2096 41.7577 98.6824 41.7586C98.9758 41.7593 99.264 41.6807 99.5165 41.5311C99.777 41.3795 99.9517 41.1932 100.041 40.9722L101.228 41.3195C101.027 41.768 100.688 42.1403 100.26 42.3819C99.7852 42.6562 99.2439 42.7949 98.6954 42.7827Z" fill="white"/>
<path d="M101.941 36.0056V34.6797H103.145V36.0056H101.941ZM101.941 42.6763V36.9473H103.145V42.6763H101.941Z" fill="white"/>
<path d="M104.153 40.9458C104.014 40.584 103.944 40.1995 103.945 39.812C103.945 39.4237 104.018 39.0388 104.162 38.6782C104.298 38.3287 104.497 38.0076 104.751 37.7314C105.012 37.4508 105.33 37.2293 105.684 37.0814C106.065 36.9192 106.475 36.837 106.89 36.8402C107.434 36.8316 107.971 36.9743 108.439 37.2526C108.878 37.5113 109.238 37.8861 109.479 38.3358C109.714 38.7905 109.837 39.295 109.837 39.8069C109.837 40.3189 109.714 40.8233 109.479 41.278C109.238 41.7275 108.878 42.1022 108.439 42.3612C107.97 42.6393 107.434 42.7818 106.89 42.7729C106.472 42.777 106.058 42.6951 105.673 42.5324C105.319 42.3845 105.001 42.1629 104.74 41.8824C104.487 41.6099 104.288 41.2922 104.153 40.9458ZM105.676 41.2029C105.827 41.3767 106.013 41.516 106.223 41.611C106.433 41.7061 106.661 41.7548 106.891 41.7538C107.121 41.7527 107.349 41.702 107.558 41.6051C107.766 41.5081 107.952 41.3672 108.101 41.192C108.433 40.8179 108.598 40.3579 108.598 39.812C108.598 39.266 108.433 38.8069 108.101 38.4348C107.953 38.2577 107.767 38.1158 107.557 38.0192C107.347 37.9225 107.118 37.8736 106.887 37.8758C106.413 37.8758 106.01 38.0648 105.678 38.4427C105.344 38.8258 105.167 39.3201 105.18 39.8279C105.18 40.3777 105.345 40.836 105.676 41.2029Z" fill="white"/>
</svg>
