<svg width="126" height="48" viewBox="0 0 126 48" fill="none" xmlns="http://www.w3.org/2000/svg">
<path fill-rule="evenodd" clip-rule="evenodd" d="M44.5433 0.819169H0.818986V44.5434H44.5433V0.819169ZM45.3623 0.000183105V45.3624H0V0.000183105H45.3623Z" fill="white"/>
<path fill-rule="evenodd" clip-rule="evenodd" d="M14.7895 30.3627L12.742 31.9249C12.0964 31.1107 11.016 30.5258 10.0237 30.5258C8.14412 30.5258 6.62149 32.0956 6.62149 34.0311C6.62149 35.9666 8.14412 37.5364 10.0237 37.5364C11.0283 37.5364 12.0821 36.9706 12.742 36.1373L14.7895 37.6995C14.0235 38.6948 12.9651 39.4254 11.7627 39.7887C10.5604 40.152 9.27452 40.1299 8.08545 39.7253C6.89639 39.3207 5.86381 38.554 5.13257 37.5328C4.40134 36.5116 4.00814 35.2871 4.00814 34.0311C4.00814 32.7751 4.40134 31.5506 5.13257 30.5294C5.86381 29.5082 6.89639 28.7415 8.08545 28.3369C9.27452 27.9323 10.5604 27.9101 11.7627 28.2735C12.9651 28.6368 14.0235 29.3674 14.7895 30.3627Z" fill="white"/>
<path fill-rule="evenodd" clip-rule="evenodd" d="M24.8535 35.2937L19.4482 28.3494H17.1639V39.7196H19.685V32.7692L25.0903 39.7196H27.3746V28.3494H24.8535V35.2937Z" fill="white"/>
<path fill-rule="evenodd" clip-rule="evenodd" d="M38.7114 32.6736C38.7114 32.1934 38.5206 31.7329 38.1811 31.3933C37.8415 31.0537 37.381 30.863 36.9008 30.863H33.674V34.4856H36.9008C37.1386 34.4855 37.3741 34.4386 37.5939 34.3475C37.8136 34.2564 38.0132 34.1229 38.1814 33.9546C38.3495 33.7863 38.4828 33.5866 38.5738 33.3668C38.6647 33.147 38.7115 32.9115 38.7114 32.6736ZM37.0338 28.3494C38.1805 28.3494 39.2802 28.8049 40.0911 29.6157C40.9019 30.4265 41.3574 31.5262 41.3574 32.6729C41.3574 33.8196 40.9019 34.9193 40.0911 35.7301C39.2802 36.541 38.1805 36.9965 37.0338 36.9965H33.674V39.7196H31.1535V28.3494H37.0338Z" fill="white"/>
<path d="M50.887 22.6813H45.3623V45.3624H50.887V22.6813Z" fill="white"/>
<path fill-rule="evenodd" clip-rule="evenodd" d="M22.6087 21.0509C28.5218 13.4555 37.7518 8.56952 48.1242 8.56952C58.4967 8.56952 67.726 13.4555 73.6397 21.0509H66.1399C61.2084 16.5725 54.7857 14.0914 48.1242 14.0914C41.4628 14.0914 35.0401 16.5725 30.1086 21.0509H22.6087Z" fill="white"/>
<path d="M64.7477 27.641C64.6567 27.5299 64.3707 27.3684 63.8898 27.1564C63.4589 26.9562 62.991 26.8479 62.5159 26.8384C61.8189 26.8384 61.4704 27.0695 61.4704 27.5318C61.4669 27.6497 61.4982 27.766 61.5605 27.8662C61.6201 27.9572 61.7365 28.0439 61.9099 28.1262C62.0623 28.1995 62.2191 28.2631 62.3794 28.3166C62.5219 28.3621 62.7587 28.4315 63.0899 28.5248C63.1582 28.5439 63.2039 28.5575 63.2346 28.565C63.5845 28.661 63.883 28.7564 64.13 28.851C64.3779 28.9467 64.6166 29.0645 64.8432 29.2032C65.0518 29.3264 65.2382 29.4837 65.3947 29.6686C65.5408 29.8516 65.6523 30.0598 65.7236 30.2829C65.8086 30.5488 65.8497 30.8268 65.8451 31.1059C65.8503 31.4458 65.7915 31.7836 65.6718 32.1017C65.5696 32.3758 65.4102 32.6249 65.2043 32.8326C64.998 33.0319 64.7597 33.1951 64.4992 33.3152C64.2277 33.4435 63.9404 33.5353 63.6448 33.5882C63.3321 33.6436 63.015 33.6708 62.6975 33.6694C62.0569 33.6671 61.4199 33.5738 60.8056 33.3923C60.2073 33.2249 59.6378 32.9679 59.1165 32.6299L59.9655 30.9374C60.0615 31.0269 60.1694 31.1027 60.2862 31.1626C60.4573 31.2627 60.6671 31.3714 60.9155 31.4888C61.1958 31.618 61.4879 31.7197 61.7877 31.7925C62.0979 31.8741 62.417 31.9168 62.7377 31.9195C63.423 31.9195 63.7656 31.7115 63.7656 31.2957C63.7661 31.23 63.7564 31.1646 63.7369 31.1019C63.7166 31.0405 63.683 30.9844 63.6386 30.9374C63.5955 30.8895 63.55 30.844 63.5021 30.8009C63.4395 30.7509 63.3707 30.7091 63.2974 30.6767C63.2087 30.6343 63.1302 30.5989 63.0606 30.5702C62.9909 30.5415 62.8947 30.5074 62.7719 30.4692C62.649 30.431 62.5446 30.4009 62.46 30.3709C62.3753 30.3409 62.2552 30.3095 62.1017 30.2672C61.9481 30.2249 61.8225 30.188 61.7263 30.1573C61.3808 30.0551 61.044 29.9257 60.7189 29.7703C60.4648 29.6476 60.2302 29.488 60.0228 29.2967C59.8355 29.1234 59.6911 28.9089 59.601 28.6701C59.5082 28.4054 59.4633 28.1262 59.4686 27.8457C59.463 27.4405 59.5481 27.0392 59.7177 26.6711C59.8718 26.3357 60.1022 26.0409 60.3907 25.8105C60.6857 25.581 61.0191 25.4059 61.3755 25.2932C61.7621 25.1702 62.1656 25.109 62.5712 25.1117C63.5495 25.1117 64.5582 25.4176 65.5974 26.0296L64.7477 27.641Z" fill="white"/>
<path d="M69.7953 33.6939C69.3163 33.6993 68.8407 33.6119 68.3949 33.4366C67.9976 33.2841 67.6372 33.0489 67.3377 32.7466C67.0581 32.457 66.8374 32.1158 66.688 31.742C66.5342 31.36 66.4559 30.9519 66.4573 30.5402C66.4547 30.1073 66.532 29.6776 66.6852 29.2728C66.8305 28.8851 67.0492 28.5292 67.3295 28.2245C67.6248 27.9121 67.9853 27.6686 68.3853 27.5113C69.2931 27.1609 70.2989 27.1609 71.2067 27.5113C71.6027 27.6678 71.9594 27.9094 72.2516 28.219C72.5253 28.5154 72.74 28.8612 72.8843 29.238C73.0333 29.6258 73.1088 30.038 73.1068 30.4535C73.1061 30.6566 73.0906 30.8594 73.0604 31.0602H68.4672C68.494 31.457 68.6412 31.7689 68.9088 31.9959C69.1712 32.2216 69.5073 32.343 69.8533 32.3371C70.134 32.339 70.4105 32.2685 70.6559 32.1324C70.883 32.0183 71.0629 31.8282 71.1644 31.5953L72.7758 32.0457C72.5193 32.5526 72.1168 32.971 71.6203 33.2469C71.1016 33.5449 70.4933 33.6939 69.7953 33.6939ZM68.4208 29.8993H71.1153C71.0761 29.5103 70.9326 29.1984 70.6846 28.9636C70.4325 28.7368 70.1054 28.6114 69.7663 28.6114C69.4272 28.6114 69.1001 28.7368 68.848 28.9636C68.5947 29.2119 68.4425 29.5453 68.4208 29.8993Z" fill="white"/>
<path d="M73.6186 30.4651C73.6108 29.8995 73.7354 29.34 73.9824 28.8312C74.21 28.3574 74.5643 27.9558 75.0061 27.671C75.4542 27.3855 75.9763 27.2378 76.5076 27.2465C76.9328 27.2382 77.3529 27.3408 77.7265 27.544C78.0821 27.7435 78.3787 28.0333 78.5865 28.3842V27.3679H80.2326V33.1486C80.2326 34.0841 79.9007 34.8291 79.2369 35.3838C78.573 35.9384 77.7056 36.2157 76.6345 36.2157C75.4061 36.2157 74.4205 35.8017 73.678 34.9736L74.7017 33.9403C74.9378 34.2082 75.2297 34.4211 75.5569 34.5641C75.8962 34.7171 76.2644 34.7957 76.6366 34.7948C76.8579 34.797 77.0783 34.7648 77.2897 34.6992C77.4857 34.6381 77.6687 34.5414 77.8296 34.414C77.9962 34.2769 78.1253 34.0999 78.2049 33.8994C78.2998 33.6607 78.3462 33.4054 78.3414 33.1486V32.548C78.1565 32.8839 77.8737 33.1555 77.5306 33.3268C77.1719 33.5109 76.7736 33.6046 76.3704 33.5997C75.8592 33.6071 75.3577 33.4591 74.9324 33.1752C74.5091 32.8925 74.1715 32.499 73.9565 32.0375C73.7267 31.5456 73.6112 31.008 73.6186 30.4651ZM78.3373 31.2336V29.9368C78.2241 29.6273 78.0247 29.3567 77.7627 29.1567C77.5267 28.9692 77.2349 28.8657 76.9335 28.8626C76.5372 28.8626 76.2071 29.0271 75.9432 29.356C75.6793 29.686 75.5392 30.0979 75.5473 30.5204C75.5473 30.9754 75.6888 31.3525 75.9718 31.6519C76.1055 31.7976 76.2687 31.9132 76.4505 31.9909C76.6323 32.0685 76.8286 32.1065 77.0263 32.1024C77.3013 32.1044 77.5704 32.0217 77.7968 31.8655C78.0304 31.7071 78.2171 31.4889 78.3373 31.2336Z" fill="white"/>
<path d="M81.4672 31.3434V27.368H83.3618V30.9251C83.3618 31.3027 83.4369 31.5926 83.587 31.7946C83.6606 31.894 83.7576 31.9736 83.8694 32.0265C83.9812 32.0794 84.1044 32.1038 84.2279 32.0976C84.7975 32.0976 85.25 31.7973 85.5853 31.1967V27.368H87.4793V31.4683C87.4793 31.6567 87.5093 31.7905 87.5693 31.8696C87.6294 31.9488 87.7322 31.9943 87.8778 32.0061V33.5759C87.6138 33.632 87.3451 33.6628 87.0752 33.668C86.7444 33.668 86.4796 33.5998 86.2808 33.4633C86.183 33.3957 86.1 33.3088 86.037 33.208C85.974 33.1072 85.9322 32.9945 85.9143 32.877L85.8795 32.5016C85.3294 33.2947 84.5054 33.6912 83.4075 33.6912C82.7765 33.6912 82.2953 33.491 81.9641 33.0906C81.6328 32.6902 81.4672 32.1078 81.4672 31.3434Z" fill="white"/>
<path d="M92.8866 28.9868C92.456 28.9864 92.0291 29.0657 91.6274 29.2209C91.2634 29.3688 90.9998 29.5794 90.8364 29.8529V33.5786H88.948V27.3679H90.6863V28.621C90.881 28.2336 91.1639 27.8972 91.5121 27.6389C91.8183 27.4064 92.1904 27.2771 92.5747 27.2697C92.6788 27.2668 92.783 27.2707 92.8866 27.2813V28.9868Z" fill="white"/>
<path d="M93.2607 30.4767C93.2584 30.0567 93.3348 29.6401 93.4859 29.2482C93.6317 28.8684 93.8483 28.5196 94.124 28.2204C94.418 27.9094 94.7768 27.6668 95.175 27.5099C95.6239 27.3302 96.1037 27.241 96.5871 27.2472C97.0678 27.2411 97.545 27.3304 97.991 27.5099C98.3886 27.6678 98.7472 27.9103 99.042 28.2204C99.3193 28.5189 99.5368 28.8678 99.6829 29.2482C99.9832 30.0368 99.9832 30.9083 99.6829 31.697C99.5373 32.0758 99.3207 32.4232 99.0447 32.7207C98.751 33.0301 98.3932 33.2717 97.9964 33.4285C97.0886 33.7788 96.0829 33.7788 95.175 33.4285C94.7773 33.272 94.4185 33.0305 94.124 32.7207C93.848 32.4232 93.6314 32.0758 93.4859 31.697C93.3353 31.3078 93.259 30.8939 93.2607 30.4767ZM96.5871 32.0996C96.7742 32.1028 96.9596 32.0634 97.1293 31.9844C97.2989 31.9055 97.4484 31.789 97.5665 31.6437C97.8258 31.3394 97.9557 30.9503 97.9562 30.4767C97.9562 29.9958 97.8272 29.6061 97.5692 29.3076C97.4497 29.1639 97.2993 29.0491 97.1293 28.9716C96.9593 28.894 96.7739 28.8559 96.5871 28.8599C96.3986 28.8564 96.2118 28.8954 96.0404 28.9738C95.869 29.0522 95.7174 29.1682 95.5968 29.3131C95.3334 29.6152 95.2014 30.003 95.201 30.4767C95.201 30.9585 95.332 31.3494 95.5941 31.6492C95.7153 31.7939 95.8674 31.9095 96.0393 31.9875C96.2112 32.0655 96.3984 32.1038 96.5871 32.0996Z" fill="white"/>
<path d="M103.217 33.6939C102.685 33.6957 102.157 33.6059 101.655 33.4285C101.185 33.2681 100.755 33.0081 100.394 32.6661L101.041 31.4704C101.807 32.0328 102.512 32.3137 103.157 32.3133C103.669 32.3133 103.925 32.1515 103.925 31.828C103.925 31.667 103.825 31.5393 103.625 31.4472C103.525 31.4017 103.267 31.315 102.851 31.1872C102.624 31.11 102.434 31.0452 102.282 30.9906C102.13 30.936 101.972 30.8732 101.808 30.8002C101.671 30.7422 101.539 30.6738 101.413 30.5954C101.308 30.5262 101.208 30.4488 101.115 30.3641C101.024 30.2848 100.948 30.1901 100.89 30.0843C100.835 29.978 100.794 29.8655 100.766 29.7492C100.734 29.6139 100.718 29.4753 100.72 29.3363C100.72 28.7125 100.955 28.209 101.425 27.8259C101.895 27.4428 102.524 27.2513 103.313 27.2513C104.256 27.2513 105.052 27.5438 105.702 28.1289L104.967 29.3103C104.296 28.8444 103.713 28.6115 103.217 28.6115C103.031 28.6024 102.846 28.6444 102.682 28.7329C102.618 28.7713 102.565 28.8266 102.53 28.8927C102.495 28.9589 102.479 29.0335 102.483 29.1083C102.481 29.1822 102.5 29.2552 102.536 29.3193C102.573 29.3835 102.627 29.4363 102.691 29.4721C102.828 29.5567 103.082 29.6511 103.454 29.7553C103.738 29.8433 103.974 29.9198 104.158 29.9833C104.342 30.0467 104.532 30.1197 104.724 30.2057C104.886 30.2731 105.04 30.3602 105.18 30.4651C105.295 30.5562 105.398 30.6599 105.489 30.7743C105.585 30.8914 105.654 31.0272 105.694 31.1728C105.736 31.3359 105.757 31.5039 105.755 31.6724C105.755 32.3003 105.527 32.7942 105.072 33.1541C104.617 33.514 103.999 33.6939 103.217 33.6939Z" fill="white"/>
<path d="M65.2329 45.3624H63.9273V41.8974C63.9273 41.3433 63.8272 40.9265 63.627 40.6471C63.4268 40.3678 63.1381 40.2281 62.7609 40.2281C62.397 40.2281 62.0418 40.3668 61.6956 40.6444C61.3559 40.9086 61.1066 41.2718 60.9824 41.6838V45.3624H59.6857V36.7283H60.9824V40.4192C61.2118 40.0085 61.5466 39.6664 61.9522 39.4282C62.3542 39.1896 62.8136 39.0651 63.281 39.0678C64.5818 39.0678 65.2325 39.9096 65.2329 41.593V45.3624Z" fill="white"/>
<path d="M66.2696 43.4972C66.1191 43.1066 66.0427 42.6914 66.0443 42.2728C66.0434 41.4421 66.3525 40.6409 66.9111 40.0261C67.1936 39.7245 67.537 39.4862 67.9184 39.3272C68.3303 39.1522 68.7738 39.0639 69.2213 39.0679C69.8089 39.0583 70.3875 39.2121 70.8927 39.5122C71.368 39.7922 71.7567 40.1979 72.0161 40.6847C72.2703 41.1755 72.403 41.7201 72.403 42.2728C72.403 42.8256 72.2703 43.3702 72.0161 43.861C71.7569 44.3479 71.3681 44.7537 70.8927 45.0335C70.3876 45.3338 69.8089 45.4878 69.2213 45.4785C68.7702 45.4828 68.323 45.3943 67.9075 45.2184C67.526 45.0595 67.1827 44.8213 66.9002 44.5196C66.6271 44.2218 66.4131 43.8749 66.2696 43.4972ZM67.913 43.7743C68.074 43.9634 68.2747 44.1148 68.5008 44.2176C68.727 44.3205 68.9729 44.3723 69.2213 44.3694C69.7368 44.3694 70.1738 44.1672 70.5324 43.7627C70.8909 43.3582 71.0699 42.8616 71.0695 42.2728C71.0695 41.6836 70.8904 41.1879 70.5324 40.7857C70.3718 40.5947 70.1711 40.4415 69.9444 40.3372C69.7177 40.2329 69.4708 40.18 69.2213 40.1824C68.709 40.1824 68.2738 40.3871 67.9157 40.7966C67.5576 41.2061 67.3786 41.7045 67.3786 42.2919C67.3795 42.8839 67.5581 43.378 67.9143 43.7743H67.913Z" fill="white"/>
<path d="M73.2754 36.7283H74.5721V43.5777C74.5721 43.8705 74.6144 44.0664 74.6997 44.164C74.7474 44.215 74.8058 44.2547 74.8707 44.2802C74.9357 44.3057 75.0055 44.3163 75.0751 44.3114C75.3516 44.3149 75.6256 44.2578 75.8777 44.1442L76.0681 45.172C75.853 45.2649 75.6282 45.3335 75.3979 45.3768C75.1663 45.4263 74.9304 45.4526 74.6936 45.4552C74.2472 45.4552 73.8987 45.3319 73.648 45.0853C73.3973 44.8387 73.2722 44.4941 73.2726 44.0514L73.2754 36.7283Z" fill="white"/>
<path d="M76.1391 42.2728C76.1327 41.7168 76.2531 41.1667 76.4912 40.6642C76.7122 40.1935 77.0566 39.7914 77.4876 39.5005C77.9128 39.2133 78.4153 39.0624 78.9284 39.0678C79.375 39.0645 79.8134 39.1875 80.193 39.4227C80.5695 39.651 80.8832 39.9695 81.1055 40.3496V36.7283H82.4022V43.8944C82.4022 44.0445 82.4295 44.1524 82.4835 44.2179C82.5187 44.254 82.5614 44.282 82.6085 44.2999C82.6557 44.3178 82.7061 44.3252 82.7565 44.3216V45.3611C82.5695 45.3959 82.3801 45.4153 82.19 45.4191C81.9674 45.4262 81.7496 45.3536 81.5758 45.2143C81.4968 45.1529 81.4319 45.0753 81.3857 44.9866C81.3394 44.8979 81.3127 44.8003 81.3075 44.7004L81.2959 44.2384C81.0672 44.6216 80.7401 44.9366 80.3486 45.1509C79.9625 45.3679 79.5269 45.4814 79.084 45.4805C78.5467 45.4866 78.0195 45.335 77.5675 45.0444C77.118 44.7568 76.7541 44.3537 76.5137 43.8773C76.2611 43.3806 76.1325 42.8301 76.1391 42.2728ZM81.1055 43.1389V41.5159C80.9643 41.1341 80.7106 40.804 80.378 40.5693C80.0276 40.3113 79.6734 40.1823 79.3154 40.1823C78.9727 40.1787 78.6378 40.2849 78.3599 40.4854C78.0782 40.6858 77.8541 40.9567 77.7101 41.2709C77.5597 41.5935 77.4828 41.9455 77.4849 42.3015C77.4728 42.8436 77.6726 43.369 78.0418 43.7661C78.2136 43.9595 78.4251 44.1135 78.6618 44.2176C78.8986 44.3218 79.155 44.3735 79.4136 44.3694C79.764 44.3694 80.1114 44.2491 80.4558 44.0084C80.8002 43.7677 81.0168 43.4779 81.1055 43.1389Z" fill="white"/>
<path d="M83.7611 38.1608V36.7276H85.0578V38.1608H83.7611ZM83.7611 45.3624V39.175H85.0578V45.3604L83.7611 45.3624Z" fill="white"/>
<path d="M91.8745 45.3625H90.5696V41.8975C90.5696 41.3237 90.4786 40.9022 90.2966 40.6328C90.1146 40.3635 89.8404 40.2285 89.4742 40.2281C89.097 40.2281 88.7282 40.3678 88.3679 40.6471C88.0204 40.9087 87.7615 41.2706 87.626 41.6838V45.3625H86.3293V39.175H87.5134V40.4171C87.7566 39.9962 88.1151 39.6535 88.5467 39.4296C89.003 39.1854 89.5136 39.0603 90.0311 39.0658C90.2905 39.0603 90.5485 39.1053 90.7907 39.1982C90.9925 39.2763 91.1742 39.3988 91.3223 39.5565C91.4667 39.7198 91.5793 39.9087 91.654 40.1134C91.7387 40.3351 91.7978 40.5657 91.8301 40.8007C91.8645 41.0623 91.8809 41.3259 91.8793 41.5897L91.8745 45.3625Z" fill="white"/>
<path d="M92.7112 42.2728C92.7049 41.7159 92.8283 41.1652 93.0716 40.6642C93.3009 40.1906 93.6548 39.7884 94.0953 39.5006C94.537 39.2117 95.0548 39.061 95.5825 39.0679C96.0342 39.0601 96.4792 39.1783 96.8676 39.4091C97.2528 39.6439 97.5781 39.9652 97.8176 40.3475V39.175H98.9669V45.1809C98.9669 45.7624 98.8225 46.2688 98.5335 46.7001C98.2453 47.1309 97.8382 47.4687 97.3617 47.6727C96.8304 47.8981 96.2578 48.0095 95.6807 47.9996C94.4332 47.9996 93.4822 47.5567 92.8279 46.6708L93.5609 45.9883C93.7927 46.3144 94.1066 46.5733 94.4707 46.739C94.8496 46.9151 95.2629 47.0048 95.6807 47.0018C96.0193 47.0069 96.3553 46.9431 96.6683 46.8141C96.9643 46.6861 97.2149 46.4721 97.3876 46.1999C97.5804 45.8939 97.6778 45.5376 97.6675 45.1761V44.2363C97.4514 44.6026 97.1388 44.9024 96.7639 45.1031C96.388 45.3117 95.9652 45.421 95.5354 45.4205C95.014 45.4259 94.5033 45.2729 94.0708 44.9816C93.6378 44.6933 93.29 44.2944 93.0634 43.8262C92.8272 43.3427 92.7066 42.8109 92.7112 42.2728ZM97.6661 43.1389V41.5159C97.5154 41.1338 97.259 40.8024 96.927 40.5605C96.6233 40.3225 96.2501 40.1906 95.8643 40.1851C95.5151 40.1808 95.1741 40.2914 94.8938 40.4997C94.6131 40.7043 94.3911 40.9793 94.2503 41.2969C94.1061 41.6167 94.0321 41.9637 94.0332 42.3145C94.0228 42.8534 94.2239 43.375 94.5935 43.7675C94.765 43.9604 94.9761 44.1142 95.2123 44.2183C95.4486 44.3224 95.7045 44.3744 95.9626 44.3708C96.348 44.3693 96.7222 44.2415 97.028 44.007C97.3569 43.7632 97.569 43.4738 97.6641 43.1389H97.6661Z" fill="white"/>
<path d="M108.868 45.2942H106.156V39.6118H109.083C109.33 39.6092 109.571 39.6852 109.771 39.8288C109.969 39.9673 110.127 40.1557 110.229 40.3748C110.33 40.5905 110.382 40.8259 110.381 41.0641C110.382 41.3425 110.307 41.6158 110.162 41.8538C110.024 42.0897 109.814 42.2758 109.564 42.3854C109.874 42.4692 110.148 42.655 110.34 42.913C110.532 43.1799 110.632 43.5026 110.623 43.8316C110.629 44.0365 110.587 44.2399 110.499 44.4251C110.411 44.6102 110.28 44.7718 110.117 44.8963C109.778 45.162 109.361 45.2946 108.868 45.2942ZM107.051 40.3898V42.0619H108.701C108.805 42.064 108.909 42.0441 109.005 42.0034C109.101 41.9627 109.188 41.9022 109.26 41.8258C109.335 41.7464 109.394 41.6528 109.432 41.5506C109.471 41.4483 109.49 41.3393 109.486 41.23C109.495 41.0096 109.42 40.794 109.277 40.626C109.212 40.5498 109.131 40.4892 109.039 40.4483C108.947 40.4075 108.848 40.3875 108.748 40.3898H107.051ZM108.923 42.7785H107.051V44.5141H108.868C108.979 44.5163 109.09 44.4949 109.192 44.4514C109.294 44.4079 109.386 44.3432 109.461 44.2616C109.539 44.1818 109.6 44.0874 109.641 43.9839C109.682 43.8804 109.703 43.7697 109.701 43.6583C109.705 43.432 109.626 43.2121 109.478 43.0406C109.411 42.9583 109.327 42.8922 109.231 42.8473C109.136 42.8024 109.031 42.7798 108.925 42.7813L108.923 42.7785Z" fill="white"/>
<path d="M113.597 41.8667C113.277 41.8683 112.963 41.951 112.684 42.107C112.432 42.2465 112.234 42.4676 112.123 42.7342V45.2942H111.246V41.1085H112.065V42.0469C112.198 41.7752 112.392 41.5382 112.633 41.3549C112.847 41.1874 113.107 41.088 113.378 41.0696C113.452 41.0682 113.526 41.0707 113.6 41.0771L113.597 41.8667Z" fill="white"/>
<path d="M113.721 44.0712C113.717 43.882 113.761 43.6949 113.847 43.5267C113.934 43.3585 114.061 43.2145 114.217 43.1075C114.548 42.8636 114.978 42.7419 115.507 42.7424C115.878 42.7335 116.248 42.7904 116.599 42.9102V42.6448C116.599 42.3499 116.508 42.1199 116.326 41.9548C116.144 41.7896 115.891 41.7068 115.568 41.7063C115.346 41.7061 115.126 41.7459 114.919 41.8237C114.679 41.9176 114.45 42.0368 114.236 42.1793L113.943 41.5896C114.498 41.2193 115.071 41.0341 115.663 41.0341C116.228 41.0341 116.671 41.1833 116.991 41.4818C117.312 41.7803 117.471 42.2005 117.469 42.7424V44.3018C117.463 44.378 117.482 44.4541 117.522 44.5189C117.545 44.5435 117.572 44.5627 117.603 44.5751C117.634 44.5875 117.667 44.5928 117.7 44.5905V45.2942C117.576 45.3186 117.451 45.3319 117.324 45.3338C117.175 45.3429 117.027 45.2971 116.909 45.2048C116.811 45.1229 116.747 45.0068 116.731 44.8799L116.708 44.6376C116.527 44.8715 116.292 45.0579 116.023 45.1809C115.753 45.3076 115.459 45.3738 115.161 45.3747C114.744 45.3747 114.399 45.2503 114.128 45.0014C113.996 44.8852 113.892 44.7418 113.822 44.5811C113.751 44.4205 113.717 44.2465 113.721 44.0712ZM116.387 44.325C116.527 44.1845 116.598 44.0541 116.598 43.934V43.4562C116.291 43.3389 115.965 43.2793 115.636 43.2802C115.313 43.2802 115.052 43.3454 114.853 43.476C114.761 43.529 114.685 43.6054 114.632 43.6974C114.58 43.7894 114.553 43.8936 114.554 43.9995C114.553 44.0965 114.573 44.1924 114.613 44.281C114.652 44.3696 114.71 44.4488 114.782 44.5134C114.935 44.6581 115.144 44.7304 115.409 44.7304C115.595 44.7299 115.778 44.6914 115.949 44.6171C116.113 44.5498 116.262 44.4505 116.387 44.325Z" fill="white"/>
<path d="M119.829 45.3727C119.486 45.3751 119.145 45.3155 118.823 45.1966C118.521 45.0868 118.246 44.912 118.019 44.6847L118.348 44.0944C118.812 44.4984 119.295 44.7004 119.798 44.7004C120.009 44.7106 120.219 44.6612 120.403 44.5578C120.474 44.5164 120.533 44.4565 120.573 44.3844C120.613 44.3123 120.633 44.2307 120.63 44.1483C120.63 44.1091 120.626 44.0699 120.618 44.0316C120.611 43.9954 120.596 43.9613 120.573 43.9319C120.553 43.9046 120.532 43.8784 120.509 43.8535C120.481 43.8256 120.449 43.8026 120.413 43.7852C120.37 43.7627 120.332 43.7449 120.3 43.7299C120.268 43.7149 120.22 43.6985 120.157 43.6774C120.094 43.6562 120.043 43.6405 120.001 43.6289C119.958 43.6173 119.897 43.6003 119.815 43.5777C119.732 43.5552 119.666 43.5368 119.614 43.5211C119.369 43.4456 119.171 43.3753 119.018 43.3102C118.871 43.2483 118.732 43.1695 118.603 43.0754C118.488 42.994 118.396 42.8836 118.336 42.7553C118.279 42.618 118.251 42.4701 118.254 42.3213C118.247 42.139 118.285 41.9578 118.364 41.7933C118.443 41.6289 118.561 41.4861 118.707 41.3774C119.009 41.1467 119.408 41.0314 119.903 41.0314C120.536 41.0314 121.046 41.2243 121.431 41.6101L121.052 42.1923C120.688 41.8611 120.288 41.6957 119.852 41.6961C119.66 41.6891 119.47 41.7321 119.3 41.821C119.227 41.861 119.168 41.9208 119.129 41.9934C119.09 42.066 119.072 42.1483 119.078 42.2305C119.077 42.2926 119.091 42.354 119.117 42.41C119.141 42.4588 119.173 42.5032 119.212 42.541C119.266 42.5871 119.327 42.624 119.393 42.6502C119.468 42.6847 119.545 42.7148 119.624 42.7403C119.692 42.7622 119.796 42.7942 119.934 42.8359L120.243 42.928C120.324 42.9526 120.415 42.9826 120.516 43.0181C120.616 43.0536 120.702 43.0863 120.766 43.1136C120.83 43.1409 120.903 43.1771 120.975 43.2187C121.04 43.2533 121.101 43.2947 121.157 43.3423C121.205 43.3863 121.251 43.4333 121.293 43.4829C121.337 43.5324 121.373 43.5892 121.398 43.6508C121.423 43.7147 121.443 43.7807 121.457 43.848C121.473 43.9266 121.481 44.0066 121.481 44.0869C121.481 44.4882 121.331 44.8028 121.031 45.0308C120.731 45.2587 120.331 45.3727 119.829 45.3727Z" fill="white"/>
<path d="M122.068 40.4206V39.4514H122.947V40.4206H122.068ZM122.068 45.2942V41.1085H122.947V45.2942H122.068Z" fill="white"/>
<path d="M123.81 39.4514H124.691V44.0889C124.691 44.2868 124.719 44.419 124.777 44.4854C124.809 44.5198 124.848 44.5466 124.892 44.5639C124.936 44.5811 124.983 44.5884 125.03 44.5851C125.219 44.5879 125.405 44.5492 125.576 44.4718L125.705 45.1673C125.56 45.2292 125.408 45.275 125.252 45.3038C125.095 45.3368 124.935 45.3544 124.775 45.3563C124.472 45.3563 124.236 45.2728 124.067 45.1058C123.898 44.9393 123.814 44.7059 123.814 44.4063L123.81 39.4514Z" fill="white"/>
<path d="M103.196 39.0317H102.351V45.3624H103.196V39.0317Z" fill="white"/>
</svg>
