<svg width="118" height="45" viewBox="0 0 118 45" fill="none" xmlns="http://www.w3.org/2000/svg">
<path d="M42.5271 0H0V42.5271H42.5271V0Z" fill="#1D2362"/>
<path fill-rule="evenodd" clip-rule="evenodd" d="M13.8653 28.4647L11.9458 29.9293C11.3405 29.166 10.3277 28.6176 9.39736 28.6176C7.63526 28.6176 6.20779 30.0893 6.20779 31.9038C6.20779 33.7184 7.63334 35.1906 9.39544 35.1906C10.3373 35.1906 11.3252 34.6602 11.9439 33.879L13.8634 35.3436C13.1452 36.2767 12.153 36.9617 11.0258 37.3023C9.89862 37.6429 8.69309 37.6221 7.57834 37.2428C6.46359 36.8635 5.49555 36.1447 4.81002 35.1873C4.12448 34.23 3.75586 33.082 3.75586 31.9045C3.75586 30.727 4.12448 29.579 4.81002 28.6216C5.49555 27.6642 6.46359 26.9455 7.57834 26.5662C8.69309 26.1869 9.89862 26.1661 11.0258 26.5067C12.153 26.8473 13.1452 27.5322 13.8634 28.4654L13.8653 28.4647Z" fill="white"/>
<path fill-rule="evenodd" clip-rule="evenodd" d="M23.3003 33.0874L18.2328 26.5771H16.0913V37.2368H18.4548V30.7207L23.5223 37.2368H25.6638V26.5771H23.3003V33.0874Z" fill="white"/>
<path fill-rule="evenodd" clip-rule="evenodd" d="M36.292 30.6311C36.292 30.1809 36.1132 29.7492 35.7949 29.4308C35.4765 29.1125 35.0448 28.9337 34.5946 28.9337H31.5694V32.3299H34.5946C34.8176 32.3298 35.0384 32.2858 35.2444 32.2004C35.4504 32.115 35.6375 31.9898 35.7951 31.8321C35.9528 31.6743 36.0778 31.4871 36.163 31.281C36.2483 31.075 36.2921 30.8541 36.292 30.6311ZM34.7193 26.5771C35.7944 26.5771 36.8253 27.0042 37.5855 27.7643C38.3456 28.5245 38.7727 29.5555 38.7727 30.6305C38.7727 31.7055 38.3456 32.7365 37.5855 33.4966C36.8253 34.2568 35.7944 34.6838 34.7193 34.6838H31.5694V37.238H29.2065V26.5771H34.7193Z" fill="white"/>
<path d="M47.7068 21.2637H42.5273V42.5272H47.7068V21.2637Z" fill="#DD0069"/>
<path fill-rule="evenodd" clip-rule="evenodd" d="M21.1958 19.7361C26.7393 12.6147 35.3924 8.03418 45.1166 8.03418C54.8408 8.03418 63.4932 12.6147 69.038 19.7361H62.0062C57.3831 15.5373 51.3618 13.2111 45.1166 13.2111C38.8714 13.2111 32.8501 15.5373 28.2269 19.7361H21.1958Z" fill="#00ACA9"/>
<path d="M60.7011 25.9133C60.6158 25.8092 60.3477 25.6578 59.8969 25.459C59.4929 25.2714 59.0542 25.1698 58.6089 25.1608C57.9554 25.1608 57.6287 25.3775 57.6287 25.8109C57.6254 25.9215 57.6548 26.0305 57.7131 26.1244C57.769 26.2097 57.8782 26.291 58.0407 26.3682C58.1836 26.4369 58.3306 26.4965 58.4809 26.5467C58.6144 26.5894 58.8364 26.6544 59.147 26.7419C59.211 26.7598 59.2538 26.7726 59.2826 26.7796C59.6106 26.8696 59.8905 26.959 60.1221 27.0477C60.3545 27.1374 60.5782 27.2479 60.7907 27.3779C60.9862 27.4934 61.161 27.6409 61.3077 27.8142C61.4447 27.9858 61.5493 28.1809 61.6161 28.3901C61.6958 28.6394 61.7343 28.9 61.73 29.1617C61.7348 29.4803 61.6797 29.797 61.5675 30.0952C61.4717 30.3522 61.3223 30.5858 61.1292 30.7805C60.9358 30.9673 60.7124 31.1203 60.4682 31.2329C60.2137 31.3531 59.9443 31.4392 59.6672 31.4888C59.374 31.5408 59.0768 31.5662 58.7791 31.5649C58.1786 31.5628 57.5814 31.4753 57.0055 31.3052C56.4445 31.1482 55.9106 30.9073 55.4219 30.5905L56.2178 29.0037C56.3078 29.0876 56.409 29.1587 56.5185 29.2148C56.6789 29.3087 56.8756 29.4106 57.1085 29.5207C57.3712 29.6417 57.6451 29.7371 57.9262 29.8054C58.217 29.8819 58.5162 29.9219 58.8168 29.9244C59.4592 29.9244 59.7804 29.7295 59.7804 29.3396C59.7809 29.278 59.7719 29.2167 59.7535 29.1579C59.7345 29.1004 59.703 29.0477 59.6614 29.0037C59.621 28.9588 59.5783 28.9161 59.5334 28.8757C59.4747 28.8288 59.4102 28.7897 59.3415 28.7593C59.2583 28.7196 59.1847 28.6863 59.1195 28.6595C59.0542 28.6326 58.964 28.6006 58.8488 28.5648C58.7336 28.5289 58.6358 28.5008 58.5564 28.4726C58.4771 28.4445 58.3645 28.415 58.2205 28.3754C58.0765 28.3357 57.9588 28.3011 57.8686 28.2724C57.5447 28.1766 57.2289 28.0553 56.9242 27.9096C56.686 27.7945 56.466 27.6449 56.2716 27.4655C56.0959 27.3031 55.9606 27.102 55.8762 26.8782C55.7891 26.63 55.7471 26.3682 55.752 26.1052C55.7467 25.7254 55.8265 25.3491 55.9856 25.0041C56.13 24.6896 56.346 24.4132 56.6164 24.1973C56.893 23.9821 57.2056 23.8179 57.5397 23.7123C57.9021 23.597 58.2804 23.5396 58.6607 23.5421C59.5778 23.5421 60.5235 23.8289 61.4977 24.4026L60.7011 25.9133Z" fill="#1D2362"/>
<path d="M65.4332 31.5875C64.9841 31.5925 64.5382 31.5106 64.1203 31.3463C63.7478 31.2033 63.41 30.9828 63.1292 30.6994C62.867 30.4279 62.6602 30.108 62.52 29.7576C62.3759 29.3995 62.3024 29.0169 62.3038 28.6308C62.3014 28.225 62.3738 27.8222 62.5175 27.4427C62.6536 27.0792 62.8587 26.7455 63.1215 26.4599C63.3983 26.167 63.7363 25.9388 64.1113 25.7913C64.9624 25.4628 65.9053 25.4628 66.7564 25.7913C67.1276 25.938 67.462 26.1645 67.736 26.4548C67.9926 26.7326 68.1939 27.0568 68.3291 27.41C68.4688 27.7736 68.5395 28.1601 68.5377 28.5496C68.5371 28.74 68.5225 28.9301 68.4942 29.1184H64.1881C64.2132 29.4904 64.3512 29.7828 64.602 29.9956C64.848 30.2072 65.1632 30.321 65.4876 30.3155C65.7507 30.3173 66.0099 30.2512 66.24 30.1236C66.4529 30.0166 66.6215 29.8384 66.7167 29.62L68.2273 30.0423C67.9869 30.5175 67.6096 30.9097 67.1441 31.1684C66.6578 31.4478 66.0875 31.5875 65.4332 31.5875ZM64.1446 28.03H66.6706C66.6339 27.6653 66.4994 27.3729 66.2669 27.1528C66.0305 26.9402 65.7239 26.8226 65.406 26.8226C65.0881 26.8226 64.7815 26.9402 64.5451 27.1528C64.3076 27.3856 64.1649 27.6981 64.1446 28.03Z" fill="#1D2362"/>
<path d="M69.0174 28.5609C69.0101 28.0307 69.1269 27.5061 69.3584 27.0291C69.5718 26.5849 69.904 26.2084 70.3182 25.9414C70.7383 25.6737 71.2278 25.5353 71.7258 25.5434C72.1245 25.5357 72.5183 25.6318 72.8686 25.8224C73.2019 26.0094 73.48 26.2811 73.6747 26.61V25.6573H75.218V31.0767C75.218 31.9537 74.9069 32.6522 74.2845 33.1721C73.6622 33.6921 72.8489 33.9521 71.8448 33.9521C70.6931 33.9521 69.7692 33.5639 69.0731 32.7876L70.0328 31.8189C70.2541 32.07 70.5278 32.2696 70.8345 32.4037C71.1527 32.5471 71.4978 32.6209 71.8468 32.62C72.0543 32.622 72.2608 32.5918 72.4591 32.5304C72.6427 32.473 72.8143 32.3824 72.9652 32.2629C73.1214 32.1345 73.2425 31.9685 73.3171 31.7805C73.4061 31.5567 73.4496 31.3175 73.4451 31.0767V30.5136C73.2716 30.8285 73.0065 31.0831 72.6849 31.2437C72.3486 31.4163 71.9752 31.5042 71.5972 31.4996C71.1179 31.5065 70.6478 31.3677 70.2491 31.1016C69.8522 30.8366 69.5357 30.4676 69.3341 30.035C69.1187 29.5738 69.0104 29.0698 69.0174 28.5609ZM73.4412 29.2813V28.0656C73.335 27.7755 73.1481 27.5217 72.9025 27.3343C72.6812 27.1585 72.4077 27.0614 72.1251 27.0585C71.7535 27.0585 71.4441 27.2127 71.1967 27.5211C70.9493 27.8305 70.818 28.2167 70.8256 28.6127C70.8256 29.0392 70.9582 29.3928 71.2236 29.6735C71.3488 29.8101 71.5018 29.9185 71.6723 29.9913C71.8427 30.0641 72.0268 30.0997 72.2121 30.0958C72.47 30.0977 72.7222 30.0202 72.9345 29.8738C73.1534 29.7253 73.3284 29.5206 73.4412 29.2813Z" fill="#1D2362"/>
<path d="M76.3755 29.3843V25.6572H78.1517V28.992C78.1517 29.3461 78.222 29.6178 78.3628 29.8072C78.4318 29.9004 78.5228 29.975 78.6276 30.0246C78.7324 30.0742 78.8478 30.0971 78.9636 30.0913C79.4977 30.0913 79.9219 29.8097 80.2362 29.2467V25.6572H82.0118V29.5013C82.0118 29.6779 82.0399 29.8033 82.0962 29.8776C82.1525 29.9518 82.2489 29.9944 82.3854 30.0055V31.4771C82.1379 31.5298 81.886 31.5587 81.633 31.5635C81.3229 31.5635 81.0746 31.4995 80.8882 31.3716C80.7965 31.3082 80.7187 31.2268 80.6597 31.1323C80.6006 31.0377 80.5614 30.9322 80.5446 30.822L80.512 30.47C79.9963 31.2135 79.2238 31.5853 78.1945 31.5853C77.6029 31.5853 77.1518 31.3976 76.8413 31.0222C76.5307 30.6469 76.3755 30.1009 76.3755 29.3843Z" fill="#1D2362"/>
<path d="M87.0811 27.1751C86.6775 27.1747 86.2772 27.2491 85.9007 27.3946C85.5594 27.5332 85.3122 27.7307 85.1591 27.9871V31.4799H83.3887V25.6575H85.0183V26.8322C85.2009 26.469 85.4661 26.1537 85.7925 25.9115C86.0795 25.6935 86.4284 25.5723 86.7887 25.5653C86.8863 25.5626 86.984 25.5662 87.0811 25.5762V27.1751Z" fill="#1D2362"/>
<path d="M87.4317 28.5719C87.4296 28.1782 87.5012 27.7876 87.6428 27.4202C87.7796 27.0641 87.9826 26.7371 88.2411 26.4566C88.5167 26.165 88.8531 25.9376 89.2264 25.7906C89.6472 25.6221 90.097 25.5384 90.5502 25.5442C91.0009 25.5385 91.4483 25.6222 91.8664 25.7906C92.2392 25.9386 92.5754 26.1659 92.8517 26.4566C93.1117 26.7365 93.3156 27.0636 93.4525 27.4202C93.7341 28.1596 93.7341 28.9766 93.4525 29.7159C93.3161 30.071 93.113 30.3968 92.8543 30.6757C92.5789 30.9658 92.2435 31.1922 91.8715 31.3392C91.0204 31.6677 90.0775 31.6677 89.2264 31.3392C88.8535 31.1925 88.5172 30.9661 88.2411 30.6757C87.9823 30.3968 87.7793 30.071 87.6428 29.7159C87.5017 29.3511 87.4301 28.9631 87.4317 28.5719ZM90.5502 30.0934C90.7257 30.0964 90.8995 30.0595 91.0585 29.9854C91.2176 29.9114 91.3577 29.8022 91.4684 29.666C91.7115 29.3807 91.8333 29.016 91.8337 28.5719C91.8337 28.121 91.7128 27.7557 91.471 27.4759C91.3589 27.3412 91.2179 27.2335 91.0585 27.1609C90.8991 27.0882 90.7254 27.0524 90.5502 27.0562C90.3735 27.0529 90.1984 27.0894 90.0377 27.163C89.877 27.2365 89.7349 27.3452 89.6218 27.481C89.3749 27.7642 89.2512 28.1279 89.2507 28.5719C89.2507 29.0236 89.3736 29.3901 89.6193 29.6712C89.7329 29.8068 89.8755 29.9152 90.0367 29.9883C90.1978 30.0614 90.3733 30.0973 90.5502 30.0934Z" fill="#1D2362"/>
<path d="M96.7666 31.5879C96.2678 31.5895 95.7724 31.5053 95.302 31.339C94.861 31.1887 94.4577 30.9449 94.1196 30.6243L94.7262 29.5033C95.4441 30.0305 96.1052 30.2939 96.7097 30.2935C97.19 30.2935 97.4301 30.1418 97.4301 29.8386C97.4301 29.6876 97.3361 29.5679 97.1486 29.4815C97.0548 29.4389 96.8129 29.3576 96.423 29.2378C96.21 29.1655 96.0321 29.1047 95.8894 29.0535C95.7467 29.0023 95.5989 28.9434 95.4454 28.875C95.3171 28.8206 95.1933 28.7565 95.0749 28.683C94.9764 28.6181 94.8831 28.5456 94.7959 28.4661C94.7106 28.3918 94.6392 28.303 94.5848 28.2038C94.5333 28.1042 94.4942 27.9987 94.4683 27.8896C94.4383 27.7628 94.4237 27.6329 94.4248 27.5025C94.4248 26.9177 94.6451 26.4457 95.0858 26.0866C95.5264 25.7274 96.1165 25.5479 96.8562 25.5479C97.7404 25.5479 98.4869 25.8221 99.0956 26.3707L98.4065 27.4782C97.7782 27.0414 97.2313 26.823 96.766 26.823C96.5917 26.8145 96.4185 26.8539 96.265 26.9369C96.2046 26.9729 96.1553 27.0247 96.1223 27.0867C96.0894 27.1488 96.0741 27.2187 96.0782 27.2888C96.0763 27.3581 96.0935 27.4265 96.128 27.4867C96.1624 27.5468 96.2127 27.5964 96.2733 27.6299C96.4013 27.7092 96.6395 27.7977 96.988 27.8954C97.2548 27.9779 97.4756 28.0496 97.6483 28.1091C97.8211 28.1686 97.9989 28.2371 98.1794 28.3177C98.3313 28.3808 98.4749 28.4625 98.6068 28.5608C98.714 28.6463 98.8112 28.7435 98.8966 28.8507C98.9859 28.9605 99.0513 29.0878 99.0886 29.2243C99.1282 29.3772 99.1473 29.5347 99.1455 29.6927C99.1455 30.2813 98.9322 30.7444 98.5057 31.0818C98.0791 31.4192 97.4994 31.5879 96.7666 31.5879Z" fill="#1D2362"/>
<path d="M61.1556 42.5271H59.9316V39.2787C59.9316 38.7592 59.8378 38.3684 59.6501 38.1065C59.4624 37.8446 59.1918 37.7137 58.8382 37.7137C58.4969 37.7137 58.164 37.8438 57.8394 38.104C57.5209 38.3516 57.2873 38.6922 57.1708 39.0784V42.5271H55.9551V34.4326H57.1708V37.8928C57.3859 37.5078 57.6997 37.1871 58.08 36.9638C58.4568 36.7401 58.8875 36.6233 59.3257 36.626C60.5452 36.626 61.1552 37.4151 61.1556 38.9933V42.5271Z" fill="#1D2362"/>
<path d="M62.1277 40.7789C61.9866 40.4127 61.915 40.0234 61.9165 39.631C61.9156 38.8522 62.2054 38.1011 62.7291 37.5247C62.994 37.2419 63.3159 37.0186 63.6735 36.8695C64.0596 36.7054 64.4754 36.6227 64.8949 36.6264C65.4458 36.6174 65.9883 36.7616 66.4619 37.0429C66.9074 37.3054 67.2719 37.6858 67.5151 38.1421C67.7534 38.6022 67.8778 39.1129 67.8778 39.631C67.8778 40.1492 67.7534 40.6598 67.5151 41.1199C67.272 41.5764 66.9076 41.9568 66.4619 42.2192C65.9883 42.5007 65.4458 42.6451 64.8949 42.6363C64.472 42.6404 64.0528 42.5574 63.6633 42.3925C63.3056 42.2435 62.9837 42.0202 62.7189 41.7374C62.4628 41.4582 62.2622 41.133 62.1277 40.7789ZM63.6684 41.0387C63.8194 41.216 64.0075 41.3579 64.2195 41.4543C64.4315 41.5507 64.6621 41.5993 64.8949 41.5966C65.3782 41.5966 65.7879 41.407 66.1241 41.0278C66.4602 40.6486 66.628 40.183 66.6276 39.631C66.6276 39.0786 66.4598 38.6139 66.1241 38.2368C65.9736 38.0578 65.7853 37.9142 65.5728 37.8164C65.3603 37.7186 65.1289 37.669 64.8949 37.6712C64.4146 37.6712 64.0066 37.8632 63.6709 38.2471C63.3352 38.631 63.1674 39.0983 63.1674 39.6489C63.1683 40.2039 63.3357 40.6671 63.6697 41.0387H63.6684Z" fill="#1D2362"/>
<path d="M68.6959 34.4326H69.9116V40.854C69.9116 41.1285 69.9513 41.3121 70.0313 41.4036C70.0759 41.4514 70.1307 41.4886 70.1916 41.5125C70.2525 41.5364 70.3179 41.5464 70.3832 41.5418C70.6424 41.5451 70.8992 41.4916 71.1356 41.385L71.3141 42.3486C71.1124 42.4357 70.9017 42.5 70.6858 42.5406C70.4687 42.587 70.2475 42.6117 70.0255 42.6142C69.607 42.6142 69.2803 42.4986 69.0453 42.2674C68.8102 42.0362 68.6929 41.7131 68.6934 41.298L68.6959 34.4326Z" fill="#1D2362"/>
<path d="M71.3806 39.6306C71.3746 39.1094 71.4875 38.5936 71.7108 38.1225C71.918 37.6812 72.2408 37.3043 72.6449 37.0316C73.0435 36.7623 73.5146 36.6208 73.9956 36.626C74.4143 36.6228 74.8253 36.7382 75.1812 36.9587C75.5342 37.1727 75.8282 37.4713 76.0367 37.8276V34.4326H77.2523V41.1509C77.2523 41.2916 77.2779 41.3927 77.3285 41.4541C77.3615 41.488 77.4015 41.5142 77.4457 41.531C77.4899 41.5478 77.5373 41.5548 77.5844 41.5514V42.5259C77.4092 42.5585 77.2316 42.5767 77.0534 42.5802C76.8447 42.5869 76.6404 42.5189 76.4775 42.3883C76.4035 42.3307 76.3427 42.2579 76.2993 42.1748C76.2559 42.0917 76.2309 42.0002 76.2261 41.9065L76.2152 41.4733C76.0007 41.8326 75.6941 42.1279 75.3271 42.3288C74.9651 42.5322 74.5567 42.6387 74.1415 42.6378C73.6378 42.6436 73.1435 42.5014 72.7198 42.229C72.2984 41.9594 71.9572 41.5815 71.7319 41.1349C71.495 40.6692 71.3745 40.153 71.3806 39.6306ZM76.0367 40.4426V38.921C75.9043 38.5631 75.6665 38.2536 75.3546 38.0336C75.0262 37.7917 74.6941 37.6708 74.3584 37.6708C74.0371 37.6674 73.7232 37.7669 73.4626 37.9549C73.1986 38.1428 72.9885 38.3967 72.8535 38.6913C72.7125 38.9938 72.6403 39.3238 72.6423 39.6575C72.631 40.1657 72.8183 40.6583 73.1645 41.0306C73.3255 41.2119 73.5237 41.3563 73.7457 41.4539C73.9676 41.5515 74.2081 41.6 74.4505 41.5962C74.779 41.5962 75.1046 41.4834 75.4275 41.2577C75.7504 41.0321 75.9535 40.7603 76.0367 40.4426Z" fill="#1D2362"/>
<path d="M78.5259 35.7753V34.4316H79.7416V35.7753H78.5259ZM78.5259 42.5268V36.7261H79.7416V42.5249L78.5259 42.5268Z" fill="#1D2362"/>
<path d="M86.1322 42.5275H84.9089V39.2791C84.9089 38.7412 84.8236 38.346 84.6529 38.0935C84.4823 37.841 84.2253 37.7145 83.8819 37.7141C83.5283 37.7141 83.1826 37.845 82.8448 38.1069C82.519 38.3522 82.2763 38.6914 82.1493 39.0788V42.5275H80.9336V36.7268H82.0437V37.8913C82.2717 37.4967 82.6078 37.1754 83.0124 36.9655C83.4402 36.7365 83.9189 36.6192 84.404 36.6244C84.6472 36.6193 84.8891 36.6615 85.1162 36.7486C85.3054 36.8218 85.4757 36.9366 85.6146 37.0845C85.75 37.2376 85.8554 37.4146 85.9256 37.6066C86.0049 37.8144 86.0603 38.0305 86.0906 38.2509C86.1228 38.4961 86.1382 38.7432 86.1367 38.9905L86.1322 42.5275Z" fill="#1D2362"/>
<path d="M86.9167 39.631C86.9108 39.1089 87.0264 38.5925 87.2545 38.1229C87.4696 37.6789 87.8013 37.3018 88.2143 37.032C88.6284 36.7611 89.1138 36.6199 89.6085 36.6263C90.032 36.6191 90.4492 36.7298 90.8133 36.9462C91.1744 37.1664 91.4794 37.4676 91.7039 37.826V36.7268H92.7814V42.3573C92.7814 42.9024 92.646 43.3772 92.3751 43.7816C92.1049 44.1854 91.7232 44.5021 91.2765 44.6933C90.7785 44.9047 90.2416 45.0091 89.7006 44.9998C88.531 44.9998 87.6395 44.5846 87.0261 43.754L87.7133 43.1142C87.9306 43.4199 88.2248 43.6627 88.5662 43.818C88.9215 43.9831 89.3089 44.0672 89.7006 44.0644C90.018 44.0692 90.333 44.0093 90.6265 43.8884C90.9039 43.7685 91.1389 43.5678 91.3009 43.3126C91.4815 43.0257 91.5729 42.6917 91.5632 42.3528V41.4718C91.3606 41.8151 91.0676 42.0962 90.7161 42.2844C90.3637 42.4799 89.9673 42.5823 89.5644 42.5819C89.0756 42.587 88.5967 42.4435 88.1913 42.1705C87.7854 41.9002 87.4593 41.5262 87.2469 41.0872C87.0254 40.634 86.9124 40.1354 86.9167 39.631ZM91.5619 40.4429V38.9214C91.4206 38.5631 91.1803 38.2524 90.869 38.0256C90.5843 37.8025 90.2344 37.6789 89.8727 37.6737C89.5453 37.6697 89.2257 37.7734 88.9629 37.9687C88.6997 38.1605 88.4916 38.4183 88.3595 38.716C88.2244 39.0158 88.155 39.3411 88.1561 39.67C88.1463 40.1753 88.3349 40.6643 88.6814 41.0322C88.8422 41.2131 89.04 41.3573 89.2615 41.4549C89.483 41.5525 89.7229 41.6012 89.9649 41.5978C90.3261 41.5964 90.677 41.4766 90.9637 41.2568C91.2721 41.0281 91.4708 40.7569 91.56 40.4429H91.5619Z" fill="#1D2362"/>
<path d="M102.064 42.463H99.5215V37.1358H102.266C102.497 37.1334 102.723 37.2046 102.911 37.3393C103.096 37.4691 103.244 37.6457 103.339 37.8511C103.434 38.0533 103.483 38.274 103.482 38.4974C103.484 38.7583 103.413 39.0145 103.277 39.2377C103.148 39.4588 102.951 39.6333 102.716 39.7361C103.007 39.8146 103.264 39.9888 103.444 40.2307C103.624 40.4809 103.717 40.7835 103.709 41.0919C103.715 41.284 103.675 41.4747 103.593 41.6483C103.51 41.8219 103.388 41.9733 103.235 42.09C102.916 42.3391 102.526 42.4635 102.064 42.463ZM100.36 37.8652V39.4328H101.907C102.005 39.4348 102.102 39.4161 102.192 39.3779C102.283 39.3398 102.364 39.283 102.431 39.2114C102.501 39.137 102.556 39.0493 102.593 38.9534C102.629 38.8575 102.646 38.7554 102.643 38.6528C102.651 38.4462 102.581 38.2441 102.447 38.0866C102.386 38.0152 102.31 37.9583 102.224 37.9201C102.138 37.8818 102.045 37.863 101.951 37.8652H100.36ZM102.115 40.1046H100.36V41.7317H102.064C102.168 41.7338 102.272 41.7137 102.367 41.6729C102.463 41.6321 102.549 41.5715 102.62 41.495C102.693 41.4202 102.75 41.3317 102.789 41.2347C102.827 41.1376 102.846 41.0338 102.845 40.9294C102.849 40.7172 102.774 40.5111 102.636 40.3503C102.573 40.2732 102.494 40.2112 102.404 40.1691C102.315 40.127 102.216 40.1058 102.117 40.1072L102.115 40.1046Z" fill="#1D2362"/>
<path d="M106.497 39.2496C106.198 39.2511 105.903 39.3286 105.642 39.4749C105.405 39.6056 105.219 39.813 105.116 40.0629V42.4629H104.293V38.5388H105.061V39.4186C105.186 39.1638 105.368 38.9417 105.594 38.7698C105.794 38.6128 106.038 38.5196 106.292 38.5023C106.361 38.501 106.431 38.5033 106.5 38.5093L106.497 39.2496Z" fill="#1D2362"/>
<path d="M106.614 41.317C106.61 41.1397 106.651 40.9643 106.732 40.8066C106.813 40.6489 106.932 40.5138 107.079 40.4135C107.389 40.1849 107.792 40.0708 108.288 40.0712C108.636 40.063 108.982 40.1163 109.312 40.2286V39.9797C109.312 39.7033 109.226 39.4877 109.056 39.3329C108.885 39.178 108.648 39.1004 108.345 39.1C108.137 39.0998 107.931 39.137 107.736 39.21C107.512 39.298 107.297 39.4098 107.097 39.5434L106.822 38.9906C107.342 38.6433 107.879 38.4697 108.434 38.4697C108.964 38.4697 109.379 38.6096 109.68 38.8895C109.98 39.1693 110.13 39.5632 110.128 40.0712V41.5332C110.122 41.6047 110.139 41.676 110.177 41.7367C110.198 41.7598 110.224 41.7778 110.253 41.7894C110.282 41.8011 110.313 41.806 110.344 41.8039V42.4636C110.228 42.4865 110.11 42.4989 109.992 42.5007C109.852 42.5093 109.713 42.4663 109.602 42.3797C109.51 42.303 109.45 42.1942 109.435 42.0752L109.413 41.848C109.244 42.0673 109.024 42.2421 108.772 42.3573C108.519 42.4762 108.243 42.5382 107.964 42.5391C107.572 42.5391 107.25 42.4224 106.995 42.1891C106.872 42.0801 106.774 41.9457 106.708 41.7951C106.642 41.6445 106.61 41.4813 106.614 41.317ZM109.113 41.555C109.245 41.4232 109.31 41.301 109.31 41.1884V40.7405C109.023 40.6305 108.717 40.5746 108.409 40.5754C108.106 40.5754 107.861 40.6366 107.674 40.759C107.588 40.8087 107.517 40.8804 107.468 40.9666C107.419 41.0528 107.393 41.1505 107.394 41.2498C107.394 41.3407 107.413 41.4306 107.45 41.5137C107.487 41.5967 107.541 41.671 107.608 41.7316C107.751 41.8672 107.947 41.9351 108.196 41.9351C108.37 41.9346 108.543 41.8984 108.702 41.8288C108.856 41.7657 108.995 41.6726 109.113 41.555Z" fill="#1D2362"/>
<path d="M112.34 42.5368C112.018 42.5391 111.698 42.4832 111.396 42.3717C111.113 42.2687 110.856 42.1049 110.643 41.8918L110.951 41.3384C111.386 41.7171 111.839 41.9065 112.31 41.9065C112.508 41.9161 112.705 41.8697 112.878 41.7728C112.945 41.734 113 41.6779 113.037 41.6103C113.075 41.5426 113.093 41.4661 113.09 41.3889C113.091 41.3521 113.087 41.3155 113.08 41.2795C113.073 41.2455 113.058 41.2136 113.037 41.1861C113.019 41.1605 112.999 41.1359 112.977 41.1125C112.951 41.0864 112.921 41.0648 112.888 41.0485C112.847 41.0274 112.811 41.0108 112.781 40.9967C112.751 40.9826 112.706 40.9673 112.647 40.9474C112.588 40.9276 112.54 40.9129 112.5 40.902C112.461 40.8911 112.404 40.8751 112.326 40.854C112.249 40.8329 112.187 40.8156 112.138 40.8009C111.909 40.7301 111.722 40.6642 111.579 40.6032C111.442 40.5452 111.311 40.4713 111.191 40.3831C111.082 40.3068 110.996 40.2033 110.94 40.083C110.886 39.9543 110.86 39.8156 110.863 39.6761C110.857 39.5052 110.892 39.3353 110.966 39.1811C111.04 39.0269 111.151 38.8931 111.288 38.7912C111.571 38.5749 111.945 38.4668 112.409 38.4668C113.003 38.4668 113.48 38.6477 113.842 39.0094L113.486 39.5552C113.145 39.2446 112.77 39.0896 112.362 39.09C112.182 39.0834 112.003 39.1238 111.843 39.2071C111.776 39.2446 111.72 39.3006 111.684 39.3687C111.647 39.4367 111.63 39.5139 111.636 39.591C111.635 39.6492 111.647 39.7068 111.673 39.7593C111.695 39.8051 111.724 39.8466 111.761 39.8821C111.812 39.9253 111.869 39.9599 111.931 39.9845C112.001 40.0168 112.074 40.045 112.147 40.0689C112.211 40.0894 112.309 40.1195 112.438 40.1585L112.728 40.2449C112.804 40.2679 112.89 40.2961 112.984 40.3293C113.078 40.3626 113.158 40.3933 113.218 40.4189C113.279 40.4445 113.346 40.4784 113.414 40.5175C113.475 40.5498 113.532 40.5887 113.584 40.6333C113.63 40.6745 113.672 40.7186 113.712 40.7651C113.754 40.8115 113.787 40.8648 113.811 40.9225C113.834 40.9824 113.853 41.0443 113.866 41.1074C113.881 41.181 113.889 41.2561 113.888 41.3313C113.888 41.7075 113.748 42.0025 113.467 42.2162C113.186 42.4299 112.81 42.5368 112.34 42.5368Z" fill="#1D2362"/>
<path d="M114.438 37.8939V36.9854H115.263V37.8939H114.438ZM114.438 42.463V38.5389H115.263V42.463H114.438Z" fill="#1D2362"/>
<path d="M116.072 36.9854H116.898V41.333C116.898 41.5186 116.925 41.6425 116.978 41.7048C117.009 41.737 117.046 41.7621 117.087 41.7783C117.128 41.7944 117.172 41.8012 117.216 41.7982C117.393 41.8008 117.567 41.7646 117.728 41.692L117.849 42.344C117.713 42.4021 117.57 42.445 117.424 42.4719C117.277 42.5029 117.127 42.5194 116.976 42.5212C116.693 42.5212 116.472 42.4429 116.313 42.2864C116.154 42.1302 116.075 41.9114 116.075 41.6305L116.072 36.9854Z" fill="#1D2362"/>
<path d="M96.7467 36.5918H95.9546V42.5269H96.7467V36.5918Z" fill="#00ACA9"/>
</svg>
