<svg width="574" height="177" viewBox="0 0 574 177" fill="none" xmlns="http://www.w3.org/2000/svg">

<path d="M142.406 136.153C136.423 136.153 130.811 135.353 125.667 133.761C122.254 132.705 119.121 130.974 116.607 128.757C113.809 126.29 111.876 123.28 111.018 120.051C109.731 115.208 110.674 109.599 113.902 102.903C114.444 101.781 115.006 100.64 115.55 99.5356C119.167 92.1981 122.906 84.612 123.399 76.428C123.647 72.308 122.876 68.5556 121.106 65.2751C119.179 61.7037 116.12 58.6626 111.754 55.9778C105.112 51.8921 98.2808 49.4844 90.8725 48.6162C84.3118 47.8476 77.4739 48.3138 69.9679 50.0433C55.969 53.2677 42.3956 60.2639 29.2684 67.0287C26.0173 68.7045 23.0273 70.4123 20.1351 72.064C14.1701 75.4704 8.53624 78.6879 2.23311 80.6191C1.32232 80.8974 0.357468 80.3889 0.0768693 79.4817C-0.20373 78.5745 0.308019 77.6135 1.21882 77.334C7.15395 75.5163 12.3738 72.5347 18.4182 69.0825C21.3415 67.4124 24.3648 65.6863 27.6814 63.9762C40.9972 57.1129 54.7672 50.017 69.1882 46.6953C85.8505 42.857 100.366 44.9371 113.564 53.0546C118.461 56.0659 121.921 59.532 124.143 63.6497C126.221 67.5006 127.128 71.8693 126.841 76.6353C126.306 85.5077 122.411 93.41 118.645 101.051C118.104 102.148 117.546 103.282 117.011 104.391C114.153 110.32 113.284 115.155 114.351 119.173C115.951 125.188 121.773 128.959 126.688 130.48C132.792 132.37 139.634 133.068 147.025 132.556C153.72 132.092 160.652 130.614 167.074 128.283C167.969 127.958 168.958 128.417 169.285 129.31C169.612 130.201 169.15 131.187 168.255 131.512C161.534 133.952 154.275 135.498 147.264 135.984C145.622 136.096 144 136.153 142.406 136.153Z" fill="#3D4451"/>
<path d="M140.653 144.477C136.043 144.477 131.429 144.054 126.894 143.199C120.374 141.968 114.346 138.916 109.922 134.602C104.965 129.77 102.334 123.725 102.313 117.123C102.291 109.996 104.888 103.181 107.431 97.4541C108.09 95.9708 108.82 94.4783 109.594 92.8988C112.84 86.2714 116.197 79.4173 114.465 72.8769C113.325 68.5702 109.779 64.6505 104.736 62.1215C94.2024 56.8388 82.3735 56.0416 68.5747 59.6852C56.3595 62.9107 44.1787 69.191 33.4331 74.7314L32.4694 75.2285C22.3127 80.463 12.7194 85.4066 3.27101 88.4935C2.36597 88.7891 1.39077 88.2977 1.09407 87.3962C0.797372 86.4948 1.29072 85.5235 2.19577 85.228C11.3808 82.2281 20.8545 77.3452 30.8836 72.1771L31.8461 71.6811C42.7492 66.0594 55.1083 59.6875 67.6892 56.3657C82.3402 52.4977 94.966 53.3773 106.287 59.0552C112.211 62.0264 116.408 66.7467 117.8 72.0041C119.86 79.7804 116.052 87.552 112.693 94.4096C111.934 95.9605 111.217 97.4244 110.584 98.8481C108.188 104.244 105.74 110.634 105.761 117.116C105.778 122.778 108.051 127.977 112.332 132.151C116.275 135.996 121.674 138.721 127.534 139.827C141.678 142.494 156.629 140.751 169.632 134.917C170.5 134.528 171.521 134.913 171.913 135.779C172.304 136.643 171.918 137.661 171.049 138.051C161.58 142.295 151.124 144.477 140.653 144.477Z" fill="#3D4451"/>
<path d="M573.46 115.405C566.807 114.342 560.639 112.365 553.462 108.992C550.647 107.669 548.178 105.876 546.323 103.805C544.131 101.358 542.844 98.6262 542.498 95.6848C541.708 88.9852 545.384 83.7461 549.275 78.1989C553.654 71.9552 556.448 65.9956 557.576 60.4873C558.226 57.3168 558.343 54.2116 557.924 51.2575C557.47 48.0526 556.371 44.9176 554.655 41.9384C549.966 33.7991 540.748 27.607 529.364 24.9485C518.616 22.4389 506.403 22.3747 494.974 24.7663C484.374 26.985 474.057 30.8634 464.079 34.6146C463.112 34.9777 462.146 35.3408 461.18 35.7028C457.786 36.973 454.344 38.4128 451.016 39.8057C444.392 42.5776 437.542 45.4434 430.487 47.2371L429.645 43.9463C436.454 42.2156 443.186 39.399 449.696 36.6752C453.054 35.2698 456.526 33.8174 459.98 32.5242C460.945 32.1634 461.91 31.8003 462.875 31.4372C472.974 27.6413 483.416 23.7148 494.272 21.4435C506.179 18.9511 518.918 19.0221 530.142 21.6428C542.442 24.5143 552.455 31.2964 557.612 40.2489C561.326 46.6976 562.438 53.7351 560.917 61.1665C559.678 67.2166 556.784 73.4236 552.071 80.1438C548.259 85.5788 545.247 89.8718 545.886 95.2885C546.15 97.5232 547.153 99.6284 548.869 101.544C550.422 103.277 552.514 104.791 554.918 105.92C561.793 109.15 567.677 111.041 574 112.05L573.46 115.405Z" fill="#3D4451"/>
<path d="M572.475 123.915C565.031 122.541 555.766 120.834 548.146 116.9C543.967 114.743 540.755 112.181 538.325 109.069C535.561 105.527 533.893 101.28 533.367 96.4443C532.872 91.8775 533.596 87.447 535.584 82.9009C537.286 79.0064 539.605 75.6572 541.849 72.4203C544.033 69.2681 546.094 66.2912 547.357 63.1837C550.029 56.6101 550.148 50.0778 547.687 45.2648C545.321 40.6362 540.727 37.6844 537.292 36.0236C527.791 31.4304 517.219 29.9185 504.975 31.4007C495.562 32.5404 485.544 35.3294 472.49 40.4449C463.624 43.9189 454.651 47.5808 445.975 51.1224C441.86 52.8016 437.605 54.5381 433.416 56.2333L432.117 53.0502C436.302 51.3572 440.555 49.6219 444.666 47.9439C453.354 44.3977 462.338 40.7312 471.227 37.248C484.564 32.0215 494.845 29.1671 504.559 27.9908C510.627 27.2565 516.436 27.2359 521.824 27.9301C527.815 28.7021 533.526 30.3858 538.799 32.9344C542.71 34.8255 547.961 38.2285 550.762 43.707C553.678 49.4089 553.603 56.9778 550.556 64.4746C549.151 67.9326 546.985 71.0607 544.69 74.3732C542.54 77.4762 540.318 80.6856 538.748 84.2754C537.007 88.2603 536.369 92.1203 536.799 96.0777C537.658 103.988 541.889 109.802 549.734 113.851C556.9 117.55 565.885 119.206 573.104 120.538L572.475 123.915Z" fill="#3D4451"/>
<path d="M187.828 131.689L190.202 138.492C191.405 141.939 195.058 143.807 198.362 142.663L213.201 137.525L210.384 129.846C210.385 129.846 194.879 139.331 187.828 131.689Z" fill="#C7DDEB"/>
<path d="M210.74 128.392L212.027 132.262C214.243 138.931 221.21 142.458 227.588 140.14L259.438 128.565L254.283 113.053L210.74 128.392Z" fill="#C7DDEB"/>
<path d="M174.36 129.507L183.958 126.184L187.999 137.765L178.401 141.088C175.263 142.174 171.836 140.521 170.745 137.396L170.653 137.133C169.564 134.007 171.223 130.593 174.36 129.507Z" fill="#C7DDEB"/>
<path d="M221.529 142.79C219.708 142.79 217.897 142.38 216.21 141.566C213.271 140.148 211.06 137.675 209.988 134.603L199.778 105.343C198.706 102.269 198.899 98.9649 200.322 96.0373C201.745 93.1096 204.228 90.9081 207.312 89.8406L235.945 79.9281L254.184 132.197L225.55 142.108C224.238 142.563 222.881 142.79 221.529 142.79ZM233.554 84.8511L208.589 93.4933C206.483 94.2218 204.789 95.7234 203.818 97.7222C202.846 99.7198 202.715 101.975 203.446 104.072L213.656 133.333C214.387 135.43 215.895 137.118 217.902 138.085C219.907 139.052 222.172 139.184 224.277 138.455L249.241 129.813L233.554 84.8511Z" fill="#3D4451"/>
<path d="M196.375 144.932C192.902 144.932 189.609 142.682 188.369 139.127L180.035 115.241C179.288 113.102 179.387 110.809 180.314 108.785C181.255 106.729 182.932 105.196 185.036 104.468L199.875 99.3316L201.15 102.986L186.311 108.123C185.22 108.501 184.345 109.306 183.848 110.391C183.338 111.506 183.286 112.778 183.703 113.973L192.037 137.859C192.887 140.293 195.439 141.629 197.725 140.837L212.564 135.7L213.839 139.354L199.001 144.49C198.133 144.789 197.249 144.932 196.375 144.932Z" fill="#3D4451"/>
<path d="M255.455 134.988C254.596 134.988 253.742 134.795 252.946 134.411C251.559 133.742 250.516 132.575 250.01 131.126L233.339 83.3474C232.833 81.8973 232.923 80.3384 233.595 78.9571C234.267 77.5757 235.438 76.5368 236.894 76.0339L237.935 75.6731C240.94 74.6331 244.235 76.2218 245.279 79.2148L261.95 126.995C262.456 128.445 262.366 130.004 261.694 131.385C261.022 132.766 259.851 133.805 258.396 134.308L257.354 134.669C256.734 134.882 256.094 134.988 255.455 134.988ZM239.018 78.7738L237.978 79.1346C237.353 79.3511 236.852 79.7955 236.564 80.3877C236.277 80.9799 236.238 81.6476 236.454 82.2696L253.125 130.048C253.343 130.669 253.789 131.17 254.384 131.456C254.978 131.742 255.648 131.781 256.273 131.566L257.315 131.205C257.938 130.989 258.441 130.544 258.728 129.952C259.016 129.36 259.055 128.692 258.839 128.07L242.165 80.2915C241.717 79.0086 240.305 78.3282 239.018 78.7738Z" fill="#3D4451"/>
<path d="M195.625 112.595C196.168 112.407 196.762 112.693 196.952 113.235L202.791 129.972C202.98 130.513 202.692 131.104 202.148 131.293C201.604 131.481 201.011 131.195 200.821 130.653L194.982 113.916C194.793 113.375 195.081 112.782 195.625 112.595Z" fill="#3D4451"/>
<path d="M190.701 114.299C191.245 114.111 191.838 114.398 192.028 114.939L197.867 131.676C198.056 132.218 197.769 132.809 197.225 132.998C196.681 133.186 196.087 132.899 195.897 132.358L190.058 115.621C189.869 115.079 190.158 114.487 190.701 114.299Z" fill="#3D4451"/>
<path d="M174.926 138.831C173.683 138.831 172.446 138.551 171.293 137.995C169.285 137.027 167.777 135.338 167.044 133.238L166.938 132.937C165.426 128.604 167.735 123.854 172.086 122.348L184.465 118.061L190.054 134.079L177.673 138.366C176.776 138.678 175.85 138.831 174.926 138.831ZM172.563 123.719L173.041 125.089C171.669 125.564 170.564 126.543 169.932 127.846C169.298 129.148 169.213 130.619 169.689 131.985L169.795 132.286C170.272 133.654 171.255 134.754 172.563 135.385C173.87 136.016 175.347 136.101 176.719 135.626L186.348 132.293L182.671 121.757L173.042 125.09L172.563 123.719Z" fill="#3D4451"/>
<path d="M429.471 61.7234L416.202 66.1768L412.842 56.2426L426.111 51.7892C428.865 50.8648 431.85 52.339 432.778 55.0834C433.706 57.8256 432.225 60.7991 429.471 61.7234Z" fill="#C7DDEB"/>
<path d="M416.574 66.2419L396.303 73.4569L398.166 87.1675L413.703 81.1884C417.584 79.6948 420.119 73.9872 419.366 68.44C419.14 66.7871 417.864 65.7826 416.574 66.2419Z" fill="#C7DDEB"/>
<path d="M386.473 79.9396L389.657 89.3515C390.454 91.7076 393.069 92.9561 395.498 92.1417L395.573 92.1165C398.002 91.301 399.325 88.7307 398.528 86.3746L395.369 77.036" fill="#C7DDEB"/>
<path d="M393.518 89.6934L351.124 104.177C348.766 104.969 346.365 104.16 345.76 102.371L343.794 96.5579C343.189 94.7699 344.609 92.6783 346.967 91.8869L386.59 78.5897" fill="#C7DDEB"/>
<path d="M363.612 72.5127L341.811 79.8288L343.144 83.7703L364.945 76.4542L363.612 72.5127Z" fill="#FDC345"/>
<path d="M399.838 86.2499L398.474 82.2169L413.415 77.2035C416.024 76.3272 417.432 73.5003 416.553 70.9014L406.728 41.8559C406.302 40.5971 405.409 39.5777 404.214 38.9878C403.019 38.3968 401.664 38.3063 400.4 38.7301L385.46 43.7436L384.096 39.7106L399.036 34.6971C401.382 33.9102 403.895 34.0797 406.112 35.1747C408.33 36.2697 409.987 38.1597 410.777 40.4963L420.602 69.5418C422.234 74.3651 419.621 79.61 414.78 81.2353L399.838 86.2499Z" fill="#3D4451"/>
<path d="M414.928 64.5705L409.312 47.9711L424.163 42.9874C428.758 41.4445 433.755 43.9141 435.303 48.49C436.851 53.0659 434.373 58.0439 429.779 59.5856L414.928 64.5705ZM413.862 50.2184L417.184 60.0381L428.631 56.1963L429.205 57.8916L428.631 56.1963C431.35 55.2846 432.816 52.3397 431.899 49.632C430.984 46.9242 428.027 45.4638 425.309 46.3767L413.862 50.2184Z" fill="#3D4451"/>
<path d="M348.139 106.636L330.52 54.5508L373.57 40.1037L374.828 43.824L335.514 57.0169L350.616 101.663L389.929 88.47L391.189 92.1903L348.139 106.636Z" fill="#3D4451"/>
<path d="M342.251 85.5332L338.717 75.0858L363.162 66.8824L366.696 77.3297L342.251 85.5332ZM342.253 76.8326L344.005 82.011L363.159 75.583L361.407 70.4045L342.253 76.8326Z" fill="#3D4451"/>
<path d="M316.342 77.1461C314.455 77.1461 312.691 75.9594 312.055 74.0809L311.897 73.6159C311.101 71.2632 312.376 68.7055 314.738 67.9129L335.469 60.9556L338.513 69.9528L317.782 76.9101C317.304 77.0693 316.819 77.1461 316.342 77.1461ZM333.598 64.7149L315.69 70.7249C315.3 70.8554 314.985 71.1303 314.802 71.4969C314.619 71.8645 314.59 72.2803 314.723 72.6686L314.88 73.1337C315.011 73.522 315.287 73.8358 315.655 74.0179C316.025 74.2 316.442 74.2287 316.832 74.097L334.74 68.087L333.598 64.7149Z" fill="#3D4451"/>
<path d="M325.844 105.235C323.957 105.235 322.193 104.049 321.557 102.17L321.399 101.705C320.603 99.3535 321.877 96.7947 324.238 96.002L344.969 89.0448L348.012 98.042L327.281 104.999C326.806 105.16 326.321 105.235 325.844 105.235ZM343.098 92.804L325.191 98.814C324.386 99.0843 323.951 99.956 324.222 100.758L324.38 101.223C324.511 101.611 324.787 101.925 325.155 102.107C325.524 102.289 325.942 102.318 326.331 102.186L344.239 96.1761L343.098 92.804Z" fill="#3D4451"/>
<path d="M342.74 59.8663C342.328 59.8663 341.945 59.6075 341.806 59.1986C341.632 58.6843 341.909 58.1276 342.424 57.9546L361.041 51.7075C361.556 51.5346 362.116 51.8106 362.289 52.3237C362.463 52.838 362.186 53.3947 361.671 53.5677L343.055 59.8148C342.95 59.8491 342.844 59.8663 342.74 59.8663Z" fill="#3D4451"/>
<path d="M394.022 94.0067C391.404 94.0067 388.956 92.3596 388.075 89.7549L372.666 44.1983C372.131 42.6176 372.246 40.9235 372.99 39.4288C373.734 37.934 375.018 36.8184 376.605 36.2858L376.68 36.2606C378.267 35.7279 379.968 35.8425 381.468 36.5836C382.968 37.3246 384.088 38.6041 384.623 40.1847L400.033 85.7413C401.137 89.0046 399.37 92.5543 396.093 93.6539L396.018 93.6791C395.357 93.9013 394.684 94.0067 394.022 94.0067ZM378.685 39.1779C378.361 39.1779 378.036 39.2306 377.72 39.336L377.645 39.3612C376.883 39.6166 376.266 40.1538 375.909 40.8709C375.551 41.589 375.496 42.4023 375.752 43.1617L391.162 88.7183C391.692 90.2852 393.405 91.1305 394.978 90.6036L395.052 90.5784C396.626 90.0504 397.475 88.3449 396.945 86.7779L381.535 41.2213C381.279 40.4619 380.74 39.848 380.02 39.4918C379.598 39.2833 379.142 39.1779 378.685 39.1779Z" fill="#3D4451"/>
<path d="M365.124 52.4108C364.707 52.4108 364.319 52.1451 364.186 51.7281C364.02 51.2115 364.305 50.6595 364.824 50.4945L367.699 49.5782C368.218 49.4132 368.772 49.6973 368.938 50.2139C369.103 50.7305 368.818 51.2826 368.299 51.4475L365.424 52.3639C365.325 52.3959 365.224 52.4108 365.124 52.4108Z" fill="#3D4451"/>
<path d="M399.475 48.5598C400.02 48.3754 400.613 48.6663 400.798 49.2093L406.521 65.9862C406.706 66.5291 406.414 67.119 405.869 67.3034C405.324 67.4878 404.732 67.1969 404.547 66.654L398.823 49.8771C398.638 49.3341 398.93 48.7442 399.475 48.5598Z" fill="#3D4451"/>
<path d="M394.54 50.2303C395.085 50.0459 395.677 50.3368 395.862 50.8797L401.586 67.6566C401.771 68.1996 401.479 68.7895 400.934 68.9739C400.389 69.1583 399.796 68.8674 399.611 68.3244L393.888 51.5475C393.703 51.0046 393.995 50.4147 394.54 50.2303Z" fill="#3D4451"/>
<path d="M283.613 35.6235C283.576 35.6235 283.539 35.6223 283.503 35.62C282.552 35.5605 281.829 34.7438 281.89 33.7965L283.938 1.60917C283.998 0.661914 284.822 -0.0562617 285.769 0.00329992C286.72 0.0628616 287.442 0.879543 287.382 1.8268L285.333 34.0141C285.275 34.9247 284.516 35.6235 283.613 35.6235Z" fill="#3D4451"/>
<path d="M327.406 171.469C326.743 171.469 326.112 171.087 325.827 170.445L313.407 142.474C313.022 141.605 313.417 140.592 314.287 140.207C315.159 139.823 316.177 140.216 316.563 141.083L328.982 169.054C329.367 169.922 328.973 170.936 328.102 171.321C327.876 171.422 327.639 171.469 327.406 171.469Z" fill="#3D4451"/>
<path d="M259.441 42.3802C258.936 42.3802 258.436 42.1603 258.095 41.7387L239.695 18.945C239.098 18.205 239.216 17.1238 239.959 16.5293C240.702 15.9348 241.787 16.0516 242.384 16.7916L260.784 39.5854C261.381 40.3253 261.263 41.4066 260.521 42.001C260.202 42.2565 259.82 42.3802 259.441 42.3802Z" fill="#3D4451"/>
<path d="M358.913 138.137C358.646 138.137 358.374 138.075 358.12 137.945L334.635 125.827C333.789 125.391 333.459 124.354 333.897 123.511C334.335 122.668 335.376 122.339 336.222 122.776L359.707 134.893C360.554 135.33 360.884 136.366 360.446 137.209C360.139 137.799 359.537 138.137 358.913 138.137Z" fill="#3D4451"/>
<path d="M288.03 177C288.005 177 287.978 177 287.953 176.999C287.001 176.956 286.264 176.155 286.306 175.206L287.529 147.658C287.571 146.709 288.376 145.976 289.329 146.018C290.281 146.06 291.018 146.862 290.975 147.81L289.753 175.359C289.712 176.279 288.948 177 288.03 177Z" fill="#3D4451"/>
<path d="M250.892 168.297C250.574 168.297 250.253 168.21 249.964 168.027C249.161 167.516 248.927 166.453 249.44 165.654L263.512 143.734C264.025 142.934 265.092 142.701 265.895 143.212C266.698 143.722 266.932 144.785 266.419 145.585L252.347 167.505C252.018 168.018 251.461 168.297 250.892 168.297Z" fill="#3D4451"/>
<path d="M314.065 42.9531C313.651 42.9531 313.235 42.8053 312.904 42.5063C312.199 41.8684 312.148 40.7814 312.789 40.0792L330.154 21.0653C330.795 20.3632 331.886 20.3116 332.591 20.9508C333.296 21.5888 333.348 22.6758 332.706 23.3779L315.341 42.3918C315.001 42.7641 314.534 42.9531 314.065 42.9531Z" fill="#3D4451"/>
<path d="M208.264 102.629C207.744 102.629 207.272 102.276 207.146 101.75C206.769 100.186 207.214 98.6773 208.434 97.3899C209.269 96.509 210.179 96.0417 210.28 95.9913L210.349 95.9569L210.421 95.9318L230.546 89.0593C231.147 88.8542 231.801 89.1727 232.007 89.7717C232.213 90.3696 231.893 91.0214 231.291 91.2264L211.251 98.0702C210.885 98.2718 208.951 99.4287 209.382 101.216C209.53 101.831 209.149 102.449 208.532 102.597C208.443 102.619 208.353 102.629 208.264 102.629Z" fill="#3D4451"/>
<path d="M239.084 60.936C238.887 60.936 238.684 60.9016 238.487 60.8295L212.613 51.3225C211.719 50.9937 211.262 50.0064 211.592 49.1164C211.922 48.2264 212.913 47.7705 213.806 48.0993L239.681 57.6063C240.575 57.935 241.032 58.9223 240.702 59.8123C240.446 60.5065 239.786 60.936 239.084 60.936Z" fill="#3D4451"/>

<defs>
<clipPath id="clip0">
<rect width="574" height="177" />
</clipPath>
</defs>
</svg>
