<svg width="24" height="25" viewBox="0 0 24 25" fill="none" xmlns="http://www.w3.org/2000/svg">
<path fill-rule="evenodd" clip-rule="evenodd" d="M10.3353 2.91392C10.0717 2.89569 9.79953 2.95863 9.55447 3.1138C8.90099 3.52834 8.68232 4.43772 9.06563 5.14444L10.3072 7.43579L6.28528 14.8588H3.08572C2.32869 14.8588 1.71429 15.5232 1.71429 16.3419C1.71429 17.1606 2.32869 17.8251 3.08572 17.8251H13.654C13.7617 17.2593 13.6959 16.6456 13.3942 16.0783L13.3915 16.0754C13.1262 15.5756 12.758 15.1673 12.3295 14.8588H9.46474L14.7281 5.143C15.1108 4.43627 14.8914 3.5276 14.238 3.1138C13.5838 2.7 12.7442 2.93719 12.3616 3.64391L11.8969 4.50136L11.4322 3.64391C11.1926 3.20221 10.7746 2.94432 10.3353 2.91392ZM14.2701 8.88273L13.7036 9.90095C13.0782 11.0252 13.058 12.4167 13.6299 13.5654L17.9478 21.5344C18.2029 22.0061 18.6606 22.2673 19.1317 22.2673C19.3669 22.2673 19.6061 22.2025 19.8241 22.0645C20.4776 21.6507 20.6963 20.742 20.313 20.0353L19.1156 17.8251H20.9143C21.6713 17.8251 22.2857 17.1606 22.2857 16.3419C22.2857 15.5232 21.6713 14.8588 20.9143 14.8588H17.5085L14.2701 8.88273ZM4.88572 19.3111C4.50378 19.2993 4.13262 19.3634 3.77947 19.4835L3.47412 20.0455C3.0908 20.7514 3.31081 21.6609 3.96429 22.0747C4.18235 22.2133 4.42017 22.2789 4.65537 22.2789C5.12645 22.2789 5.58486 22.0154 5.84063 21.5445L6.57858 20.1831C6.17744 19.6766 5.59123 19.3334 4.88974 19.3111H4.88572Z" fill="white"/>
</svg>
