<svg width="28" height="29" viewBox="0 0 28 29" fill="none" xmlns="http://www.w3.org/2000/svg">
<path fill-rule="evenodd" clip-rule="evenodd" d="M9.14318 5.52256C8.32301 4.34136 6.70616 3.98149 5.44852 4.72936C5.105 4.93364 4.81043 5.20954 4.58525 5.53793L3.68381 6.85252L3.55671 7.05032C2.95329 8.05446 2.83169 9.27808 3.23461 10.3852C4.24352 13.1572 6.19619 15.8855 9.08071 18.5761C11.89 21.1964 14.5956 23.0644 17.2043 24.1752C18.4447 24.7033 19.8713 24.5678 20.9878 23.8157L21.321 23.5913C22.0889 23.8147 22.8254 24.5649 23.5017 25.9054C23.697 26.2926 24.172 26.4495 24.5627 26.2559C24.9533 26.0624 25.1117 25.5916 24.9163 25.2044C24.292 23.9668 23.5682 23.0675 22.7338 22.531C23.5379 21.616 23.6542 20.2461 22.9337 19.1954C22.7085 18.867 22.414 18.5911 22.0704 18.3869L21.8258 18.2414L21.616 18.1231C19.6403 17.0698 17.1877 17.417 15.588 19.0024L14.0033 20.5729L13.6672 20.3352C12.5252 19.5138 11.3574 18.5471 10.1647 17.4345L9.78298 17.0727C8.65628 15.9875 7.69571 14.903 6.90032 13.8196L6.88882 13.8058L8.61659 12.0931L8.7832 11.92C10.2934 10.2758 10.5484 7.83337 9.3845 5.91073L9.2377 5.66823L9.14318 5.52256ZM16.8525 19.974C17.9972 18.9612 19.683 18.7952 21.012 19.5856L21.2567 19.7311L21.3627 19.8021C21.4646 19.8787 21.5534 19.9713 21.6256 20.0766C21.9919 20.6109 21.8519 21.3383 21.3129 21.7014L20.0988 22.5192L19.941 22.6168C19.2978 22.9806 18.5157 23.0274 17.8287 22.7349L17.4235 22.5561C16.7463 22.2468 16.0587 21.8809 15.361 21.4584L15.3517 21.4537L16.7064 20.1109L16.8525 19.974ZM7.88143 6.47475C7.5461 5.92083 6.82118 5.74121 6.26228 6.07356C6.15219 6.13903 6.05386 6.22172 5.97098 6.31816L5.89339 6.41908L4.99195 7.73366C4.56477 8.35663 4.46456 9.14471 4.72244 9.85324C5.02811 10.6931 5.43302 11.534 5.9376 12.3758L5.99617 12.4733L7.49819 10.9846C8.59415 9.89838 8.84052 8.23728 8.12679 6.89099L8.02824 6.71725L7.88143 6.47475Z" fill="#002364"/>
</svg>
