<svg width="28" height="29" viewBox="0 0 28 29" fill="none" xmlns="http://www.w3.org/2000/svg">
<path fill-rule="evenodd" clip-rule="evenodd" d="M5.2 3.33887C3.43269 3.33887 2 4.77156 2 6.53887V17.7389C2 19.5062 3.43269 20.9389 5.2 20.9389H7.6C8.04183 20.9389 8.4 20.5807 8.4 20.1389C8.4 19.697 8.04183 19.3389 7.6 19.3389H5.2C4.31634 19.3389 3.6 18.6225 3.6 17.7389V6.53887C3.6 5.65521 4.31634 4.93887 5.2 4.93887H22.8C23.6837 4.93887 24.4 5.65521 24.4 6.53887V17.7389C24.4 18.6225 23.6837 19.3389 22.8 19.3389H13.7589C12.6348 19.3389 11.5932 19.9286 11.0149 20.8925L9.31401 23.7273C9.08669 24.1061 9.20954 24.5975 9.5884 24.8249C9.96727 25.0522 10.4587 24.9293 10.686 24.5505L12.3869 21.7157C12.676 21.2337 13.1968 20.9389 13.7589 20.9389H22.8C24.5673 20.9389 26 19.5062 26 17.7389V6.53887C26 4.77156 24.5673 3.33887 22.8 3.33887H5.2ZM11.2 12.5389C11.2 11.8762 10.6628 11.3389 10 11.3389C9.33731 11.3389 8.80005 11.8762 8.80005 12.5389C8.80005 13.2017 9.33731 13.7389 10 13.7389C10.6628 13.7389 11.2 13.2017 11.2 12.5389ZM15.2 12.5389C15.2 11.8762 14.6628 11.3389 14 11.3389C13.3373 11.3389 12.8 11.8762 12.8 12.5389C12.8 13.2017 13.3373 13.7389 14 13.7389C14.6628 13.7389 15.2 13.2017 15.2 12.5389ZM19.2 12.5389C19.2 11.8762 18.6628 11.3389 18 11.3389C17.3373 11.3389 16.8 11.8762 16.8 12.5389C16.8 13.2017 17.3373 13.7389 18 13.7389C18.6628 13.7389 19.2 13.2017 19.2 12.5389Z" fill="#005FC8"/>
</svg>
