<svg width="28" height="28" viewBox="0 0 28 28" fill="none" xmlns="http://www.w3.org/2000/svg">
<path fill-rule="evenodd" clip-rule="evenodd" d="M5.2 3H22.8C24.5673 3 26 4.47011 26 6.28359V17.7761C26 19.5896 24.5673 21.0597 22.8 21.0597H18.0148C17.7588 21.0597 17.5183 21.1854 17.3678 21.3978L15.294 24.3237C14.7742 25.0571 13.7736 25.2192 13.0589 24.6859C12.9236 24.5848 12.8045 24.4627 12.706 24.3237L10.6322 21.3978C10.4817 21.1854 10.2412 21.0597 9.98524 21.0597H5.2C3.43269 21.0597 2 19.5896 2 17.7761V6.28359C2 4.47011 3.43269 3 5.2 3ZM22.8 4.64179H5.2C4.31634 4.64179 3.6 5.37685 3.6 6.28359V17.7761C3.6 18.6829 4.31634 19.4179 5.2 19.4179H9.98524C10.7531 19.4179 11.4746 19.7949 11.9262 20.4321L14 23.3581L16.0738 20.4321C16.5254 19.7949 17.2469 19.4179 18.0148 19.4179H22.8C23.6837 19.4179 24.4 18.6829 24.4 17.7761V6.28359C24.4 5.37685 23.6837 4.64179 22.8 4.64179ZM18 9.56717C18.4418 9.56717 18.8 9.9347 18.8 10.3881C18.8 10.8066 18.4948 11.1519 18.1003 11.2026L18 11.209H10C9.55817 11.209 9.2 10.8414 9.2 10.3881C9.2 9.96958 9.50519 9.62423 9.89965 9.57357L10 9.56717H18ZM18.8 13.6717C18.8 13.2183 18.4418 12.8508 18 12.8508H10L9.89965 12.8572C9.50519 12.9078 9.2 13.2532 9.2 13.6717C9.2 14.125 9.55817 14.4926 10 14.4926H18L18.1003 14.4862C18.4948 14.4355 18.8 14.0902 18.8 13.6717Z" fill="#002364"/>
</svg>
