<svg width="32" height="32" viewBox="0 0 32 32" fill="none" xmlns="http://www.w3.org/2000/svg">
<path fill-rule="evenodd" clip-rule="evenodd" d="M5.94279 3.42856C3.923 3.42856 2.28564 5.06592 2.28564 7.0857V19.8857C2.28564 21.9055 3.923 23.5428 5.94279 23.5428H8.68564C9.19059 23.5428 9.59993 23.1335 9.59993 22.6286C9.59993 22.1236 9.19059 21.7143 8.68564 21.7143H5.94279C4.93289 21.7143 4.11422 20.8956 4.11422 19.8857V7.0857C4.11422 6.07581 4.9329 5.25713 5.94279 5.25713H26.0571C27.067 5.25713 27.8856 6.07581 27.8856 7.0857V19.8857C27.8856 20.8956 27.067 21.7143 26.0571 21.7143H15.7243C14.4397 21.7143 13.2493 22.3883 12.5884 23.4898L10.6445 26.7296C10.3847 27.1626 10.5251 27.7242 10.9581 27.984C11.3911 28.2438 11.9527 28.1034 12.2125 27.6704L14.1564 24.4306C14.4868 23.8798 15.082 23.5428 15.7243 23.5428H26.0571C28.0769 23.5428 29.7142 21.9055 29.7142 19.8857V7.0857C29.7142 5.06592 28.0769 3.42856 26.0571 3.42856H5.94279ZM12.8 13.9429C12.8 13.1855 12.186 12.5715 11.4286 12.5715C10.6711 12.5715 10.0571 13.1855 10.0571 13.9429C10.0571 14.7003 10.6711 15.3143 11.4286 15.3143C12.186 15.3143 12.8 14.7003 12.8 13.9429ZM17.3714 13.9429C17.3714 13.1855 16.7574 12.5715 16 12.5715C15.2426 12.5715 14.6286 13.1855 14.6286 13.9429C14.6286 14.7003 15.2426 15.3143 16 15.3143C16.7574 15.3143 17.3714 14.7003 17.3714 13.9429ZM21.9428 13.9429C21.9428 13.1855 21.3288 12.5715 20.5714 12.5715C19.814 12.5715 19.2 13.1855 19.2 13.9429C19.2 14.7003 19.814 15.3143 20.5714 15.3143C21.3288 15.3143 21.9428 14.7003 21.9428 13.9429Z" fill="#002364"/>
</svg>
