<svg width="32" height="32" viewBox="0 0 32 32" fill="none" xmlns="http://www.w3.org/2000/svg">
<path fill-rule="evenodd" clip-rule="evenodd" d="M5.94291 3.4288C3.92313 3.4288 2.28577 5.06616 2.28577 7.08595V19.8859C2.28577 21.9057 3.92313 23.5431 5.94291 23.5431H8.68577C9.19071 23.5431 9.60005 23.1337 9.60005 22.6288C9.60005 22.1239 9.19071 21.7145 8.68577 21.7145H5.94291C4.93302 21.7145 4.11434 20.8958 4.11434 19.8859V7.08595C4.11434 6.07605 4.93302 5.25737 5.94291 5.25737H26.0572C27.0671 5.25737 27.8858 6.07605 27.8858 7.08595V19.8859C27.8858 20.8958 27.0671 21.7145 26.0572 21.7145H15.7245C14.4398 21.7145 13.2494 22.3885 12.5885 23.4901L10.6446 26.7298C10.3848 27.1628 10.5252 27.7244 10.9582 27.9842C11.3912 28.244 11.9528 28.1036 12.2126 27.6706L14.1565 24.4309C14.4869 23.8801 15.0822 23.5431 15.7245 23.5431H26.0572C28.077 23.5431 29.7143 21.9057 29.7143 19.8859V7.08595C29.7143 5.06616 28.077 3.4288 26.0572 3.4288H5.94291ZM12.8001 13.9432C12.8001 13.1857 12.1861 12.5717 11.4287 12.5717C10.6713 12.5717 10.0573 13.1857 10.0573 13.9432C10.0573 14.7006 10.6713 15.3146 11.4287 15.3146C12.1861 15.3146 12.8001 14.7006 12.8001 13.9432ZM17.3715 13.9432C17.3715 13.1857 16.7575 12.5717 16.0001 12.5717C15.2427 12.5717 14.6287 13.1857 14.6287 13.9432C14.6287 14.7006 15.2427 15.3146 16.0001 15.3146C16.7575 15.3146 17.3715 14.7006 17.3715 13.9432ZM21.943 13.9432C21.943 13.1857 21.329 12.5717 20.5715 12.5717C19.8141 12.5717 19.2001 13.1857 19.2001 13.9432C19.2001 14.7006 19.8141 15.3146 20.5715 15.3146C21.329 15.3146 21.943 14.7006 21.943 13.9432Z" fill="white"/>
</svg>
