<svg width="24" height="24" viewBox="0 0 24 24" fill="none" xmlns="http://www.w3.org/2000/svg">
<path fill-rule="evenodd" clip-rule="evenodd" d="M12 18.8552C15.072 18.9092 17.7811 17.8048 20.0861 15.5733C21.0939 14.5978 21.8208 13.5104 22.2466 12.29C22.2757 12.2067 22.288 12.1211 22.2854 12.0373C22.2878 11.9609 22.2777 11.8828 22.2537 11.806C21.9948 10.9773 21.5577 10.2435 20.8611 9.35365C19.4748 7.58256 17.6656 6.35918 15.428 5.67326C14.265 5.31666 13.1218 5.13518 12 5.14307C10.8782 5.13518 9.73503 5.31666 8.572 5.67326C6.33441 6.35918 4.52525 7.58256 3.13895 9.35365C2.4423 10.2435 2.00523 10.9773 1.7463 11.806C1.72231 11.8828 1.71225 11.9609 1.71464 12.0373C1.71202 12.1211 1.72435 12.2067 1.75342 12.29C2.17917 13.5104 2.90611 14.5978 3.91392 15.5733C6.21889 17.8048 8.92802 18.9092 12 18.8552ZM12 6.465C10.9981 6.45708 9.96919 6.62007 8.91316 6.94386C6.90808 7.5585 5.31198 8.63781 4.08782 10.2018C3.54371 10.8968 3.19667 11.457 2.98633 12.0287C3.3476 12.9603 3.93424 13.8094 4.74447 14.5937C6.81863 16.6017 9.23069 17.5874 12 17.5333C14.7693 17.5874 17.1814 16.6017 19.2556 14.5937C20.0658 13.8094 20.6524 12.9603 21.0137 12.0287C20.8033 11.457 20.4563 10.8968 19.9122 10.2018C18.688 8.63781 17.0919 7.5585 15.0869 6.94386C14.0308 6.62007 13.002 6.45708 12 6.465ZM15.7029 12C15.7029 14.1813 14.045 15.9497 12 15.9497C9.95498 15.9497 8.29715 14.1813 8.29715 12C8.29715 9.8186 9.95498 8.05025 12 8.05025C14.045 8.05025 15.7029 9.8186 15.7029 12ZM9.53144 12C9.53144 13.4542 10.6367 14.6331 12 14.6331C13.3634 14.6331 14.4686 13.4542 14.4686 12C14.4686 10.5457 13.3634 9.36682 12 9.36682C10.6367 9.36682 9.53144 10.5457 9.53144 12Z" fill="#7F9398"/>
<path d="M7.10008 21.1115L17.4961 3.52624C17.6757 3.22243 17.5702 2.83337 17.2603 2.65726C16.9504 2.48114 16.5537 2.58467 16.374 2.88849L5.97799 20.4737C5.79838 20.7775 5.90396 21.1666 6.21382 21.3427C6.52368 21.5188 6.92047 21.4153 7.10008 21.1115Z" fill="#7F9398"/>
</svg>
