<svg width="176" height="100" viewBox="0 0 176 100" fill="none" xmlns="http://www.w3.org/2000/svg">
<path d="M56.7028 20.0001H0V76.7029H56.7028V20.0001Z" fill="#1D2362"/>
<path fill-rule="evenodd" clip-rule="evenodd" d="M18.4871 57.9533L15.9278 59.906C15.1207 58.8883 13.7702 58.1572 12.5298 58.1572C10.1803 58.1572 8.27706 60.1193 8.27706 62.5387C8.27706 64.9581 10.1778 66.9212 12.5273 66.9212C13.783 66.9212 15.1002 66.2139 15.9252 65.1723L18.4845 67.125C17.527 68.3693 16.204 69.2825 14.7011 69.7366C13.1982 70.1908 11.5908 70.163 10.1045 69.6573C8.61812 69.1516 7.3274 68.1932 6.41335 66.9167C5.49931 65.6402 5.00781 64.1096 5.00781 62.5396C5.00781 60.9696 5.49931 59.4389 6.41335 58.1624C7.3274 56.8859 8.61812 55.9276 10.1045 55.4219C11.5908 54.9161 13.1982 54.8884 14.7011 55.3425C16.204 55.7967 17.527 56.7099 18.4845 57.9541L18.4871 57.9533Z" fill="white"/>
<path fill-rule="evenodd" clip-rule="evenodd" d="M31.0671 64.117L24.3104 55.4366H21.4551V69.6494H24.6065V60.9613L31.3631 69.6494H34.2185V55.4366H31.0671V64.117Z" fill="white"/>
<path fill-rule="evenodd" clip-rule="evenodd" d="M48.3892 60.8419C48.3892 60.2416 48.1508 59.6659 47.7263 59.2415C47.3019 58.817 46.7262 58.5786 46.1259 58.5786H42.0924V63.1069H46.1259C46.4233 63.1068 46.7177 63.0481 46.9923 62.9342C47.267 62.8203 47.5165 62.6535 47.7267 62.4431C47.9368 62.2328 48.1035 61.9832 48.2172 61.7084C48.3309 61.4337 48.3894 61.1392 48.3892 60.8419ZM46.2923 55.4366C47.7256 55.4366 49.1003 56.006 50.1138 57.0195C51.1273 58.033 51.6967 59.4077 51.6967 60.841C51.6967 62.2744 51.1273 63.649 50.1138 64.6626C49.1003 65.6761 47.7256 66.2455 46.2923 66.2455H42.0924V69.6511H38.9419V55.4366H46.2923Z" fill="white"/>
<path d="M63.6086 48.3515H56.7026V76.7029H63.6086V48.3515Z" fill="#DD0069"/>
<path fill-rule="evenodd" clip-rule="evenodd" d="M28.2607 46.3143C35.6521 36.8192 47.1896 30.7118 60.1551 30.7118C73.1207 30.7118 84.6573 36.8192 92.0504 46.3143H82.6747C76.5105 40.716 68.4821 37.6144 60.1551 37.6144C51.8282 37.6144 43.7997 40.716 37.6356 46.3143H28.2607Z" fill="#00ACA9"/>
<path d="M80.9345 54.551C80.8208 54.4123 80.4633 54.2104 79.8622 53.9453C79.3235 53.6951 78.7387 53.5598 78.1448 53.5478C77.2735 53.5478 76.8379 53.8367 76.8379 54.4145C76.8335 54.5619 76.8727 54.7073 76.9505 54.8326C77.025 54.9463 77.1706 55.0547 77.3873 55.1576C77.5777 55.2492 77.7738 55.3287 77.9742 55.3956C78.1522 55.4525 78.4483 55.5392 78.8623 55.6558C78.9476 55.6797 79.0048 55.6968 79.0432 55.7062C79.4805 55.8262 79.8536 55.9453 80.1625 56.0636C80.4723 56.1832 80.7707 56.3305 81.0539 56.5038C81.3147 56.6578 81.5477 56.8545 81.7433 57.0856C81.926 57.3144 82.0653 57.5746 82.1545 57.8534C82.2607 58.1858 82.312 58.5334 82.3063 58.8823C82.3128 59.3071 82.2392 59.7293 82.0896 60.127C81.9619 60.4696 81.7627 60.781 81.5052 61.0406C81.2475 61.2898 80.9495 61.4937 80.624 61.6438C80.2846 61.8042 79.9254 61.9189 79.5559 61.985C79.165 62.0543 78.7687 62.0883 78.3718 62.0866C77.5711 62.0837 76.7749 61.967 76.007 61.7402C75.2591 61.531 74.5472 61.2097 73.8955 60.7873L74.9568 58.6716C75.0768 58.7835 75.2117 58.8783 75.3577 58.9531C75.5716 59.0782 75.8338 59.2141 76.1443 59.3609C76.4946 59.5223 76.8598 59.6494 77.2346 59.7405C77.6223 59.8425 78.0212 59.8958 78.4221 59.8992C79.2786 59.8992 79.7069 59.6393 79.7069 59.1194C79.7076 59.0373 79.6955 58.9556 79.6711 58.8772C79.6456 58.8005 79.6037 58.7303 79.5482 58.6716C79.4944 58.6117 79.4374 58.5548 79.3776 58.5009C79.2993 58.4384 79.2133 58.3863 79.1217 58.3457C79.0108 58.2928 78.9126 58.2484 78.8256 58.2126C78.7386 58.1768 78.6183 58.1341 78.4648 58.0863C78.3112 58.0386 78.1807 58.001 78.0749 57.9635C77.9691 57.9259 77.819 57.8867 77.627 57.8338C77.4351 57.7809 77.2781 57.7348 77.1578 57.6965C76.7259 57.5688 76.3049 57.407 75.8986 57.2127C75.581 57.0594 75.2877 56.8599 75.0284 56.6207C74.7943 56.4041 74.6137 56.136 74.5012 55.8375C74.3852 55.5066 74.3291 55.1576 74.3357 54.807C74.3286 54.3005 74.435 53.7988 74.6471 53.3388C74.8396 52.9194 75.1277 52.551 75.4883 52.263C75.857 51.9761 76.2738 51.7572 76.7193 51.6163C77.2025 51.4627 77.7069 51.3861 78.2139 51.3894C79.4367 51.3894 80.6976 51.7719 81.9966 52.5369L80.9345 54.551Z" fill="#1D2362"/>
<path d="M87.2439 62.1173C86.6451 62.124 86.0507 62.0148 85.4933 61.7956C84.9967 61.605 84.5463 61.311 84.1719 60.9332C83.8224 60.5711 83.5466 60.1446 83.3597 59.6774C83.1675 59.1999 83.0696 58.6897 83.0714 58.175C83.0682 57.634 83.1648 57.0969 83.3563 56.5908C83.5379 56.1062 83.8113 55.6613 84.1616 55.2804C84.5308 54.89 84.9814 54.5856 85.4814 54.3889C86.6162 53.951 87.8734 53.951 89.0082 54.3889C89.5031 54.5846 89.949 54.8866 90.3143 55.2736C90.6564 55.6441 90.9248 56.0764 91.1051 56.5473C91.2914 57.0321 91.3857 57.5474 91.3832 58.0667C91.3824 58.3206 91.3631 58.5741 91.3252 58.8251H85.5838C85.6173 59.3211 85.8013 59.7109 86.1357 59.9947C86.4637 60.2768 86.8839 60.4286 87.3164 60.4213C87.6673 60.4236 88.0128 60.3355 88.3197 60.1654C88.6035 60.0227 88.8284 59.7852 88.9553 59.494L90.9695 60.057C90.6489 60.6906 90.1458 61.2135 89.5251 61.5585C88.8768 61.931 88.1164 62.1173 87.2439 62.1173ZM85.5258 57.374H88.8938C88.8449 56.8877 88.6655 56.4978 88.3555 56.2044C88.0404 55.9209 87.6315 55.7641 87.2077 55.7641C86.7838 55.7641 86.3749 55.9209 86.0598 56.2044C85.7432 56.5147 85.5529 56.9315 85.5258 57.374Z" fill="#1D2362"/>
<path d="M92.0234 58.0812C92.0137 57.3743 92.1694 56.6749 92.4781 56.0389C92.7626 55.4466 93.2055 54.9447 93.7577 54.5886C94.3179 54.2317 94.9705 54.0472 95.6346 54.058C96.1661 54.0476 96.6912 54.1758 97.1582 54.4299C97.6027 54.6793 97.9735 55.0415 98.2332 55.4801V54.2098H100.291V61.4356C100.291 62.605 99.876 63.5363 99.0462 64.2296C98.2164 64.9229 97.1321 65.2695 95.7933 65.2695C94.2577 65.2695 93.0258 64.752 92.0976 63.7169L93.3773 62.4253C93.6724 62.7601 94.0372 63.0263 94.4462 63.205C94.8704 63.3962 95.3305 63.4945 95.7958 63.4933C96.0725 63.4961 96.348 63.4558 96.6123 63.3739C96.8572 63.2975 97.0859 63.1766 97.2871 63.0173C97.4953 62.846 97.6568 62.6247 97.7563 62.3741C97.8749 62.0757 97.9329 61.7567 97.9269 61.4356V60.6849C97.6957 61.1047 97.3422 61.4442 96.9134 61.6583C96.465 61.8885 95.9671 62.0056 95.4631 61.9996C94.824 62.0087 94.1972 61.8237 93.6656 61.4689C93.1364 61.1155 92.7145 60.6236 92.4457 60.0468C92.1585 59.4318 92.0141 58.7599 92.0234 58.0812ZM97.9218 59.0418V57.4209C97.7802 57.0341 97.531 56.6957 97.2035 56.4458C96.9085 56.2114 96.5437 56.082 96.1669 56.0781C95.6716 56.0781 95.2589 56.2837 94.9291 56.6949C94.5992 57.1074 94.4241 57.6223 94.4343 58.1503C94.4343 58.7191 94.6111 59.1905 94.9649 59.5648C95.132 59.7469 95.3359 59.8913 95.5632 59.9884C95.7905 60.0855 96.0359 60.133 96.283 60.1278C96.6268 60.1303 96.963 60.027 97.2461 59.8318C97.5381 59.6338 97.7714 59.3609 97.9218 59.0418Z" fill="#1D2362"/>
<path d="M101.834 59.1792V54.2098H104.202V58.6562C104.202 59.1283 104.296 59.4906 104.484 59.7431C104.576 59.8673 104.697 59.9669 104.837 60.033C104.977 60.0991 105.13 60.1296 105.285 60.1219C105.997 60.1219 106.562 59.7465 106.982 58.9958V54.2098H109.349V59.3353C109.349 59.5707 109.387 59.738 109.462 59.8369C109.537 59.9359 109.665 59.9928 109.847 60.0075V61.9697C109.517 62.0399 109.181 62.0784 108.844 62.0849C108.431 62.0849 108.1 61.9996 107.851 61.8289C107.729 61.7445 107.625 61.6359 107.546 61.5099C107.467 61.3838 107.415 61.243 107.393 61.0961L107.349 60.6269C106.662 61.6182 105.632 62.1139 104.259 62.1139C103.471 62.1139 102.869 61.8636 102.455 61.3631C102.041 60.8626 101.834 60.1347 101.834 59.1792Z" fill="#1D2362"/>
<path d="M116.108 56.2334C115.57 56.2328 115.036 56.332 114.534 56.526C114.079 56.7108 113.75 56.9742 113.546 57.316V61.9731H111.185V54.2098H113.358V55.7761C113.601 55.2919 113.955 54.8714 114.39 54.5485C114.773 54.2578 115.238 54.0962 115.718 54.087C115.849 54.0834 115.979 54.0882 116.108 54.1015V56.2334Z" fill="#1D2362"/>
<path d="M116.576 58.0957C116.573 57.5708 116.668 57.0499 116.857 56.5601C117.04 56.0853 117.31 55.6493 117.655 55.2753C118.022 54.8865 118.471 54.5833 118.969 54.3872C119.53 54.1626 120.13 54.051 120.734 54.0588C121.335 54.0512 121.931 54.1628 122.489 54.3872C122.986 54.5846 123.434 54.8877 123.802 55.2753C124.149 55.6485 124.421 56.0846 124.604 56.5601C124.979 57.5459 124.979 58.6353 124.604 59.6211C124.422 60.0945 124.151 60.5289 123.806 60.9007C123.439 61.2875 122.991 61.5894 122.495 61.7854C121.361 62.2234 120.104 62.2234 118.969 61.7854C118.472 61.5899 118.023 61.2879 117.655 60.9007C117.31 60.5289 117.039 60.0945 116.857 59.6211C116.669 59.1346 116.574 58.6173 116.576 58.0957ZM120.734 60.1244C120.968 60.1283 121.199 60.0791 121.412 59.9804C121.624 59.8817 121.81 59.736 121.958 59.5545C122.282 59.174 122.445 58.6878 122.445 58.0957C122.445 57.4945 122.284 57.0074 121.961 56.6343C121.812 56.4548 121.624 56.3112 121.412 56.2143C121.199 56.1174 120.967 56.0697 120.734 56.0747C120.498 56.0704 120.265 56.119 120.05 56.2171C119.836 56.3151 119.647 56.4601 119.496 56.6412C119.167 57.0188 119.002 57.5036 119.001 58.0957C119.001 58.698 119.165 59.1866 119.493 59.5614C119.644 59.7422 119.834 59.8867 120.049 59.9842C120.264 60.0817 120.498 60.1296 120.734 60.1244Z" fill="#1D2362"/>
<path d="M129.022 62.1173C128.357 62.1194 127.696 62.0072 127.069 61.7854C126.481 61.585 125.943 61.26 125.493 60.8325L126.301 59.3379C127.259 60.0408 128.14 60.392 128.946 60.3915C129.586 60.3915 129.907 60.1893 129.907 59.7849C129.907 59.5836 129.781 59.424 129.531 59.3089C129.406 59.252 129.084 59.1436 128.564 58.9838C128.28 58.8874 128.043 58.8064 127.852 58.7381C127.662 58.6699 127.465 58.5914 127.26 58.5001C127.089 58.4277 126.924 58.3421 126.766 58.2442C126.635 58.1576 126.511 58.0609 126.394 57.955C126.281 57.8559 126.185 57.7375 126.113 57.6052C126.044 57.4724 125.992 57.3317 125.958 57.1863C125.918 57.0172 125.898 56.8439 125.9 56.6702C125.9 55.8904 126.193 55.2611 126.781 54.7823C127.368 54.3034 128.155 54.0639 129.141 54.0639C130.32 54.0639 131.316 54.4296 132.127 55.161L131.209 56.6378C130.371 56.0554 129.642 55.7642 129.021 55.7642C128.789 55.7529 128.558 55.8054 128.353 55.916C128.273 55.964 128.207 56.0331 128.163 56.1158C128.119 56.1985 128.099 56.2917 128.104 56.3852C128.102 56.4776 128.125 56.5689 128.17 56.649C128.216 56.7292 128.283 56.7953 128.364 56.84C128.535 56.9457 128.853 57.0638 129.317 57.194C129.673 57.304 129.967 57.3996 130.198 57.4789C130.428 57.5583 130.665 57.6496 130.906 57.757C131.108 57.8412 131.3 57.9501 131.476 58.0812C131.618 58.1951 131.748 58.3248 131.862 58.4677C131.981 58.6142 132.068 58.7838 132.118 58.9659C132.171 59.1698 132.196 59.3798 132.194 59.5904C132.194 60.3752 131.91 60.9926 131.341 61.4425C130.772 61.8924 129.999 62.1173 129.022 62.1173Z" fill="#1D2362"/>
<path d="M81.541 76.7029H79.909V72.3717C79.909 71.6789 79.7839 71.158 79.5336 70.8088C79.2834 70.4596 78.9225 70.285 78.451 70.285C77.9961 70.285 77.5521 70.4584 77.1193 70.8054C76.6947 71.1356 76.3832 71.5896 76.2278 72.1046V76.7029H74.6069V65.9102H76.2278V70.5238C76.5146 70.0105 76.9331 69.5829 77.4401 69.2851C77.9426 68.9869 78.5168 68.8312 79.1011 68.8347C80.7271 68.8347 81.5404 69.8868 81.541 71.9912V76.7029Z" fill="#1D2362"/>
<path d="M82.8367 74.3714C82.6487 73.8831 82.5532 73.3641 82.5552 72.8409C82.554 71.8025 82.9404 70.801 83.6387 70.0324C83.9918 69.6554 84.421 69.3576 84.8978 69.1588C85.4127 68.9401 85.9671 68.8297 86.5264 68.8347C87.2609 68.8227 87.9842 69.0149 88.6157 69.39C89.2097 69.7401 89.6956 70.2472 90.0199 70.8557C90.3377 71.4692 90.5036 72.15 90.5036 72.8409C90.5036 73.5318 90.3377 74.2126 90.0199 74.8261C89.6959 75.4347 89.2099 75.9419 88.6157 76.2917C87.9842 76.6671 87.2609 76.8596 86.5264 76.8479C85.9625 76.8534 85.4035 76.7427 84.8842 76.5229C84.4073 76.3242 83.9781 76.0264 83.625 75.6493C83.2836 75.2771 83.0161 74.8435 82.8367 74.3714ZM84.891 74.7177C85.0923 74.9541 85.3432 75.1433 85.6258 75.2719C85.9085 75.4005 86.2159 75.4652 86.5264 75.4616C87.1708 75.4616 87.7171 75.2088 88.1653 74.7032C88.6134 74.1976 88.8372 73.5768 88.8366 72.8409C88.8366 72.1044 88.6128 71.4847 88.1653 70.9819C87.9646 70.7432 87.7136 70.5517 87.4303 70.4214C87.147 70.291 86.8383 70.2249 86.5264 70.2278C85.886 70.2278 85.342 70.4837 84.8944 70.9956C84.4468 71.5075 84.223 72.1305 84.223 72.8648C84.2242 73.6047 84.4474 74.2223 84.8927 74.7177H84.891Z" fill="#1D2362"/>
<path d="M91.5942 65.9102H93.2151V74.472C93.2151 74.838 93.268 75.0829 93.3747 75.2048C93.4342 75.2686 93.5072 75.3182 93.5884 75.3501C93.6696 75.382 93.7569 75.3953 93.8439 75.3891C94.1896 75.3935 94.532 75.3222 94.8471 75.1801L95.0852 76.4649C94.8162 76.5809 94.5353 76.6668 94.2474 76.7208C93.9579 76.7828 93.663 76.8156 93.367 76.8189C92.8091 76.8189 92.3734 76.6648 92.06 76.3565C91.7467 76.0483 91.5903 75.6175 91.5908 75.0641L91.5942 65.9102Z" fill="#1D2362"/>
<path d="M95.1736 72.8409C95.1656 72.1459 95.3162 71.4582 95.6139 70.8301C95.8901 70.2417 96.3205 69.7391 96.8594 69.3756C97.3908 69.0165 98.019 68.8278 98.6603 68.8347C99.2185 68.8305 99.7666 68.9843 100.241 69.2783C100.712 69.5636 101.104 69.9618 101.382 70.4368V65.9102H103.003V74.8679C103.003 75.0556 103.037 75.1904 103.104 75.2723C103.148 75.3174 103.202 75.3524 103.26 75.3748C103.319 75.3972 103.383 75.4064 103.445 75.4019V76.7012C103.212 76.7447 102.975 76.769 102.737 76.7737C102.459 76.7827 102.187 76.6919 101.97 76.5178C101.871 76.4411 101.79 76.344 101.732 76.2331C101.674 76.1223 101.641 76.0003 101.634 75.8754L101.62 75.2978C101.334 75.7768 100.925 76.1707 100.436 76.4385C99.953 76.7097 99.4085 76.8517 98.8548 76.8505C98.1832 76.8581 97.5241 76.6686 96.9592 76.3054C96.3974 75.9459 95.9425 75.442 95.642 74.8465C95.3262 74.2256 95.1655 73.5375 95.1736 72.8409ZM101.382 73.9235V71.8948C101.205 71.4175 100.888 71.0049 100.472 70.7115C100.034 70.389 99.5916 70.2278 99.144 70.2278C98.7157 70.2232 98.2971 70.356 97.9497 70.6066C97.5976 70.8571 97.3175 71.1957 97.1375 71.5885C96.9495 71.9918 96.8533 72.4318 96.856 72.8767C96.8408 73.5543 97.0906 74.2112 97.5521 74.7075C97.7668 74.9492 98.0311 75.1418 98.3271 75.2719C98.623 75.4021 98.9436 75.4668 99.2669 75.4616C99.7048 75.4616 100.139 75.3112 100.57 75.0103C101 74.7095 101.271 74.3472 101.382 73.9235Z" fill="#1D2362"/>
<path d="M104.701 67.7009V65.9094H106.322V67.7009H104.701ZM104.701 76.7029V68.9686H106.322V76.7004L104.701 76.7029Z" fill="#1D2362"/>
<path d="M114.843 76.7029H113.212V72.3717C113.212 71.6545 113.098 71.1276 112.871 70.7909C112.643 70.4542 112.301 70.2855 111.843 70.285C111.371 70.285 110.91 70.4596 110.46 70.8088C110.026 71.1358 109.702 71.5881 109.533 72.1047V76.7029H107.912V68.9686H109.392V70.5213C109.696 69.9951 110.144 69.5668 110.683 69.2868C111.254 68.9816 111.892 68.8252 112.539 68.8321C112.863 68.8253 113.186 68.8815 113.488 68.9976C113.741 69.0952 113.968 69.2483 114.153 69.4455C114.333 69.6496 114.474 69.8857 114.568 70.1417C114.673 70.4187 114.747 70.7069 114.788 71.0007C114.831 71.3277 114.851 71.6572 114.849 71.9869L114.843 76.7029Z" fill="#1D2362"/>
<path d="M115.889 72.8409C115.881 72.1447 116.035 71.4563 116.339 70.8301C116.626 70.2381 117.068 69.7353 117.619 69.3755C118.171 69.0145 118.818 68.8261 119.478 68.8347C120.043 68.825 120.599 68.9727 121.084 69.2612C121.566 69.5548 121.972 69.9564 122.272 70.4343V68.9686H123.709V76.476C123.709 77.2028 123.528 77.8358 123.167 78.375C122.806 78.9134 122.298 79.3357 121.702 79.5907C121.038 79.8725 120.322 80.0117 119.601 79.9993C118.041 79.9993 116.853 79.4457 116.035 78.3383L116.951 77.4852C117.241 77.8928 117.633 78.2165 118.088 78.4236C118.562 78.6437 119.079 78.7559 119.601 78.7521C120.024 78.7585 120.444 78.6787 120.835 78.5175C121.205 78.3575 121.519 78.09 121.734 77.7497C121.975 77.3673 122.097 76.9218 122.084 76.47V75.2953C121.814 75.7531 121.423 76.1279 120.955 76.3787C120.485 76.6395 119.956 76.776 119.419 76.7754C118.767 76.7822 118.129 76.5909 117.588 76.2269C117.047 75.8665 116.612 75.3678 116.329 74.7826C116.034 74.1782 115.883 73.5135 115.889 72.8409ZM122.083 73.9235V71.8948C121.894 71.4171 121.574 71.0028 121.159 70.7004C120.779 70.403 120.312 70.2381 119.83 70.2312C119.394 70.2259 118.968 70.3641 118.617 70.6245C118.266 70.8803 117.989 71.2239 117.813 71.6209C117.633 72.0207 117.54 72.4544 117.541 72.8929C117.528 73.5666 117.78 74.2187 118.242 74.7092C118.456 74.9504 118.72 75.1426 119.015 75.2728C119.311 75.4029 119.63 75.4679 119.953 75.4633C120.435 75.4615 120.903 75.3017 121.285 75.0086C121.696 74.7038 121.961 74.3421 122.08 73.9235H122.083Z" fill="#1D2362"/>
<path d="M136.086 76.6176H132.695V69.5146H136.354C136.662 69.5114 136.964 69.6064 137.214 69.7859C137.462 69.959 137.659 70.1945 137.786 70.4684C137.912 70.738 137.977 71.0323 137.976 71.33C137.978 71.6779 137.884 72.0196 137.703 72.3171C137.53 72.612 137.268 72.8446 136.955 72.9816C137.343 73.0864 137.685 73.3187 137.925 73.6411C138.166 73.9747 138.29 74.3782 138.279 74.7894C138.287 75.0455 138.234 75.2998 138.124 75.5312C138.014 75.7627 137.85 75.9646 137.647 76.1202C137.222 76.4524 136.702 76.6182 136.086 76.6176ZM133.814 70.4871V72.5773H135.876C136.006 72.5799 136.136 72.5549 136.256 72.5041C136.377 72.4532 136.485 72.3776 136.574 72.2821C136.668 72.1828 136.742 72.0659 136.791 71.9381C136.839 71.8102 136.862 71.674 136.858 71.5373C136.868 71.2618 136.775 70.9923 136.597 70.7823C136.515 70.6872 136.413 70.6113 136.299 70.5603C136.184 70.5092 136.06 70.4843 135.935 70.4871H133.814ZM136.154 73.473H133.814V75.6425H136.086C136.224 75.6452 136.362 75.6185 136.49 75.5641C136.617 75.5097 136.732 75.4288 136.826 75.3268C136.923 75.2271 137 75.1092 137.051 74.9797C137.103 74.8503 137.128 74.712 137.126 74.5727C137.131 74.2898 137.032 74.015 136.847 73.8006C136.764 73.6978 136.659 73.6152 136.539 73.559C136.419 73.5028 136.289 73.4746 136.156 73.4765L136.154 73.473Z" fill="#1D2362"/>
<path d="M141.996 72.3333C141.597 72.3352 141.204 72.4385 140.855 72.6336C140.54 72.808 140.292 73.0844 140.154 73.4176V76.6176H139.057V71.3855H140.081V72.5585C140.247 72.2188 140.491 71.9227 140.791 71.6934C141.059 71.4841 141.383 71.3599 141.722 71.3368C141.815 71.3351 141.908 71.3382 142 71.3462L141.996 72.3333Z" fill="#1D2362"/>
<path d="M142.151 75.0888C142.147 74.8524 142.201 74.6185 142.309 74.4083C142.418 74.198 142.576 74.018 142.771 73.8842C143.186 73.5794 143.723 73.4272 144.384 73.4278C144.848 73.4168 145.31 73.4878 145.749 73.6377V73.3058C145.749 72.9373 145.635 72.6498 145.408 72.4433C145.18 72.2369 144.864 72.1334 144.46 72.1328C144.183 72.1325 143.908 72.1822 143.648 72.2795C143.349 72.3968 143.063 72.5459 142.795 72.724L142.429 71.9869C143.122 71.524 143.839 71.2925 144.578 71.2925C145.285 71.2925 145.838 71.479 146.239 71.8521C146.64 72.2252 146.839 72.7504 146.837 73.4278V75.3772C146.829 75.4724 146.852 75.5676 146.903 75.6485C146.931 75.6792 146.965 75.7032 147.004 75.7188C147.042 75.7343 147.084 75.7409 147.125 75.738V76.6176C146.97 76.6481 146.813 76.6647 146.656 76.6671C146.469 76.6785 146.284 76.6212 146.136 76.5058C146.013 76.4035 145.934 76.2584 145.913 76.0998L145.884 75.7969C145.658 76.0892 145.365 76.3223 145.029 76.476C144.692 76.6344 144.324 76.7171 143.951 76.7183C143.43 76.7183 142.999 76.5627 142.66 76.2516C142.496 76.1064 142.365 75.9271 142.277 75.7263C142.189 75.5255 142.146 75.3079 142.151 75.0888ZM145.483 75.4062C145.659 75.2304 145.747 75.0675 145.747 74.9173V74.3202C145.363 74.1736 144.956 74.0989 144.545 74.1001C144.141 74.1001 143.815 74.1817 143.566 74.3449C143.451 74.4112 143.356 74.5067 143.29 74.6216C143.225 74.7366 143.191 74.8669 143.192 74.9992C143.192 75.1204 143.217 75.2404 143.266 75.3511C143.315 75.4618 143.387 75.5608 143.478 75.6416C143.668 75.8225 143.93 75.9129 144.262 75.9129C144.494 75.9123 144.723 75.8641 144.936 75.7713C145.141 75.6871 145.327 75.563 145.483 75.4062Z" fill="#1D2362"/>
<path d="M149.786 76.7157C149.357 76.7188 148.931 76.6442 148.528 76.4956C148.151 76.3583 147.808 76.1399 147.524 75.8558L147.934 75.1178C148.514 75.6229 149.119 75.8754 149.747 75.8754C150.011 75.8881 150.273 75.8263 150.504 75.6971C150.593 75.6454 150.666 75.5705 150.716 75.4803C150.766 75.3902 150.791 75.2882 150.787 75.1852C150.788 75.1362 150.783 75.0873 150.773 75.0393C150.764 74.994 150.744 74.9514 150.716 74.9148C150.691 74.8806 150.665 74.8479 150.636 74.8167C150.601 74.7819 150.561 74.7531 150.517 74.7314C150.463 74.7032 150.415 74.681 150.375 74.6623C150.335 74.6435 150.274 74.623 150.196 74.5966C150.117 74.5701 150.053 74.5505 150.001 74.536C149.948 74.5215 149.872 74.5002 149.768 74.472C149.665 74.4439 149.582 74.4208 149.518 74.4012C149.212 74.3068 148.963 74.2189 148.772 74.1376C148.589 74.0602 148.415 73.9617 148.254 73.8441C148.11 73.7424 147.994 73.6044 147.92 73.444C147.848 73.2723 147.813 73.0875 147.817 72.9014C147.809 72.6736 147.856 72.4471 147.955 72.2415C148.053 72.0359 148.201 71.8575 148.384 71.7216C148.762 71.4332 149.26 71.2891 149.879 71.2891C150.67 71.2891 151.307 71.5302 151.789 72.0125L151.315 72.7402C150.86 72.3262 150.36 72.1194 149.815 72.12C149.575 72.1112 149.337 72.165 149.124 72.2761C149.034 72.3261 148.96 72.4008 148.911 72.4916C148.862 72.5823 148.84 72.6852 148.848 72.788C148.846 72.8655 148.863 72.9424 148.897 73.0123C148.926 73.0734 148.966 73.1288 149.014 73.1761C149.082 73.2337 149.159 73.2799 149.241 73.3126C149.335 73.3557 149.431 73.3933 149.53 73.4252C149.615 73.4525 149.745 73.4926 149.918 73.5447L150.303 73.6599C150.405 73.6906 150.519 73.7281 150.645 73.7725C150.77 73.8168 150.878 73.8578 150.958 73.8919C151.038 73.926 151.128 73.9712 151.219 74.0233C151.3 74.0665 151.376 74.1182 151.446 74.1777C151.506 74.2327 151.563 74.2914 151.616 74.3534C151.672 74.4154 151.716 74.4864 151.748 74.5633C151.779 74.6432 151.804 74.7257 151.821 74.8098C151.842 74.908 151.852 75.0081 151.851 75.1084C151.851 75.6101 151.664 76.0033 151.289 76.2883C150.914 76.5732 150.413 76.7157 149.786 76.7157Z" fill="#1D2362"/>
<path d="M152.585 70.5255V69.3141H153.684V70.5255H152.585ZM152.585 76.6176V71.3855H153.684V76.6176H152.585Z" fill="#1D2362"/>
<path d="M154.763 69.3141H155.863V75.111C155.863 75.3584 155.899 75.5236 155.971 75.6067C156.011 75.6497 156.06 75.6831 156.115 75.7047C156.17 75.7262 156.229 75.7353 156.288 75.7312C156.523 75.7348 156.756 75.6864 156.971 75.5896L157.132 76.4589C156.95 76.5364 156.76 76.5936 156.565 76.6295C156.369 76.6709 156.169 76.6929 155.968 76.6952C155.59 76.6952 155.295 76.5909 155.084 76.3821C154.872 76.174 154.767 75.8822 154.767 75.5077L154.763 69.3141Z" fill="#1D2362"/>
<path d="M128.995 68.7895H127.939V76.7029H128.995V68.7895Z" fill="#00ACA9"/>
</svg>
