<svg width="696" height="215" viewBox="0 0 696 215" fill="none" xmlns="http://www.w3.org/2000/svg">
<g clip-path="url(#clip0_1572_23317)">
<path d="M172.673 165.384C165.417 165.384 158.613 164.412 152.375 162.478C148.237 161.195 144.438 159.093 141.39 156.4C137.998 153.404 135.654 149.747 134.613 145.825C133.053 139.942 134.196 133.129 138.111 124.995C138.767 123.632 139.449 122.246 140.109 120.905C144.494 111.992 149.027 102.777 149.626 92.8364C149.927 87.8318 148.991 83.2738 146.845 79.2891C144.508 74.9509 140.799 71.2569 135.506 67.9957C127.452 63.0328 119.169 60.1083 110.186 59.0536C102.231 58.1201 93.9395 58.6863 84.8381 60.7872C67.8638 64.7038 51.4055 73.202 35.4881 81.4192C31.5461 83.4547 27.9206 85.5292 24.4137 87.5354C17.1808 91.6732 10.3495 95.5815 2.70671 97.9273C1.60233 98.2653 0.432408 97.6476 0.0921698 96.5457C-0.248069 95.4437 0.372448 94.2764 1.47683 93.9369C8.67344 91.7289 15.0027 88.1073 22.3318 83.9138C25.8764 81.8853 29.5423 79.7885 33.5638 77.7113C49.7098 69.3745 66.4066 60.7552 83.8927 56.7204C104.096 52.0581 121.697 54.5847 137.701 64.445C143.638 68.1028 147.834 72.313 150.528 77.3148C153.048 81.9924 154.148 87.2989 153.799 93.0882C153.151 103.865 148.428 113.464 143.861 122.746C143.206 124.079 142.528 125.456 141.88 126.803C138.415 134.004 137.36 139.877 138.654 144.758C140.594 152.065 147.654 156.645 153.614 158.493C161.015 160.789 169.311 161.636 178.273 161.014C186.391 160.451 194.797 158.656 202.583 155.824C203.669 155.429 204.868 155.987 205.264 157.071C205.66 158.154 205.101 159.351 204.015 159.747C195.866 162.71 187.064 164.588 178.563 165.178C176.571 165.315 174.605 165.384 172.673 165.384Z" fill="#3D4451"/>
<path d="M170.549 175.495C164.958 175.495 159.364 174.981 153.866 173.942C145.959 172.448 138.65 168.74 133.286 163.5C127.276 157.63 124.085 150.288 124.06 142.268C124.034 133.612 127.182 125.333 130.265 118.377C131.064 116.575 131.95 114.762 132.888 112.843C136.825 104.793 140.895 96.4674 138.795 88.5229C137.412 83.2915 133.113 78.5304 126.998 75.4583C114.225 69.0415 99.8822 68.0732 83.1506 72.499C68.3391 76.417 53.5694 84.0456 40.5399 90.7755L39.3714 91.3793C27.0558 97.7377 15.4236 103.743 3.96701 107.492C2.8696 107.851 1.68713 107.254 1.32737 106.159C0.96761 105.064 1.56582 103.885 2.66323 103.526C13.8005 99.8817 25.2877 93.9505 37.4484 87.6728L38.6156 87.0704C51.8361 80.2417 66.8219 72.5018 82.0769 68.4669C99.8418 63.7684 115.151 64.837 128.878 71.7338C136.062 75.3429 141.15 81.0765 142.839 87.4627C145.336 96.9084 140.719 106.349 136.646 114.678C135.726 116.562 134.856 118.34 134.089 120.07C131.183 126.624 128.215 134.387 128.241 142.26C128.262 149.137 131.017 155.453 136.208 160.523C140.99 165.193 147.535 168.503 154.641 169.846C171.791 173.086 189.92 170.969 205.687 163.883C206.74 163.41 207.978 163.877 208.453 164.929C208.927 165.979 208.459 167.215 207.405 167.689C195.923 172.844 183.245 175.495 170.549 175.495Z" fill="#3D4451"/>
<path d="M695.345 140.182C687.278 138.89 679.8 136.489 671.097 132.392C667.684 130.785 664.69 128.606 662.44 126.09C659.783 123.118 658.222 119.8 657.803 116.227C656.845 108.089 661.301 101.725 666.02 94.9872C671.33 87.4031 674.717 80.164 676.085 73.4731C676.873 69.622 677.015 65.8501 676.507 62.2618C675.957 58.3689 674.624 54.5609 672.543 50.942C666.858 41.0553 655.68 33.5338 641.877 30.3045C628.845 27.2561 614.036 27.1782 600.177 30.0833C587.324 32.7783 574.815 37.4893 562.716 42.0459C561.543 42.487 560.372 42.928 559.2 43.3677C555.085 44.9106 550.912 46.6595 546.876 48.3514C538.845 51.7184 530.538 55.1995 521.985 57.3783L520.963 53.381C529.219 51.2787 537.382 47.8575 545.276 44.5489C549.347 42.8417 553.557 41.0775 557.746 39.5067C558.916 39.0685 560.086 38.6274 561.256 38.1864C573.502 33.5755 586.163 28.8061 599.326 26.0471C613.764 23.0195 629.21 23.1058 642.82 26.2892C657.734 29.7772 669.876 38.0152 676.128 48.8898C680.632 56.723 681.98 65.2713 680.136 74.2982C678.634 81.6472 675.124 89.1868 669.41 97.3497C664.787 103.951 661.135 109.166 661.911 115.746C662.23 118.46 663.447 121.017 665.528 123.344C667.41 125.449 669.947 127.288 672.862 128.66C681.198 132.584 688.333 134.881 696 136.106L695.345 140.182Z" fill="#3D4451"/>
<path d="M694.152 150.518C685.126 148.85 673.891 146.775 664.652 141.997C659.585 139.378 655.69 136.265 652.744 132.485C649.391 128.183 647.37 123.024 646.732 117.15C646.131 111.603 647.01 106.221 649.419 100.699C651.483 95.9682 654.296 91.9 657.016 87.9681C659.664 84.1392 662.164 80.5231 663.695 76.7485C666.935 68.7637 667.08 60.8289 664.096 54.9826C661.226 49.3603 655.657 45.7748 651.491 43.7574C639.971 38.1782 627.152 36.3416 612.305 38.142C600.892 39.5264 588.744 42.9142 572.916 49.1279C562.165 53.3478 551.286 57.7959 540.765 62.0978C535.775 64.1375 530.616 66.2468 525.536 68.3059L523.962 64.4394C529.036 62.3831 534.193 60.2752 539.178 58.2369C549.713 53.9294 560.606 49.4757 571.385 45.2447C587.556 38.8961 600.022 35.4289 611.801 34C619.159 33.1082 626.202 33.0831 632.735 33.9263C640 34.864 646.925 36.9093 653.318 40.005C658.061 42.3021 664.427 46.4357 667.824 53.0904C671.359 60.0164 671.269 69.2103 667.575 78.3165C665.871 82.5169 663.244 86.3166 660.462 90.3403C657.854 94.1094 655.16 98.0079 653.257 102.368C651.146 107.209 650.372 111.898 650.893 116.705C651.935 126.313 657.065 133.375 666.578 138.294C675.266 142.786 686.161 144.798 694.915 146.416L694.152 150.518Z" fill="#3D4451"/>
<path d="M227.751 159.962L230.629 168.225C232.087 172.411 236.518 174.681 240.524 173.291L258.516 167.051L255.101 157.723C255.102 157.723 236.3 169.243 227.751 159.962Z" fill="#C7DDEB"/>
<path d="M255.533 155.956L257.094 160.658C259.781 168.758 268.228 173.042 275.961 170.227L314.581 156.166L308.33 137.324L255.533 155.956Z" fill="#C7DDEB"/>
<path d="M211.421 157.311L223.058 153.274L227.958 167.342L216.321 171.378C212.515 172.697 208.36 170.69 207.037 166.894L206.925 166.574C205.605 162.777 207.617 158.63 211.421 157.311Z" fill="#C7DDEB"/>
<path d="M268.614 173.445C266.407 173.445 264.211 172.947 262.165 171.959C258.601 170.237 255.921 167.233 254.621 163.501L242.24 127.959C240.94 124.226 241.175 120.212 242.9 116.655C244.626 113.099 247.636 110.425 251.376 109.128L286.095 97.0879L308.21 160.578L273.491 172.617C271.899 173.17 270.254 173.445 268.614 173.445ZM283.196 103.068L252.924 113.565C250.371 114.45 248.317 116.274 247.139 118.702C245.96 121.129 245.801 123.868 246.688 126.416L259.068 161.958C259.955 164.506 261.783 166.555 264.216 167.731C266.648 168.905 269.394 169.065 271.947 168.18L302.217 157.683L283.196 103.068Z" fill="#3D4451"/>
<path d="M238.114 176.047C233.903 176.047 229.909 173.315 228.406 168.996L218.301 139.983C217.396 137.384 217.516 134.598 218.64 132.14C219.78 129.642 221.813 127.781 224.365 126.896L242.357 120.657L243.904 125.096L225.912 131.336C224.588 131.795 223.527 132.773 222.925 134.09C222.306 135.446 222.243 136.99 222.749 138.442L232.854 167.456C233.885 170.412 236.979 172.036 239.751 171.073L257.743 164.833L259.29 169.271L241.298 175.51C240.246 175.873 239.174 176.047 238.114 176.047Z" fill="#3D4451"/>
<path d="M309.753 163.969C308.711 163.969 307.675 163.734 306.71 163.268C305.028 162.455 303.764 161.038 303.15 159.278L282.935 101.241C282.322 99.4799 282.432 97.5864 283.246 95.9084C284.06 94.2305 285.481 92.9685 287.247 92.3578L288.509 91.9195C292.152 90.6562 296.147 92.5859 297.413 96.2215L317.628 154.259C318.242 156.021 318.132 157.914 317.317 159.592C316.503 161.27 315.082 162.532 313.318 163.143L312.055 163.581C311.303 163.84 310.527 163.969 309.753 163.969ZM289.822 95.6858L288.56 96.1241C287.803 96.387 287.195 96.9269 286.846 97.6462C286.498 98.3655 286.45 99.1766 286.713 99.9321L306.928 157.968C307.191 158.723 307.732 159.331 308.453 159.678C309.174 160.026 309.987 160.074 310.744 159.812L312.007 159.374C312.763 159.111 313.373 158.571 313.721 157.852C314.07 157.132 314.117 156.321 313.855 155.566L293.637 97.5293C293.095 95.971 291.383 95.1446 289.822 95.6858Z" fill="#3D4451"/>
<path d="M237.205 136.768C237.864 136.54 238.584 136.887 238.814 137.546L245.895 157.875C246.124 158.534 245.775 159.252 245.115 159.481C244.456 159.709 243.736 159.361 243.506 158.703L236.425 138.373C236.197 137.715 236.545 136.996 237.205 136.768Z" fill="#3D4451"/>
<path d="M231.234 138.838C231.894 138.61 232.613 138.958 232.843 139.616L239.924 159.946C240.153 160.604 239.804 161.322 239.145 161.551C238.485 161.78 237.766 161.432 237.535 160.774L230.455 140.444C230.226 139.786 230.576 139.066 231.234 138.838Z" fill="#3D4451"/>
<path d="M212.107 168.637C210.599 168.637 209.099 168.296 207.702 167.621C205.267 166.446 203.438 164.394 202.549 161.843L202.421 161.477C200.587 156.214 203.387 150.444 208.663 148.615L223.673 143.408L230.45 162.864L215.438 168.072C214.35 168.451 213.226 168.637 212.107 168.637ZM209.241 150.28L209.821 151.944C208.158 152.521 206.818 153.711 206.051 155.293C205.282 156.875 205.179 158.661 205.757 160.321L205.885 160.687C206.464 162.348 207.656 163.684 209.241 164.451C210.827 165.217 212.617 165.32 214.281 164.744L225.956 160.695L221.498 147.897L209.823 151.945L209.241 150.28Z" fill="#3D4451"/>
<path d="M520.752 74.9748L504.663 80.3843L500.589 68.3173L516.678 62.9078C520.017 61.785 523.637 63.5757 524.762 66.9093C525.888 70.2401 524.092 73.852 520.752 74.9748Z" fill="#C7DDEB"/>
<path d="M505.114 80.463L480.534 89.227L482.793 105.881L501.633 98.6184C506.339 96.8041 509.413 89.8712 508.499 83.133C508.226 81.1253 506.678 79.9051 505.114 80.463Z" fill="#C7DDEB"/>
<path d="M468.616 97.1017L472.477 108.534C473.444 111.396 476.614 112.913 479.56 111.923L479.65 111.893C482.595 110.902 484.2 107.78 483.234 104.918L479.403 93.5747" fill="#C7DDEB"/>
<path d="M477.158 108.949L425.753 126.543C422.894 127.504 419.983 126.522 419.249 124.349L416.865 117.288C416.131 115.116 417.853 112.575 420.712 111.614L468.757 95.4619" fill="#C7DDEB"/>
<path d="M440.896 88.0805L414.461 96.9673L416.078 101.755L442.513 92.8682L440.896 88.0805Z" fill="#FDC345"/>
<path d="M484.822 104.767L483.168 99.868L501.285 93.7782C504.448 92.7138 506.155 89.28 505.09 86.1231L493.176 50.8419C492.66 49.3129 491.577 48.0746 490.128 47.3581C488.679 46.6401 487.036 46.5302 485.504 47.045L467.388 53.1348L465.734 48.236L483.85 42.1462C486.695 41.1903 489.741 41.3962 492.43 42.7263C495.118 44.0565 497.128 46.3521 498.086 49.1904L510 84.4716C511.978 90.3305 508.81 96.7014 502.94 98.6756L484.822 104.767Z" fill="#3D4451"/>
<path d="M503.118 78.4331L496.31 58.27L514.317 52.2164C519.888 50.3423 525.948 53.342 527.824 58.9003C529.701 64.4586 526.696 70.5053 521.126 72.3781L503.118 78.4331ZM501.826 60.9998L505.854 72.9276L519.734 68.2611L520.43 70.3203L519.734 68.2611C523.031 67.1536 524.808 63.5765 523.697 60.2875C522.587 56.9984 519.002 55.2244 515.706 56.3333L501.826 60.9998Z" fill="#3D4451"/>
<path d="M422.134 129.53L400.77 66.2622L452.971 48.7134L454.496 53.2324L406.826 69.2577L425.138 123.489L472.808 107.463L474.334 111.982L422.134 129.53Z" fill="#3D4451"/>
<path d="M414.995 103.896L410.71 91.2059L440.351 81.2412L444.636 93.9315L414.995 103.896ZM414.998 93.3277L417.121 99.6178L440.347 91.8097L438.223 85.5195L414.998 93.3277Z" fill="#3D4451"/>
<path d="M383.579 93.7084C381.29 93.7084 379.151 92.267 378.38 89.9852L378.189 89.4203C377.224 86.5625 378.769 83.4557 381.633 82.4929L406.771 74.042L410.462 84.9708L385.325 93.4218C384.746 93.6152 384.157 93.7084 383.579 93.7084ZM404.502 78.6083L382.788 85.9086C382.315 86.0672 381.933 86.4011 381.712 86.8464C381.49 87.293 381.455 87.798 381.615 88.2697L381.806 88.8346C381.965 89.3062 382.3 89.6874 382.746 89.9087C383.194 90.1299 383.7 90.1647 384.173 90.0047L405.887 82.7044L404.502 78.6083Z" fill="#3D4451"/>
<path d="M395.101 127.828C392.812 127.828 390.673 126.386 389.902 124.105L389.711 123.54C388.746 120.683 390.291 117.575 393.154 116.612L418.291 108.162L421.981 119.09L396.844 127.541C396.268 127.736 395.679 127.828 395.101 127.828ZM416.022 112.728L394.309 120.028C393.333 120.357 392.805 121.415 393.135 122.389L393.326 122.954C393.485 123.426 393.819 123.807 394.265 124.028C394.713 124.249 395.219 124.284 395.692 124.124L417.406 116.824L416.022 112.728Z" fill="#3D4451"/>
<path d="M415.586 72.7192C415.087 72.7192 414.623 72.4048 414.454 71.9081C414.243 71.2833 414.579 70.6072 415.204 70.3971L437.777 62.8088C438.402 62.5987 439.081 62.934 439.291 63.5573C439.502 64.182 439.166 64.8582 438.541 65.0683L415.968 72.6566C415.841 72.6983 415.713 72.7192 415.586 72.7192Z" fill="#3D4451"/>
<path d="M477.769 114.189C474.594 114.189 471.627 112.188 470.558 109.024L451.873 53.687C451.225 51.767 451.364 49.7092 452.266 47.8935C453.169 46.0779 454.726 44.7227 456.65 44.0758L456.741 44.0451C458.665 43.3982 460.728 43.5373 462.546 44.4375C464.366 45.3377 465.724 46.8918 466.372 48.8118L485.058 104.149C486.396 108.113 484.253 112.425 480.28 113.76L480.19 113.791C479.388 114.061 478.572 114.189 477.769 114.189ZM459.172 47.5888C458.78 47.5888 458.385 47.6529 458.002 47.7809L457.911 47.8115C456.986 48.1217 456.239 48.7743 455.805 49.6452C455.372 50.5176 455.305 51.5054 455.616 52.4279L474.301 107.765C474.944 109.668 477.02 110.695 478.928 110.055L479.018 110.024C480.926 109.383 481.956 107.311 481.314 105.408L462.628 50.071C462.317 49.1485 461.663 48.4028 460.79 47.9701C460.279 47.7169 459.727 47.5888 459.172 47.5888Z" fill="#3D4451"/>
<path d="M442.728 63.6628C442.222 63.6628 441.752 63.34 441.591 62.8335C441.39 62.206 441.736 61.5354 442.365 61.3351L445.851 60.222C446.48 60.0216 447.152 60.3667 447.352 60.9942C447.553 61.6217 447.207 62.2923 446.579 62.4927L443.092 63.6057C442.973 63.6447 442.85 63.6628 442.728 63.6628Z" fill="#3D4451"/>
<path d="M484.382 58.9853C485.043 58.7613 485.761 59.1147 485.986 59.7742L492.926 80.1529C493.15 80.8124 492.796 81.5289 492.135 81.7529C491.474 81.9769 490.756 81.6235 490.532 80.9641L483.592 60.5853C483.367 59.9258 483.721 59.2093 484.382 58.9853Z" fill="#3D4451"/>
<path d="M478.398 61.0141C479.059 60.7901 479.777 61.1435 480.001 61.803L486.942 82.1817C487.166 82.8412 486.812 83.5577 486.151 83.7817C485.49 84.0057 484.772 83.6523 484.547 82.9929L477.607 62.6141C477.383 61.9546 477.737 61.2381 478.398 61.0141Z" fill="#3D4451"/>
<path d="M343.893 43.2716C343.849 43.2716 343.804 43.2702 343.76 43.2674C342.606 43.1951 341.731 42.2031 341.805 41.0524L344.288 1.95483C344.361 0.804205 345.359 -0.0681551 346.508 0.00419373C347.661 0.0765426 348.537 1.06856 348.463 2.21918L345.979 41.3168C345.908 42.4229 344.988 43.2716 343.893 43.2716Z" fill="#3D4451"/>
<path d="M396.993 208.281C396.19 208.281 395.424 207.818 395.078 207.037L380.02 173.061C379.553 172.006 380.031 170.775 381.086 170.308C382.143 169.842 383.378 170.319 383.846 171.372L398.905 205.348C399.372 206.403 398.894 207.634 397.838 208.102C397.563 208.224 397.276 208.281 396.993 208.281Z" fill="#3D4451"/>
<path d="M314.583 51.4787C313.971 51.4787 313.364 51.2116 312.951 50.6996L290.64 23.0122C289.917 22.1135 290.059 20.8 290.96 20.0779C291.861 19.3558 293.177 19.4978 293.901 20.3966L316.211 48.0839C316.935 48.9827 316.793 50.2961 315.892 51.0182C315.506 51.3285 315.043 51.4787 314.583 51.4787Z" fill="#3D4451"/>
<path d="M435.197 167.794C434.874 167.794 434.545 167.719 434.236 167.56L405.76 152.841C404.733 152.311 404.333 151.052 404.864 150.028C405.396 149.004 406.658 148.605 407.684 149.135L436.161 163.854C437.187 164.384 437.587 165.643 437.056 166.667C436.684 167.383 435.954 167.794 435.197 167.794Z" fill="#3D4451"/>
<path d="M349.248 215C349.217 215 349.185 215 349.155 214.998C348 214.947 347.106 213.973 347.158 212.821L348.64 179.358C348.692 178.206 349.668 177.316 350.822 177.366C351.977 177.417 352.871 178.391 352.819 179.543L351.337 213.006C351.287 214.125 350.361 215 349.248 215Z" fill="#3D4451"/>
<path d="M304.218 204.429C303.832 204.429 303.443 204.323 303.093 204.101C302.119 203.48 301.835 202.189 302.457 201.218L319.52 174.592C320.142 173.621 321.436 173.337 322.41 173.958C323.383 174.578 323.667 175.869 323.045 176.84L305.982 203.466C305.583 204.09 304.908 204.429 304.218 204.429Z" fill="#3D4451"/>
<path d="M380.816 52.1745C380.314 52.1745 379.811 51.995 379.409 51.6318C378.555 50.8569 378.492 49.5365 379.27 48.6836L400.326 25.5877C401.102 24.7348 402.426 24.6722 403.28 25.4485C404.135 26.2235 404.198 27.5439 403.42 28.3967L382.364 51.4927C381.951 51.9449 381.385 52.1745 380.816 52.1745Z" fill="#3D4451"/>
<path d="M252.528 124.663C251.898 124.663 251.326 124.234 251.173 123.595C250.715 121.695 251.255 119.862 252.735 118.299C253.747 117.229 254.85 116.661 254.973 116.6L255.056 116.558L255.144 116.527L279.547 108.18C280.275 107.931 281.068 108.317 281.318 109.045C281.567 109.771 281.18 110.563 280.45 110.812L256.151 119.125C255.706 119.37 253.362 120.775 253.884 122.946C254.063 123.693 253.602 124.444 252.853 124.624C252.746 124.65 252.637 124.663 252.528 124.663Z" fill="#3D4451"/>
<path d="M289.9 74.0182C289.66 74.0182 289.415 73.9765 289.176 73.8888L257.802 62.3408C256.718 61.9415 256.164 60.7422 256.564 59.6611C256.964 58.58 258.166 58.0263 259.249 58.4256L290.624 69.9736C291.707 70.3729 292.262 71.5723 291.862 72.6533C291.551 73.4965 290.75 74.0182 289.9 74.0182Z" fill="#3D4451"/>
</g>
<defs>
<clipPath id="clip0_1572_23317">
<rect width="696" height="215" fill="white"/>
</clipPath>
</defs>
</svg>
