<svg width="24" height="24" viewBox="0 0 24 24" fill="none" xmlns="http://www.w3.org/2000/svg">
<path fill-rule="evenodd" clip-rule="evenodd" d="M12.0006 18.8569C15.0725 18.9109 17.7817 17.8065 20.0866 15.575C21.0945 14.5995 21.8214 13.5121 22.2471 12.2918C22.2762 12.2084 22.2885 12.1228 22.2859 12.0391C22.2883 11.9627 22.2783 11.8845 22.2543 11.8077C21.9953 10.979 21.5583 10.2452 20.8616 9.35536C19.4753 7.58427 17.6662 6.36088 15.4286 5.67497C14.2655 5.31837 13.1224 5.13689 12.0006 5.14478C10.8787 5.13689 9.73558 5.31837 8.57255 5.67497C6.33496 6.36088 4.5258 7.58427 3.1395 9.35536C2.44285 10.2452 2.00578 10.979 1.74684 11.8077C1.72286 11.8845 1.7128 11.9627 1.71519 12.0391C1.71257 12.1228 1.7249 12.2084 1.75397 12.2918C2.17972 13.5121 2.90666 14.5995 3.91447 15.575C6.21944 17.8065 8.92857 18.9109 12.0006 18.8569ZM12.0006 6.46674C10.9986 6.45882 9.96972 6.6218 8.91368 6.9456C6.90859 7.56024 5.3125 8.63955 4.08833 10.2035C3.54423 10.8985 3.19719 11.4588 2.98684 12.0304C3.34812 12.9621 3.93475 13.8112 4.74498 14.5954C6.81916 16.6035 9.23122 17.5891 12.0006 17.5351C14.7699 17.5891 17.182 16.6035 19.2561 14.5954C20.0664 13.8112 20.653 12.9621 21.0143 12.0304C20.8039 11.4588 20.4569 10.8985 19.9128 10.2035C18.6886 8.63955 17.0925 7.56024 15.0874 6.9456C14.0314 6.6218 13.0025 6.45882 12.0006 6.46674ZM15.7034 12.0017C15.7034 14.183 14.0456 15.9514 12.0005 15.9514C9.9555 15.9514 8.29767 14.183 8.29767 12.0017C8.29767 9.82029 9.9555 8.05195 12.0005 8.05195C14.0456 8.05195 15.7034 9.82029 15.7034 12.0017ZM9.53197 12.0016C9.53197 13.4559 10.6372 14.6348 12.0005 14.6348C13.3639 14.6348 14.4691 13.4559 14.4691 12.0016C14.4691 10.5474 13.3639 9.3685 12.0005 9.3685C10.6372 9.3685 9.53197 10.5474 9.53197 12.0016Z" fill="#005FC8"/>
</svg>
