<svg width="24" height="25" viewBox="0 0 24 25" fill="none" xmlns="http://www.w3.org/2000/svg">
<path d="M19.9931 10.3777L5.95427 2.35024C5.61598 2.15824 5.22741 2.0531 4.83427 2.0531C4.43655 2.0531 4.04341 2.15824 3.69598 2.35939C3.00113 2.76167 2.57141 3.51139 2.57141 4.31596V20.3662C2.57141 21.1708 3.00113 21.9205 3.69598 22.3228C4.04341 22.5194 4.43655 22.6245 4.83427 22.6245C5.22741 22.6245 5.61598 22.5194 5.95884 22.3274L19.9977 14.3045C20.7017 13.9022 21.136 13.1525 21.136 12.3388C21.1314 11.5297 20.6971 10.7754 19.9931 10.3777ZM13.9086 8.48053L11.9794 11.164L7.37141 4.7411L13.9086 8.48053ZM4.74284 21.244C4.61941 21.2302 4.49598 21.1937 4.38627 21.1297C4.11198 20.9742 3.94284 20.6771 3.94284 20.3617V4.31596C3.94284 4.00053 4.11198 3.70339 4.38627 3.54796C4.49598 3.48396 4.61941 3.44739 4.74284 3.43367L11.1383 12.3388L4.74284 21.244ZM7.37141 19.9365L11.984 13.5137L13.9131 16.1971L7.37141 19.9365ZM19.312 13.1114L15.1063 15.516L12.8251 12.3388L15.1063 9.16167L19.312 11.5662C19.5863 11.7262 19.76 12.0188 19.76 12.3388C19.76 12.6588 19.5908 12.9514 19.312 13.1114Z" fill="white"/>
</svg>
