<svg width="22" height="22" viewBox="0 0 22 22" fill="none" xmlns="http://www.w3.org/2000/svg">
<path fill-rule="evenodd" clip-rule="evenodd" d="M10.1195 1.04538L0.993709 8.92313C0.667913 9.20437 0.62075 9.70991 0.888369 10.0523L0.954716 10.1269C1.09546 10.2663 1.28246 10.3453 1.47828 10.3453H3.36561L3.36648 18.368C3.36648 19.9792 4.60935 21.2853 6.14251 21.2853H15.8586L16.0162 21.2807C17.476 21.1949 18.6347 19.9236 18.6347 18.368V10.3453H20.5229C20.9445 10.3453 21.2863 9.98614 21.2863 9.54306C21.2863 9.30298 21.184 9.07552 21.0074 8.92313L11.8816 1.04538C11.3695 0.603362 10.6316 0.603362 10.1195 1.04538ZM3.22247 8.88667L11.0006 2.17253L18.7778 8.88667H18.0101C17.5884 8.88667 17.2466 9.24585 17.2466 9.68893V18.368C17.2466 19.1736 16.6252 19.8266 15.8586 19.8266H6.14251C5.37593 19.8266 4.75449 19.1736 4.75449 18.368V9.68893L4.74854 9.5883C4.70144 9.19272 4.38027 8.88667 3.99108 8.88667H3.22247Z" fill="#002364"/>
</svg>
