<svg width="24" height="25" viewBox="0 0 24 25" fill="none" xmlns="http://www.w3.org/2000/svg">
<path fill-rule="evenodd" clip-rule="evenodd" d="M16 2.33887H8C4.68629 2.33887 2 5.02516 2 8.33887V16.3389C2 19.6526 4.68629 22.3389 8 22.3389H16C19.3137 22.3389 22 19.6526 22 16.3389V8.33887C22 5.02516 19.3137 2.33887 16 2.33887ZM4 8.33887C4 6.12973 5.79086 4.33887 8 4.33887H16C18.2091 4.33887 20 6.12973 20 8.33887V16.3389C20 18.548 18.2091 20.3389 16 20.3389H8C5.79086 20.3389 4 18.548 4 16.3389V8.33887ZM12 17.3389C9.23858 17.3389 7 15.1003 7 12.3389C7 9.57744 9.23858 7.33887 12 7.33887C14.7614 7.33887 17 9.57744 17 12.3389C17 15.1003 14.7614 17.3389 12 17.3389ZM12 15.3389C13.6569 15.3389 15 13.9957 15 12.3389C15 10.682 13.6569 9.33887 12 9.33887C10.3431 9.33887 9 10.682 9 12.3389C9 13.9957 10.3431 15.3389 12 15.3389ZM18 7.33887C18 7.89115 17.5523 8.33887 17 8.33887C16.4477 8.33887 16 7.89115 16 7.33887C16 6.78658 16.4477 6.33887 17 6.33887C17.5523 6.33887 18 6.78658 18 7.33887Z" fill="white"/>
</svg>
