<svg width="24" height="25" viewBox="0 0 24 25" fill="none" xmlns="http://www.w3.org/2000/svg">
<path fill-rule="evenodd" clip-rule="evenodd" d="M4 2.33887H20C21.1046 2.33887 22 3.2343 22 4.33887V20.3389C22 21.4434 21.1046 22.3389 20 22.3389H4C2.89543 22.3389 2 21.4434 2 20.3389V4.33887C2 3.2343 2.89543 2.33887 4 2.33887ZM4 4.33887V20.3389H20V4.33887H4ZM13 9.33887C12.4823 9.33887 11.9353 9.49712 11.4521 9.79102L11 9.33887H10V16.3389H12V12.3389C12 11.7631 12.594 11.3389 13 11.3389H14C14.406 11.3389 15 11.7631 15 12.3389V16.3389H17V12.3389C17 10.486 15.394 9.33887 14 9.33887H13ZM8 8.33887C8.55228 8.33887 9 7.89115 9 7.33887C9 6.78658 8.55228 6.33887 8 6.33887C7.44772 6.33887 7 6.78658 7 7.33887C7 7.89115 7.44772 8.33887 8 8.33887ZM7 9.33887V16.3389H9V9.33887H7Z" fill="white"/>
</svg>
