<svg width="129" height="56" viewBox="0 0 129 56" fill="none" xmlns="http://www.w3.org/2000/svg">
<path d="M56 0H0V56H56V0Z" fill="#1D2362"/>
<path fill-rule="evenodd" clip-rule="evenodd" d="M18.2579 37.4828L15.7303 39.4113C14.9333 38.4062 13.5995 37.6833 12.3745 37.6833C10.0541 37.6833 8.17444 39.6211 8.17444 42.0105C8.17444 44.4 10.0541 46.3387 12.3745 46.3387C13.6147 46.3387 14.9156 45.6402 15.7303 44.6115L18.2579 46.54C17.3122 47.7688 16.0056 48.6707 14.5213 49.1192C13.0371 49.5678 11.4496 49.5403 9.98172 49.0409C8.5138 48.5414 7.23908 47.595 6.33636 46.3343C5.43365 45.0736 4.94824 43.5619 4.94824 42.0114C4.94824 40.4608 5.43365 38.9492 6.33636 37.6885C7.23908 36.4278 8.5138 35.4813 9.98172 34.9819C11.4496 34.4824 13.0371 34.455 14.5213 34.9035C16.0056 35.3521 17.3122 36.254 18.2579 37.4828V37.4828Z" fill="white"/>
<path fill-rule="evenodd" clip-rule="evenodd" d="M30.6813 43.5701L24.0084 34.9973H21.1885V49.0331H24.3008V40.4535L30.9737 49.0331H33.7937V34.9973H30.6813V43.5701Z" fill="white"/>
<path fill-rule="evenodd" clip-rule="evenodd" d="M47.7892 40.3356C47.7892 40.042 47.7314 39.7514 47.6191 39.4802C47.5068 39.209 47.3421 38.9626 47.1345 38.755C46.927 38.5474 46.6806 38.3828 46.4094 38.2705C46.1382 38.1581 45.8475 38.1003 45.554 38.1003H41.5705V42.5725H45.554C45.8476 42.5724 46.1384 42.5144 46.4096 42.402C46.6809 42.2895 46.9273 42.1247 47.1349 41.917C47.3424 41.7093 47.5071 41.4627 47.6193 41.1913C47.7316 40.92 47.7893 40.6292 47.7892 40.3356V40.3356ZM45.7183 34.9973C47.1221 35.0149 48.4625 35.5849 49.449 36.5839C50.4355 37.5829 50.9887 38.9303 50.9887 40.3343C50.9887 41.7383 50.4355 43.0857 49.449 44.0847C48.4625 45.0836 47.1221 45.6537 45.7183 45.6713H41.5705V49.0331H38.459V34.9973H45.7183Z" fill="white"/>
<path d="M62.8203 28H56V56H62.8203V28Z" fill="#DD0069"/>
<path fill-rule="evenodd" clip-rule="evenodd" d="M27.9111 25.9872C35.2109 16.6106 46.6053 10.578 59.4102 10.578C72.2151 10.578 83.6087 16.6106 90.9092 25.9872H81.6506C75.5627 20.4586 67.6338 17.3957 59.4102 17.3957C51.1866 17.3957 43.2577 20.4586 37.1698 25.9872H27.9111Z" fill="#00ACA9"/>
<path d="M75.3676 39.916C76.1629 39.916 76.8608 40.096 77.4613 40.4561C78.0429 40.7946 78.5142 41.2941 78.8186 41.8943L77.6955 42.6526C77.5822 42.4015 77.4285 42.1706 77.2406 41.9693C77.0689 41.785 76.8658 41.633 76.6407 41.5202C76.4332 41.4168 76.2143 41.3382 75.9885 41.286C75.7674 41.2356 75.5413 41.2105 75.3145 41.211C74.9642 41.2084 74.6167 41.273 74.2908 41.4014C73.9912 41.5173 73.7162 41.6888 73.4803 41.9069C73.2513 42.1243 73.0556 42.3745 72.8998 42.6492C72.7388 42.9283 72.618 43.2286 72.5409 43.5414C72.4639 43.8518 72.4251 44.1704 72.4255 44.4901C72.4212 45.0585 72.5484 45.6202 72.797 46.1314C73.0327 46.6262 73.3955 47.0496 73.8485 47.3581C74.29 47.6642 74.8152 47.8264 75.3524 47.8224C75.663 47.8226 75.9716 47.7731 76.2666 47.6758C76.5822 47.5675 76.8745 47.4002 77.1276 47.1829C77.4038 46.9522 77.6227 46.6607 77.7671 46.3311L78.9593 47.0051C78.7687 47.4533 78.4682 47.8462 78.0856 48.1476C77.6915 48.4711 77.2407 48.7185 76.7561 48.8772C76.2871 49.0334 75.7962 49.1136 75.3019 49.1148C74.6968 49.1171 74.0996 48.978 73.5578 48.7087C73.0292 48.4524 72.5596 48.0892 72.1786 47.6421C71.8036 47.1939 71.5063 46.6862 71.299 46.1398C71.086 45.5982 70.976 45.0216 70.9746 44.4396C70.9751 43.9951 71.0381 43.553 71.1616 43.1261C71.2871 42.6902 71.4777 42.2757 71.727 41.8968C71.9749 41.5157 72.2763 41.1721 72.6218 40.8765C72.9861 40.57 73.4028 40.3319 73.8519 40.1738C74.3381 39.9999 74.8512 39.9126 75.3676 39.916V39.916Z" fill="#1D2362"/>
<path d="M79.5853 47.0236C79.4225 46.6017 79.3399 46.1531 79.3418 45.7008C79.3414 45.2478 79.4272 44.7989 79.5946 44.378C79.7531 43.9705 79.9859 43.596 80.2813 43.2735C80.5864 42.9461 80.9578 42.6876 81.3707 42.5152C81.8154 42.3258 82.2943 42.23 82.7777 42.2338C83.4128 42.2237 84.0382 42.3902 84.5841 42.7149C85.0973 43.0165 85.5174 43.4538 85.7982 43.9787C86.0728 44.5091 86.2161 45.0976 86.2161 45.6949C86.2161 46.2922 86.0728 46.8808 85.7982 47.4112C85.5171 47.9358 85.097 48.373 84.5841 48.675C84.0381 48.9994 83.4127 49.1656 82.7777 49.1552C82.2902 49.1601 81.807 49.0646 81.358 48.8746C80.9453 48.7019 80.5739 48.4435 80.2686 48.1164C79.9743 47.7982 79.7425 47.4275 79.5853 47.0236V47.0236ZM81.3605 47.3235C81.5367 47.5264 81.7546 47.6888 81.9993 47.7997C82.244 47.9107 82.5098 47.9675 82.7785 47.9663C83.0472 47.9651 83.3124 47.9059 83.5561 47.7928C83.7998 47.6797 84.0163 47.5153 84.1906 47.3109C84.5771 46.8745 84.7706 46.3378 84.7711 45.7008C84.7717 45.0639 84.5782 44.5283 84.1906 44.0941C84.0173 43.8876 83.8005 43.722 83.5556 43.6092C83.3107 43.4965 83.0439 43.4394 82.7743 43.442C82.2205 43.442 81.7504 43.6624 81.3639 44.1034C80.9748 44.5503 80.7676 45.127 80.7834 45.7194C80.7834 46.3608 80.9758 46.8955 81.3605 47.3235V47.3235Z" fill="#1D2362"/>
<path d="M93.1378 49.0398H91.7274V45.2973C91.7274 44.6794 91.6285 44.2239 91.4308 43.9307C91.2331 43.6375 90.9368 43.4917 90.5419 43.4934C90.1342 43.4934 89.7356 43.6442 89.3464 43.9458C88.9709 44.2286 88.6913 44.6197 88.5451 45.0664V49.0415H87.1406V42.3577H88.4204V43.6965C88.6835 43.2417 89.0707 42.8714 89.5368 42.629C90.029 42.3658 90.5795 42.2305 91.1376 42.2355C91.4179 42.2298 91.6966 42.2787 91.9582 42.3796C92.1764 42.4633 92.3726 42.5955 92.532 42.7663C92.6886 42.9426 92.8104 43.147 92.8909 43.3687C92.9827 43.608 93.0466 43.8571 93.0813 44.111C93.1184 44.3934 93.1361 44.678 93.1344 44.9628L93.1378 49.0398Z" fill="#1D2362"/>
<path d="M96.8246 49.1645C96.2765 49.1684 95.7322 49.0733 95.2179 48.884C94.7356 48.7087 94.2978 48.4294 93.9355 48.0659L94.4596 47.1239C95.1999 47.7681 95.9717 48.0905 96.7749 48.0911C97.1787 48.0911 97.5012 48.0153 97.7421 47.8636C97.8555 47.7975 97.9489 47.7021 98.0125 47.5873C98.0762 47.4725 98.1076 47.3427 98.1036 47.2115C98.104 47.1484 98.0978 47.0854 98.085 47.0236C98.073 46.9663 98.0485 46.9122 98.0134 46.8652C97.9815 46.8215 97.9472 46.7796 97.9106 46.7397C97.8652 46.6967 97.8135 46.6609 97.7573 46.6335C97.689 46.599 97.6284 46.5695 97.577 46.5493C97.5256 46.5291 97.4489 46.4979 97.3487 46.465C97.2484 46.4322 97.1658 46.4052 97.0959 46.3867L96.7993 46.3024C96.6687 46.267 96.5609 46.2367 96.4783 46.2123C96.0851 46.0909 95.7678 45.9786 95.5263 45.8753C95.292 45.7763 95.0701 45.6505 94.8649 45.5003C94.6799 45.3704 94.5326 45.194 94.4377 44.9889C94.3455 44.7699 94.3007 44.5339 94.3063 44.2963C94.3063 43.6594 94.5475 43.1569 95.03 42.789C95.5125 42.4211 96.1492 42.2369 96.94 42.2363C97.9511 42.2363 98.7655 42.5453 99.3834 43.1631L98.7776 44.0899C98.1996 43.5614 97.561 43.2974 96.8617 43.2979C96.555 43.2868 96.2507 43.3556 95.9787 43.4976C95.7436 43.6307 95.6265 43.8464 95.6265 44.1464C95.6243 44.2457 95.6457 44.3442 95.6889 44.4337C95.7264 44.5114 95.7772 44.5821 95.8388 44.6426C95.9253 44.7161 96.0232 44.775 96.1287 44.817C96.2485 44.8718 96.3715 44.9197 96.4968 44.9603C96.6092 44.9956 96.7746 45.0468 96.9931 45.1136C97.1925 45.1698 97.3568 45.2186 97.486 45.2602C97.6152 45.3018 97.7618 45.3495 97.9258 45.4034C98.0898 45.4596 98.2229 45.5107 98.3252 45.5568C98.4271 45.6023 98.5383 45.6587 98.6622 45.7253C98.7655 45.7802 98.8627 45.846 98.952 45.9216C99.0302 45.9921 99.1042 46.0673 99.1736 46.1466C99.2445 46.2257 99.3015 46.3163 99.3421 46.4145C99.3818 46.5168 99.413 46.6222 99.4356 46.7296C99.4614 46.8548 99.4739 46.9825 99.4727 47.1104C99.4727 47.7513 99.2337 48.2537 98.7557 48.6177C98.2777 48.9817 97.634 49.1639 96.8246 49.1645Z" fill="#1D2362"/>
<path d="M100.212 47.0236C100.05 46.6015 99.9679 46.153 99.9698 45.7008C99.9689 45.2478 100.055 44.7988 100.223 44.3781C100.381 43.9704 100.614 43.5957 100.909 43.2735C101.214 42.9462 101.585 42.6877 101.998 42.5152C102.442 42.3259 102.921 42.2301 103.405 42.2338C104.04 42.2237 104.666 42.3903 105.212 42.7149C105.725 43.0168 106.145 43.454 106.425 43.9787C106.7 44.5091 106.843 45.0977 106.843 45.6949C106.843 46.2922 106.7 46.8808 106.425 47.4112C106.144 47.9356 105.725 48.3728 105.212 48.675C104.666 48.9994 104.04 49.1656 103.405 49.1552C102.917 49.16 102.434 49.0645 101.985 48.8747C101.572 48.7021 101.201 48.4436 100.897 48.1164C100.602 47.7985 100.37 47.4277 100.212 47.0236V47.0236ZM101.988 47.3236C102.165 47.5264 102.383 47.6888 102.627 47.7997C102.872 47.9107 103.138 47.9675 103.406 47.9663C103.675 47.9651 103.94 47.9059 104.184 47.7928C104.428 47.6797 104.644 47.5153 104.819 47.3109C105.206 46.8745 105.399 46.3378 105.399 45.7008C105.399 45.0639 105.206 44.5283 104.819 44.0941C104.645 43.8876 104.428 43.722 104.183 43.6092C103.938 43.4965 103.671 43.4394 103.401 43.442C102.849 43.442 102.379 43.6625 101.991 44.1034C101.602 44.5504 101.395 45.1271 101.411 45.7194C101.411 46.3608 101.604 46.8955 101.988 47.3236V47.3236ZM103.888 41.3946L102.971 41.1141L103.701 39.7104H105.043L103.888 41.3946Z" fill="#1D2362"/>
<path d="M111.525 43.5667C111.015 43.569 110.513 43.7012 110.068 43.9509C109.664 44.1732 109.349 44.5262 109.172 44.9518V49.0398H107.769V42.356H109.073V43.854C109.286 43.4205 109.596 43.0424 109.98 42.7494C110.322 42.4824 110.736 42.3237 111.169 42.2936C111.288 42.2911 111.407 42.2953 111.525 42.3063V43.5667Z" fill="#1D2362"/>
<path d="M115.143 49.1645C114.506 49.1743 113.879 49.0081 113.33 48.6842C112.813 48.381 112.389 47.9415 112.104 47.4137C111.859 46.9459 111.717 46.4313 111.686 45.9041C111.655 45.3769 111.737 44.8492 111.927 44.3561C112.084 43.9504 112.318 43.5787 112.616 43.2608C112.924 42.9381 113.298 42.684 113.711 42.5152C114.165 42.3286 114.652 42.2351 115.143 42.2405C115.817 42.2405 116.404 42.3905 116.903 42.6904C117.391 42.9779 117.786 43.4005 118.039 43.9071L116.673 44.3376C116.519 44.0642 116.295 43.8376 116.023 43.6821C115.746 43.5237 115.431 43.442 115.112 43.4453C114.844 43.4405 114.577 43.4948 114.332 43.6043C114.087 43.7138 113.868 43.8758 113.692 44.0789C113.312 44.5013 113.121 45.0389 113.121 45.6915C113.121 46.333 113.318 46.8728 113.711 47.3109C114.104 47.749 114.577 47.9686 115.128 47.9698C115.471 47.9706 115.807 47.8789 116.101 47.7044C116.405 47.5274 116.609 47.3101 116.713 47.0522L118.098 47.4575C117.864 47.9807 117.468 48.4151 116.969 48.6969C116.415 49.017 115.783 49.1787 115.143 49.1645V49.1645Z" fill="#1D2362"/>
<path d="M118.93 41.2573V39.7104H120.334V41.2573H118.93ZM118.93 49.0398V42.356H120.334V49.0398H118.93Z" fill="#1D2362"/>
<path d="M121.512 47.0236C121.35 46.6015 121.268 46.153 121.27 45.7008C121.269 45.2478 121.354 44.7988 121.522 44.378C121.681 43.9703 121.913 43.5957 122.209 43.2735C122.514 42.9462 122.885 42.6877 123.298 42.5152C123.742 42.3259 124.221 42.2301 124.705 42.2338C125.34 42.2237 125.966 42.3902 126.512 42.7149C127.025 43.0168 127.444 43.454 127.725 43.9787C128 44.5091 128.143 45.0976 128.143 45.6949C128.143 46.2922 128 46.8808 127.725 47.4112C127.444 47.9356 127.024 48.3728 126.512 48.675C125.966 48.9994 125.34 49.1656 124.705 49.1552C124.217 49.16 123.734 49.0645 123.285 48.8746C122.872 48.7021 122.501 48.4436 122.196 48.1164C121.901 47.7985 121.669 47.4277 121.512 47.0236V47.0236ZM123.288 47.3235C123.464 47.5264 123.682 47.6888 123.927 47.7997C124.172 47.9107 124.438 47.9675 124.706 47.9663C124.975 47.9651 125.24 47.9059 125.484 47.7928C125.728 47.6797 125.944 47.5153 126.118 47.3109C126.505 46.8745 126.698 46.3378 126.698 45.7008C126.698 45.0639 126.505 44.5283 126.118 44.0941C125.945 43.8876 125.728 43.722 125.483 43.6092C125.238 43.4965 124.971 43.4394 124.701 43.442C124.149 43.442 123.678 43.6624 123.291 44.1034C122.902 44.5503 122.695 45.127 122.71 45.7194C122.71 46.3608 122.903 46.8955 123.288 47.3235V47.3235Z" fill="#1D2362"/>
</svg>
