<svg width="22" height="22" viewBox="0 0 22 22" fill="none" xmlns="http://www.w3.org/2000/svg">
<path fill-rule="evenodd" clip-rule="evenodd" d="M11.7126 10.0157C11.8213 5.38736 13.1765 2.97561 15.4079 2.19027C15.8691 2.05567 16.0692 2.13978 16.1689 2.20861C16.3072 2.30402 16.4511 2.5082 16.5874 2.89468C16.6979 3.20791 16.7756 3.55286 16.8607 3.93048C16.8798 4.01539 16.8993 4.10195 16.9196 4.19018C17.0183 4.61852 17.1486 5.15134 17.3995 5.54428C17.641 5.92254 17.9798 6.2082 18.2473 6.42765L18.3508 6.51234C18.5957 6.71227 18.7887 6.86985 18.949 7.05568C19.1143 7.24724 19.2185 7.44231 19.2535 7.69175C19.2899 7.95176 19.2602 8.33664 19.0388 8.91593C18.8389 9.41982 18.2596 9.89054 16.9015 10.1185C15.6684 10.3255 13.9479 10.3007 11.7126 10.0157ZM18.5736 4.78434C18.4755 4.63076 18.3878 4.34381 18.2793 3.87268C18.2631 3.80235 18.2465 3.72837 18.2293 3.65168L18.2292 3.65102L18.2288 3.64962L18.2288 3.6495C18.1437 3.26994 18.0438 2.82423 17.9027 2.42422C17.7337 1.94538 17.4632 1.39811 16.9581 1.04948C16.4155 0.674985 15.7464 0.623516 14.9967 0.84717L14.9817 0.851638L14.967 0.856777C12.9078 1.57345 11.587 3.23692 10.8964 5.67498C10.7491 5.19982 10.5861 4.77269 10.4097 4.39014C9.75923 2.98004 8.89986 2.12675 7.92354 1.77101C6.94733 1.41531 5.98151 1.60374 5.21697 2.01789C4.46303 2.42629 3.84435 3.08434 3.53526 3.7866C3.20657 4.53339 2.7703 4.82457 2.24484 5.17529C2.1563 5.23438 2.06523 5.29517 1.97171 5.36011C1.64981 5.58365 1.27915 5.87723 1.02561 6.35101C0.769858 6.82894 0.675864 7.40665 0.729274 8.13107L0.730907 8.15322L0.733928 8.17523C0.840192 8.9495 1.17667 9.61572 1.73872 10.1448C2.2899 10.6637 3.02624 11.0216 3.89742 11.2534C4.24833 11.3468 4.62762 11.4214 5.03482 11.4778C4.85397 11.5628 4.67985 11.6508 4.51252 11.7416C2.94291 12.5938 1.90881 13.7416 1.60111 15.222L1.59615 15.2458L1.59284 15.27C1.49351 15.996 1.56524 16.6029 1.87321 17.0841C2.17907 17.562 2.63804 17.7869 3.00589 17.9264C3.15474 17.9829 3.31295 18.0337 3.45234 18.0785L3.45239 18.0785L3.54384 18.108C3.71331 18.163 3.85864 18.2133 3.99129 18.2722C4.2468 18.3857 4.41854 18.5154 4.53791 18.7148C4.80651 19.1635 5.36828 19.8179 6.05497 20.3313C6.72372 20.8314 7.66904 21.3149 8.66495 21.1265C9.72663 20.9256 10.5325 20.0339 11.0435 18.4949C11.1767 18.0937 11.294 17.6381 11.3933 17.1226C11.4798 17.3953 11.5709 17.6545 11.6667 17.9C12.3368 19.6173 13.3054 20.8303 14.6894 21.1514C15.5524 21.3517 16.2622 21.3342 16.8334 21.0519C17.4169 20.7636 17.7171 20.2676 17.9024 19.833C17.9943 19.6175 18.0668 19.3954 18.1286 19.2036L18.1414 19.1641C18.2009 18.9795 18.251 18.8238 18.3088 18.679C18.433 18.3672 18.5439 18.2366 18.6647 18.1716C19.0402 17.9694 19.6368 17.5926 20.1621 17.0858C20.672 16.5937 21.2149 15.8824 21.2798 15.0084C21.3494 14.0704 20.8588 13.1896 19.8159 12.4242C19.3135 12.0555 18.6639 11.6972 17.842 11.3518C19.0313 11.0332 19.9423 10.4345 20.3374 9.43103L20.3374 9.43104L20.3398 9.4249C20.6193 8.69511 20.7149 8.06116 20.6355 7.49519C20.5546 6.91816 20.3013 6.4801 20.0027 6.13408C19.7558 5.84789 19.4596 5.60712 19.2241 5.41579L19.2241 5.41577C19.1911 5.38895 19.1593 5.3631 19.129 5.33824C18.855 5.11342 18.681 4.95259 18.5736 4.78434ZM14.2339 11.6446C13.4805 11.6159 12.661 11.5471 11.7771 11.4398C12.02 14.021 12.4225 15.9936 12.9658 17.3861C13.5752 18.9479 14.2932 19.6173 15.0028 19.782C15.7101 19.9461 16.0524 19.8724 16.2184 19.7904C16.3723 19.7144 16.4944 19.5728 16.6198 19.2787C16.6832 19.1298 16.7381 18.9649 16.8011 18.7695L16.8165 18.7219C16.8726 18.5474 16.9371 18.3471 17.0134 18.1556C17.1796 17.7386 17.4506 17.2316 18.0064 16.9324C18.3075 16.7702 18.7894 16.4638 19.1963 16.0712C19.6185 15.6638 19.8615 15.2593 19.8879 14.9036C19.9096 14.612 19.7969 14.1493 18.9937 13.5598C18.175 12.9589 16.7293 12.303 14.3218 11.6739C14.2915 11.666 14.2622 11.6562 14.2339 11.6446ZM4.81136 4.35596C4.98335 3.96519 5.37109 3.53021 5.87828 3.25547C6.37486 2.98647 6.92488 2.90165 7.44857 3.09246C7.97215 3.28324 8.59675 3.79623 9.14374 4.98207C9.64631 6.07163 10.0615 7.68708 10.2614 10.0116C7.59715 10.3103 5.60978 10.2556 4.25414 9.89477C3.52825 9.70157 3.0243 9.4311 2.69197 9.11826C2.37546 8.82033 2.18615 8.45825 2.1196 8.00425C2.0829 7.46828 2.16412 7.18627 2.25439 7.01759C2.34815 6.84238 2.49585 6.7033 2.76419 6.51696C2.83231 6.46966 2.90706 6.42057 2.98686 6.36818C3.53026 6.0114 4.30728 5.50122 4.81136 4.35596ZM10.3653 11.4348C8.11315 11.7944 6.39399 12.3167 5.17501 12.9785C3.84783 13.6991 3.17566 14.547 2.9723 15.4863C2.90307 16.0176 2.98971 16.2342 3.0465 16.3229C3.10626 16.4163 3.21839 16.5053 3.49797 16.6113C3.61005 16.6539 3.72528 16.6909 3.86161 16.7348L3.97227 16.7705C4.14854 16.8278 4.35189 16.8964 4.55471 16.9865C4.97015 17.171 5.41654 17.4601 5.73336 17.9894C5.90094 18.2694 6.3349 18.7902 6.88714 19.2031C7.45732 19.6294 7.99411 19.8235 8.40717 19.7453C8.75444 19.6796 9.28434 19.3606 9.71968 18.0494C10.1451 16.768 10.4219 14.6857 10.3653 11.4348Z" fill="#002364"/>
</svg>
