<svg width="22" height="22" viewBox="0 0 22 22" fill="none" xmlns="http://www.w3.org/2000/svg">
<path d="M16.6043 17.0978C16.8685 16.8474 17.0006 16.543 17.0006 16.1846C17.0006 15.7849 16.8725 15.4725 16.6165 15.2474C16.3604 15.0223 15.9574 14.8362 15.4076 14.6892C15.1272 14.6111 14.9183 14.5456 14.7809 14.4928C14.6434 14.4399 14.5464 14.3848 14.4898 14.3274C14.4332 14.2699 14.4049 14.1976 14.4049 14.1103C14.4049 13.9862 14.4615 13.8909 14.5747 13.8243C14.6879 13.7577 14.8469 13.7243 15.0518 13.7243C15.4669 13.7243 15.8523 13.8484 16.2081 14.0965L16.855 13.4556C16.4938 13.1477 16.041 12.9571 15.4965 12.8836V11.8567H14.4857V12.8767C14.0221 12.941 13.6488 13.0903 13.3658 13.3246C13.0828 13.5589 12.9413 13.853 12.9413 14.2068C12.9413 14.5513 13.0652 14.8385 13.3132 15.0682C13.5612 15.2979 13.9871 15.4932 14.5909 15.654C14.8388 15.7183 15.0289 15.7792 15.1609 15.8366C15.293 15.8941 15.3847 15.9572 15.4359 16.0261C15.4871 16.0951 15.5127 16.1824 15.5127 16.288C15.5127 16.435 15.448 16.5522 15.3186 16.6395C15.1892 16.7268 15.0006 16.7704 14.7526 16.7704C14.2728 16.7704 13.8307 16.6211 13.4264 16.3225L12.7148 16.9841C12.9251 17.1633 13.1785 17.3114 13.4749 17.4286C13.7714 17.5457 14.1084 17.6181 14.4857 17.6457V18.7139H15.4965V17.6043C15.9709 17.517 16.3402 17.3482 16.6043 17.0978Z" fill="#002364"/>
<path fill-rule="evenodd" clip-rule="evenodd" d="M7.09908 0.713867C10.6018 0.713867 13.4833 1.79444 13.4833 3.55131V8.67502C13.9396 8.57149 14.4144 8.51682 14.902 8.51682C18.428 8.51682 21.2863 11.3751 21.2863 14.9011C21.2863 18.427 18.428 21.2853 14.902 21.2853C13.465 21.2853 12.1389 20.8105 11.0719 20.0092C9.96913 20.3737 8.57323 20.5759 7.09908 20.5759C3.59638 20.5759 0.714844 19.4954 0.714844 17.7385V3.55131C0.714844 1.79444 3.59638 0.713867 7.09908 0.713867ZM7.09908 6.38874C9.09559 6.38874 10.8903 6.03767 12.0646 5.4104V8.51682C12.0646 9.11057 9.86467 9.93554 7.09908 9.93554C4.33349 9.93554 2.13356 9.11057 2.13356 8.51682V5.4104C3.30787 6.03767 5.10257 6.38874 7.09908 6.38874ZM7.09908 4.97002C9.86467 4.97002 12.0646 4.14505 12.0646 3.55131C12.0646 2.95756 9.86467 2.13259 7.09908 2.13259C4.33348 2.13259 2.13356 2.95756 2.13356 3.55131C2.13356 4.14505 4.33348 4.97002 7.09908 4.97002ZM9.89652 18.8642C9.29851 18.1099 8.86738 17.2173 8.65891 16.2422C8.1544 16.2935 7.63127 16.3198 7.09908 16.3198C5.10257 16.3198 3.30787 15.9687 2.13356 15.3414V17.7385C2.13356 18.3322 4.33349 19.1572 7.09908 19.1572C8.11165 19.1572 9.07573 19.0524 9.89652 18.8642ZM8.51818 14.8305C8.53318 13.4454 8.98926 12.1661 9.75259 11.1265C8.94279 11.2757 8.04351 11.3543 7.09908 11.3543C5.10257 11.3543 3.30787 11.0032 2.13356 10.3759V13.4823C2.13356 14.0761 4.33349 14.9011 7.09908 14.9011C7.58472 14.9011 8.06092 14.8771 8.51818 14.8305ZM14.902 19.8666C12.1597 19.8666 9.93652 17.6434 9.93652 14.9011C9.93652 12.1587 12.1597 9.93554 14.902 9.93554C17.6444 9.93554 19.8675 12.1587 19.8675 14.9011C19.8675 17.6434 17.6444 19.8666 14.902 19.8666Z" fill="#002364"/>
</svg>
