<svg width="22" height="22" viewBox="0 0 22 22" fill="none" xmlns="http://www.w3.org/2000/svg">
<path fill-rule="evenodd" clip-rule="evenodd" d="M18.5326 21.2827L18.4708 21.2853H3.65362C2.03058 21.2853 0.714844 19.9696 0.714844 18.3465C0.714844 16.7235 2.03058 15.4077 3.65362 15.4077V3.65264C3.65362 2.0296 4.96935 0.713867 6.59239 0.713867H18.3475C19.9705 0.713867 21.2863 2.0296 21.2863 3.65264V18.3465C21.2863 19.8869 20.1011 21.1505 18.5929 21.2752L18.5326 21.2827ZM2.18423 18.3465C2.18423 19.158 2.8421 19.8159 3.65362 19.8159H15.8019L15.7132 19.6506C15.5183 19.2577 15.4087 18.8149 15.4087 18.3465L15.4027 18.2128C15.3352 17.4639 14.7058 16.8771 13.9393 16.8771H3.65362C2.8421 16.8771 2.18423 17.535 2.18423 18.3465ZM5.12301 15.4077V3.65264C5.12301 2.84112 5.78087 2.18325 6.59239 2.18325H18.3475C19.159 2.18325 19.8169 2.84112 19.8169 3.65264V18.3465C19.8169 19.158 19.159 19.8159 18.3475 19.8159C17.536 19.8159 16.8781 19.158 16.8781 18.3465C16.8781 16.7235 15.5624 15.4077 13.9393 15.4077H5.12301ZM16.1434 9.89754H8.79648C8.39072 9.89754 8.06178 9.56861 8.06178 9.16285C8.06178 8.75709 8.39072 8.42815 8.79648 8.42815H16.1434C16.5492 8.42815 16.8781 8.75709 16.8781 9.16285C16.8781 9.56861 16.5492 9.89754 16.1434 9.89754ZM8.79648 7.14244H16.1434C16.5492 7.14244 16.8781 6.8135 16.8781 6.40774C16.8781 6.00198 16.5492 5.67305 16.1434 5.67305H8.79648C8.39072 5.67305 8.06178 6.00198 8.06178 6.40774C8.06178 6.8135 8.39072 7.14244 8.79648 7.14244ZM13.2046 12.8363H8.79648C8.39072 12.8363 8.06178 12.5074 8.06178 12.1016C8.06178 11.6959 8.39072 11.3669 8.79648 11.3669H13.2046C13.6104 11.3669 13.9393 11.6959 13.9393 12.1016C13.9393 12.5074 13.6104 12.8363 13.2046 12.8363Z" fill="#002364"/>
</svg>
