<svg width="24" height="25" viewBox="0 0 24 25" fill="none" xmlns="http://www.w3.org/2000/svg">
<path fill-rule="evenodd" clip-rule="evenodd" d="M12 3.75726C9.57642 3.75726 7.7143 5.57728 7.7143 7.70012V8.90012H16.2857V7.70012C16.2857 5.57728 14.4236 3.75726 12 3.75726ZM6.85716 10.6144L6.85845 10.6144H17.1416L17.1429 10.6144L17.1442 10.6144H17.6104C18.3172 10.6144 18.8572 11.1697 18.8572 11.8144V20.043C18.8572 20.6877 18.3172 21.243 17.6104 21.243H6.38963C5.6828 21.243 5.14287 20.6877 5.14287 20.043V11.8144C5.14287 11.1697 5.6828 10.6144 6.38963 10.6144H6.85587L6.85716 10.6144ZM18 7.70012V8.92528C19.4378 9.11226 20.5714 10.3196 20.5714 11.8144V20.043C20.5714 21.6705 19.2275 22.9573 17.6104 22.9573H6.38963C4.77255 22.9573 3.42859 21.6705 3.42859 20.043V11.8144C3.42859 10.3196 4.56228 9.11226 6.00002 8.92528V7.70012C6.00002 4.52103 8.74297 2.04298 12 2.04298C15.2571 2.04298 18 4.52103 18 7.70012ZM12.8572 13.8716C12.8572 13.3982 12.4734 13.0144 12 13.0144C11.5266 13.0144 11.1429 13.3982 11.1429 13.8716V17.9859C11.1429 18.4593 11.5266 18.843 12 18.843C12.4734 18.843 12.8572 18.4593 12.8572 17.9859V13.8716Z" fill="#7F9398"/>
</svg>
