<svg width="24" height="25" viewBox="0 0 24 25" fill="none" xmlns="http://www.w3.org/2000/svg">
<path fill-rule="evenodd" clip-rule="evenodd" d="M12.0001 3.75725C9.57655 3.75725 7.71443 5.57727 7.71443 7.70011V8.90011H16.2859V7.70011C16.2859 5.57727 14.4237 3.75725 12.0001 3.75725ZM6.85728 10.6144L6.85857 10.6144H17.1417L17.143 10.6144L17.1443 10.6144H17.6105C18.3174 10.6144 18.8573 11.1697 18.8573 11.8144V20.043C18.8573 20.6877 18.3174 21.243 17.6105 21.243H6.38975C5.68293 21.243 5.143 20.6877 5.143 20.043V11.8144C5.143 11.1697 5.68293 10.6144 6.38975 10.6144H6.85599L6.85728 10.6144ZM18.0001 7.70011V8.92527C19.4379 9.11225 20.5716 10.3196 20.5716 11.8144V20.043C20.5716 21.6705 19.2276 22.9573 17.6105 22.9573H6.38975C4.77267 22.9573 3.42871 21.6705 3.42871 20.043V11.8144C3.42871 10.3196 4.5624 9.11225 6.00014 8.92527V7.70011C6.00014 4.52102 8.74309 2.04297 12.0001 2.04297C15.2572 2.04297 18.0001 4.52102 18.0001 7.70011ZM12.8573 13.8716C12.8573 13.3982 12.4735 13.0144 12.0001 13.0144C11.5268 13.0144 11.143 13.3982 11.143 13.8716V17.9859C11.143 18.4593 11.5268 18.843 12.0001 18.843C12.4735 18.843 12.8573 18.4593 12.8573 17.9859V13.8716Z" fill="#7F9398"/>
</svg>
