<svg width="24" height="25" viewBox="0 0 24 25" fill="none" xmlns="http://www.w3.org/2000/svg">
<path fill-rule="evenodd" clip-rule="evenodd" d="M14.4849 10.5792L14.9616 7.0044C14.9791 6.87302 14.9883 6.74088 14.9883 6.60873C14.9883 6.14202 14.8707 5.7051 14.679 5.31172L14.2863 5.11465C14.1771 5.06042 14.048 5.06653 13.9441 5.12993C13.2964 5.52865 12.6479 5.72878 11.9994 5.72878C11.3501 5.72878 10.7024 5.52865 10.0539 5.12993C9.94999 5.06653 9.8209 5.06042 9.71243 5.11465L9.30454 5.31936C9.05476 5.83801 8.95852 6.4193 9.03643 7.0044L9.51307 10.5784C9.67882 11.8197 10.7474 12.7562 11.9994 12.7562C13.2506 12.7562 14.3192 11.8197 14.4849 10.5792ZM11.9994 14.1616C10.0462 14.1616 8.37799 12.7019 8.11981 10.7648L7.64317 7.18925C7.48811 6.02592 7.79594 4.87251 8.50861 3.93985C9.22128 3.0072 10.2548 2.40834 11.4181 2.25328C11.6106 2.22807 11.8054 2.21432 11.9994 2.21432C14.4215 2.21432 16.3938 4.18581 16.3938 6.60873C16.3938 6.80351 16.38 6.99677 16.3548 7.19002L15.8782 10.7648C15.62 12.7012 13.9518 14.1616 11.9994 14.1616ZM21.2547 16.7709L21.5129 18.7095C21.5289 18.831 21.5373 18.9547 21.5373 19.08C21.5373 20.6306 20.277 21.8909 18.7271 21.8909H5.2712C5.14822 21.8909 5.02524 21.8833 4.90303 21.8672C3.36388 21.661 2.28074 20.2448 2.48469 18.7095L2.74363 16.7709C2.85897 15.9092 3.47845 15.2157 4.3225 15.0049L7.61239 14.1822C7.98896 14.089 8.37012 14.3166 8.46408 14.6932C8.55879 15.0698 8.32964 15.4517 7.95306 15.5457L4.66241 16.3691C4.38132 16.4386 4.17508 16.67 4.13689 16.9572L3.87871 18.8951C3.77635 19.6628 4.31792 20.3709 5.08635 20.474C5.14517 20.4816 5.20856 20.4854 5.2712 20.4854H18.7271C19.5017 20.4854 20.1318 19.8553 20.1318 19.08C20.1318 19.0189 20.1288 18.9578 20.1204 18.8974L19.8614 16.9565C19.8232 16.67 19.617 16.4386 19.3359 16.3691L16.0452 15.5457C15.6694 15.4517 15.4403 15.0698 15.5342 14.6932C15.6282 14.3166 16.0086 14.0882 16.3867 14.1822L19.6773 15.0049C20.5199 15.2157 21.1401 15.9092 21.2547 16.7709Z" fill="#7F9398"/>
</svg>
