<svg width="32" height="32" viewBox="0 0 32 32" fill="none" xmlns="http://www.w3.org/2000/svg">
<path fill-rule="evenodd" clip-rule="evenodd" d="M8.08872 5.94279C8.08872 4.9329 8.87592 4.11422 9.84697 4.11422H23.913C24.884 4.11422 25.6712 4.9329 25.6712 5.94279V26.0571C25.6712 27.067 24.884 27.8856 23.913 27.8856H9.84697C8.87592 27.8856 8.08872 27.067 8.08872 26.0571V25.1427H8.96789C9.45341 25.1427 9.84701 24.7333 9.84701 24.2284C9.84701 23.7234 9.45341 23.3141 8.96789 23.3141H8.08872V22.3999H8.96789C9.45341 22.3999 9.84701 21.9906 9.84701 21.4856C9.84701 20.9807 9.45341 20.5714 8.96789 20.5714H8.08872V11.4284H8.96789C9.45341 11.4284 9.84701 11.0191 9.84701 10.5141C9.84701 10.0092 9.45341 9.59982 8.96789 9.59982H8.08872V8.68564H8.96789C9.45341 8.68564 9.84701 8.2763 9.84701 7.77136C9.84701 7.26641 9.45341 6.85707 8.96789 6.85707H8.08872V5.94279ZM6.33048 23.3141V22.3999H5.45139C4.96586 22.3999 4.57227 21.9906 4.57227 21.4856C4.57227 20.9807 4.96586 20.5714 5.45139 20.5714H6.33048V11.4284H5.45139C4.96586 11.4284 4.57227 11.0191 4.57227 10.5141C4.57227 10.0092 4.96586 9.59982 5.45139 9.59982H6.33048V8.68564H5.45139C4.96586 8.68564 4.57227 8.2763 4.57227 7.77136C4.57227 7.26641 4.96586 6.85707 5.45139 6.85707H6.33048V5.94279C6.33048 3.923 7.90487 2.28564 9.84697 2.28564H23.913C25.8551 2.28564 27.4295 3.923 27.4295 5.94279V26.0571C27.4295 28.0769 25.8551 29.7142 23.913 29.7142H9.84697C7.90487 29.7142 6.33048 28.0769 6.33048 26.0571V25.1427H5.45139C4.96586 25.1427 4.57227 24.7333 4.57227 24.2284C4.57227 23.7234 4.96586 23.3141 5.45139 23.3141H6.33048ZM15.6221 12.8388L14.7603 11.6871C14.7439 11.6652 14.7262 11.6444 14.7074 11.6248C14.4557 11.3631 14.0477 11.3631 13.796 11.6248L13.0507 12.3999C12.4297 13.0458 12.3053 14.046 12.748 14.835C13.4551 16.0953 14.2043 17.1369 14.9956 17.9598C15.7868 18.7827 16.7884 19.5619 18.0002 20.2973C18.7589 20.7577 19.7206 20.6283 20.3416 19.9824L21.0869 19.2073C21.1058 19.1877 21.1234 19.1669 21.1398 19.145C21.3584 18.8529 21.3079 18.4319 21.027 18.2045L19.9196 17.3082C19.7007 17.1309 19.3972 17.1193 19.1664 17.2794L18.3124 17.8715C18.2295 17.9289 18.1258 17.9433 18.0314 17.9105C17.4533 17.7093 16.859 17.2913 16.2487 16.6566C15.6383 16.0218 15.2365 15.4038 15.043 14.8025C15.0114 14.7043 15.0252 14.5965 15.0805 14.5103L15.6498 13.6222C15.8037 13.3821 15.7926 13.0665 15.6221 12.8388Z" fill="white"/>
</svg>
