<svg width="14" height="14" viewBox="0 0 14 14" fill="none" xmlns="http://www.w3.org/2000/svg">
<path fill-rule="evenodd" clip-rule="evenodd" d="M7.55854 1.27177C7.55854 0.963649 7.30876 0.713867 7.00064 0.713867C6.69251 0.713867 6.44273 0.963649 6.44273 1.27177V6.4417H1.27275C0.964626 6.4417 0.714844 6.69148 0.714844 6.9996C0.714844 7.30772 0.964626 7.55751 1.27275 7.55751H6.44273V12.7274C6.44273 13.0355 6.69251 13.2853 7.00064 13.2853C7.30876 13.2853 7.55854 13.0355 7.55854 12.7274V7.55751H12.7284C13.0365 7.55751 13.2863 7.30772 13.2863 6.9996C13.2863 6.69148 13.0365 6.4417 12.7284 6.4417H7.55854V1.27177Z" fill="#002364"/>
</svg>
