<svg width="24" height="24" viewBox="0 0 24 24" fill="none" xmlns="http://www.w3.org/2000/svg">
<g opacity="0.1">
<circle cx="12" cy="12" r="12" fill="#002364"/>
</g>
<path fill-rule="evenodd" clip-rule="evenodd" d="M5.87757 6.49005C5.87757 6.15192 6.15168 5.87781 6.48981 5.87781H9.55103C9.88917 5.87781 10.1633 6.15192 10.1633 6.49005V9.55128C10.1633 9.88941 9.88917 10.1635 9.55103 10.1635H6.48981C6.15168 10.1635 5.87757 9.88941 5.87757 9.55128V6.49005ZM6.48981 4.65332C5.47541 4.65332 4.65308 5.47565 4.65308 6.49005V9.55128C4.65308 10.5657 5.47541 11.388 6.48981 11.388H9.55103C10.5654 11.388 11.3878 10.5657 11.3878 9.55128V6.49005C11.3878 5.47565 10.5654 4.65332 9.55103 4.65332H6.48981ZM13.8368 6.49005C13.8368 6.15192 14.1109 5.87781 14.449 5.87781H17.5102C17.8484 5.87781 18.1225 6.15192 18.1225 6.49005V9.55128C18.1225 9.88941 17.8484 10.1635 17.5102 10.1635H14.449C14.1109 10.1635 13.8368 9.88941 13.8368 9.55128V6.49005ZM14.449 4.65332C13.4346 4.65332 12.6123 5.47565 12.6123 6.49005V9.55128C12.6123 10.5657 13.4346 11.388 14.449 11.388H17.5102C18.5246 11.388 19.347 10.5657 19.347 9.55128V6.49005C19.347 5.47565 18.5246 4.65332 17.5102 4.65332H14.449ZM14.449 13.837C14.1109 13.837 13.8368 14.1111 13.8368 14.4493V17.5105C13.8368 17.8486 14.1109 18.1227 14.449 18.1227H17.5102C17.8484 18.1227 18.1225 17.8486 18.1225 17.5105V14.4493C18.1225 14.1111 17.8484 13.837 17.5102 13.837H14.449ZM12.6123 14.4493C12.6123 13.4349 13.4346 12.6125 14.449 12.6125H17.5102C18.5246 12.6125 19.347 13.4349 19.347 14.4493V17.5105C19.347 18.5249 18.5246 19.3472 17.5102 19.3472H14.449C13.4346 19.3472 12.6123 18.5249 12.6123 17.5105V14.4493ZM5.87757 14.4493C5.87757 14.1111 6.15168 13.837 6.48981 13.837H9.55103C9.88916 13.837 10.1633 14.1111 10.1633 14.4493V17.5105C10.1633 17.8486 9.88916 18.1227 9.55103 18.1227H6.48981C6.15168 18.1227 5.87757 17.8486 5.87757 17.5105V14.4493ZM6.48981 12.6125C5.47541 12.6125 4.65308 13.4349 4.65308 14.4493V17.5105C4.65308 18.5249 5.47541 19.3472 6.48981 19.3472H9.55103C10.5654 19.3472 11.3878 18.5249 11.3878 17.5105V14.4493C11.3878 13.4349 10.5654 12.6125 9.55103 12.6125H6.48981Z" fill="#002364"/>
</svg>
