<svg width="32" height="32" viewBox="0 0 32 32" fill="none" xmlns="http://www.w3.org/2000/svg">
<path fill-rule="evenodd" clip-rule="evenodd" d="M10.3374 21.5437C9.58724 21.5972 9.23189 21.6225 8.6046 20.9927C7.4618 19.8452 7.13172 18.0672 6.81602 16.3667C6.73529 15.9319 6.6555 15.5021 6.56331 15.0893C6.3488 14.1304 5.46902 12.835 4.56542 11.5046C3.95165 10.6009 3.32689 9.68105 2.89215 8.83943C2.59491 8.26465 3.01223 7.59931 3.69528 7.95757C3.82812 8.02775 4.70294 9.08963 5.44865 9.99479L5.44865 9.9948L5.44869 9.99484L5.44872 9.99488L5.44881 9.99499L5.44885 9.99504C5.87438 10.5116 6.25783 10.977 6.43733 11.178C6.46942 11.2137 6.50728 11.2615 6.55039 11.316C6.78761 11.616 7.18379 12.1169 7.65187 11.9004C7.6677 11.8815 7.67883 11.8769 7.68816 11.8731C7.70898 11.8646 7.72085 11.8597 7.7562 11.7075C7.83274 11.3717 7.4773 10.5687 7.29444 10.1555C7.27037 10.1011 7.2493 10.0535 7.23259 10.0146L5.60271 6.34934C5.57934 6.29709 5.55148 6.23795 5.52115 6.17358C5.27041 5.64137 4.85074 4.75061 5.40389 4.42223C6.12081 3.99708 6.41691 4.62962 6.66896 5.16805C6.71449 5.26532 6.75859 5.35952 6.80346 5.44385L8.60263 8.93786C8.68954 9.10143 8.76629 9.26149 8.83865 9.41243L8.83866 9.41243L8.83866 9.41244L8.83866 9.41244C9.11378 9.98624 9.32559 10.428 9.79157 10.428C9.98055 9.70162 9.54158 4.93599 9.41166 3.64272C9.40502 3.5766 9.39686 3.51182 9.38888 3.44848C9.34959 3.13656 9.31467 2.85934 9.48646 2.627C9.63804 2.42031 9.96283 2.20772 10.2994 2.31402C10.8638 2.49344 10.9565 3.0983 11.0509 3.71394L11.0509 3.71398C11.0631 3.79402 11.0754 3.87424 11.0888 3.95374C11.1309 4.20179 11.1962 4.63561 11.2755 5.1628C11.5518 6.99929 11.9985 9.96888 12.2325 10.1662C12.7768 10.6232 12.9371 9.5411 13.0201 8.98057L13.0201 8.98054L13.0201 8.98049C13.0326 8.89647 13.0433 8.82417 13.0533 8.77054L13.8505 4.71553C13.8895 4.51898 13.9187 4.33321 13.9457 4.16146L13.9457 4.16142C14.0522 3.48348 14.1243 3.02412 14.63 2.98329C15.5867 2.90652 15.5375 3.7254 15.4784 4.52459L15.1832 9.13273C15.1689 9.44301 15.1658 9.77823 15.1627 10.116V10.116C15.1581 10.616 15.1534 11.1216 15.1123 11.5598C14.3564 11.8728 13.071 12.3748 12.2246 12.4358C11.1163 12.5145 10.1774 12.9338 10.1223 14.0854C10.0691 15.1857 10.9923 15.8648 11.7955 16.1837C12.7092 16.5468 13.4846 16.5027 14.3767 16.4519L14.3768 16.4519C14.6647 16.4355 14.9647 16.4184 15.2855 16.414C15.0694 17.1958 14.3595 18.1923 13.8903 18.8509L13.8903 18.851C13.8337 18.9303 13.7807 19.0048 13.7324 19.0734C13.4214 19.5163 13.1242 19.9139 12.8309 20.3037C12.7485 20.4128 12.6546 20.5306 12.5581 20.6517L12.558 20.6517L12.558 20.6518C12.3202 20.9501 12.0665 21.2685 11.9293 21.5261C11.2279 21.4802 10.7289 21.5158 10.3374 21.5437ZM14.628 15.1109C13.8308 15.17 11.3663 15.2802 11.4844 14.0224C11.7599 13.7905 12.0839 13.7733 12.4317 13.7548C12.6654 13.7424 12.9099 13.7295 13.1576 13.6503C13.3302 13.5946 13.5107 13.5375 13.6934 13.4797L13.6935 13.4797L13.6936 13.4796C14.0401 13.37 14.3944 13.2579 14.7166 13.1484C15.495 12.8851 16.2518 12.4995 17.0458 12.0949C18.0448 11.5859 19.1027 11.0469 20.3365 10.6839C20.9054 10.5166 21.6495 10.4772 22.2518 10.5717C22.836 10.6649 23.0656 10.9086 23.326 11.1852C23.3736 11.2357 23.4222 11.2874 23.4742 11.3394C24.298 12.1673 24.5721 12.3105 25.066 12.5685C25.2802 12.6804 25.5358 12.8139 25.8954 13.0342C26.7045 13.5322 26.6454 15.2153 26.4072 16.166C26.0778 17.4847 25.7186 18.3042 25.4062 19.017C24.9683 20.0162 24.6222 20.8058 24.5785 22.467C24.5626 23.0751 24.5722 23.6773 24.5818 24.2806V24.2807C24.5935 25.0171 24.6053 25.7552 24.5707 26.5083C24.5667 26.5914 24.5651 26.6807 24.5634 26.773C24.5537 27.3187 24.542 27.9685 24.0234 28.0594C23.3458 28.1769 23.2832 27.5663 23.2251 26.9996C23.2209 26.9589 23.2168 26.9183 23.2124 26.8783C23.168 26.4661 23.1257 26.0436 23.0831 25.6186C23.0032 24.8199 22.9223 24.0123 22.8246 23.2465C22.7656 22.784 22.4054 21.7328 21.9546 22.4434C21.6917 22.8584 21.2456 25.6586 21.0372 26.967L21.0371 26.9671V26.9671C20.9974 27.2166 20.9663 27.4118 20.9467 27.526C20.9269 27.643 20.9085 27.7741 20.889 27.9125L20.8889 27.9127L20.8889 27.913L20.8889 27.9131L20.8889 27.9132V27.9132L20.8889 27.9132C20.7805 28.6819 20.6409 29.6729 20.0688 29.7129C19.7932 29.7326 19.5157 29.6125 19.3976 29.455C19.1685 29.1512 19.3677 27.7221 19.5785 26.2096C19.8061 24.5761 20.0473 22.8454 19.7775 22.3292C19.4397 22.3657 19.3053 22.6124 19.1469 22.9031L19.1469 22.9032C19.117 22.958 19.0862 23.0145 19.0531 23.0714L16.4528 27.6756C16.4059 27.7633 16.3592 27.8595 16.311 27.9588L16.311 27.9589C16.0315 28.535 15.7012 29.2158 14.9843 28.9472C14.6556 28.8251 14.4469 28.394 14.5611 27.9256L16.7933 22.9434C16.8371 22.853 16.8884 22.7546 16.9425 22.6509C17.2285 22.1022 17.5928 21.4035 17.3445 20.9316C16.8505 20.8691 16.4977 21.2848 16.2178 21.6145C16.1542 21.6894 16.0943 21.76 16.0374 21.8194C15.9006 21.9614 15.7679 22.0963 15.637 22.2293L15.6369 22.2294C15.4195 22.4503 15.2069 22.6662 14.9882 22.9021C14.5841 23.3369 14.1779 23.737 13.7695 24.1394L13.7694 24.1395L13.7694 24.1395L13.7694 24.1395L13.7694 24.1395L13.7693 24.1396C13.4696 24.4348 13.1686 24.7314 12.8663 25.0437C12.8301 25.0811 12.7871 25.1315 12.738 25.1891C12.4793 25.4921 12.0508 25.9941 11.5612 25.8469C10.9824 25.6736 10.8742 25.0221 11.2856 24.4926C11.5491 24.1525 11.814 23.8136 12.079 23.4744L12.0791 23.4743L12.0795 23.4737C13.0693 22.207 14.0611 20.9377 14.9941 19.601L15.0213 19.5621C15.6193 18.7056 16.115 17.9959 16.5571 16.8983C17.3386 14.9554 16.191 14.9928 14.628 15.1109ZM27.3974 14.8216L27.3305 15.8314C27.316 15.916 27.2921 16.0018 27.2694 16.0832L27.2694 16.0833C27.252 16.1458 27.2353 16.2058 27.2242 16.2605C27.207 16.347 27.191 16.4018 27.1802 16.439C27.1687 16.4785 27.163 16.4982 27.1676 16.5151C27.1722 16.5319 27.1871 16.5459 27.217 16.5739C27.2356 16.5913 27.2599 16.6141 27.2911 16.6463C28.1159 17.3727 28.0824 12.796 27.1868 12.796C26.8537 12.796 26.9383 13.0213 27.0885 13.421C27.2188 13.7676 27.3983 14.2456 27.3974 14.8216ZM6.70304 20.4631C6.96878 21.1009 7.43728 21.7308 7.93923 22.1698C8.00748 22.23 8.22873 22.3685 8.43417 22.4971L8.43421 22.4972L8.43422 22.4972C8.6317 22.6208 8.81458 22.7353 8.83291 22.7623C9.17345 23.2682 8.33292 23.3312 7.30342 22.2918C7.05933 22.0478 6.29557 20.9769 6.1755 20.4828C6.0633 20.0262 6.4314 19.8077 6.70304 20.4631ZM28.4427 17.0124C29.4407 16.9967 29.3659 13.3866 28.7576 13.107C28.3891 12.9376 28.427 13.1026 28.5259 13.534C28.6442 14.0497 28.8498 14.9462 28.5529 16.107C28.5176 16.2452 28.472 16.3554 28.4327 16.4507C28.3449 16.6633 28.2877 16.8018 28.4427 17.0124ZM7.3531 23.3126C7.5203 23.4179 7.57331 23.4513 7.4668 23.7603C6.5869 24.0103 4.83104 21.4178 5.09678 20.5832C5.46608 20.4581 5.53817 20.6854 5.66811 21.0951C5.83877 21.6332 6.10921 22.4859 7.28373 23.2682C7.30865 23.2847 7.3318 23.2992 7.3531 23.3126Z" fill="#002364"/>
</svg>
