<svg width="32" height="32" viewBox="0 0 32 32" fill="none" xmlns="http://www.w3.org/2000/svg">
<path fill-rule="evenodd" clip-rule="evenodd" d="M10.3372 21.544C9.58711 21.5974 9.23177 21.6228 8.60448 20.9929C7.46168 19.8454 7.1316 18.0675 6.81589 16.3669C6.73517 15.9321 6.65538 15.5024 6.56319 15.0895C6.34867 14.1306 5.4689 12.8353 4.5653 11.5049C3.95153 10.6012 3.32677 9.68129 2.89203 8.83968C2.59479 8.26489 3.0121 7.59955 3.69516 7.95781C3.828 8.02799 4.70282 9.08988 5.44853 9.99504L5.44853 9.99504L5.44857 9.99508L5.4486 9.99512L5.44869 9.99523L5.44873 9.99529C5.87426 10.5118 6.25771 10.9772 6.43721 11.1782C6.4693 11.2139 6.50716 11.2618 6.55026 11.3163C6.78748 11.6162 7.18367 12.1172 7.65175 11.9006C7.66758 11.8817 7.67871 11.8772 7.68803 11.8734C7.70885 11.8648 7.72073 11.86 7.75607 11.7077C7.83261 11.372 7.47718 10.5689 7.29431 10.1557C7.27025 10.1014 7.24917 10.0538 7.23246 10.0148L5.60259 6.34959C5.57922 6.29733 5.55136 6.2382 5.52103 6.17382C5.27029 5.64161 4.85062 4.75085 5.40377 4.42247C6.12069 3.99732 6.41679 4.62987 6.66884 5.1683C6.71437 5.26557 6.75846 5.35976 6.80334 5.4441L8.60251 8.9381C8.68942 9.10167 8.76617 9.26174 8.83853 9.41267L8.83854 9.41268L8.83854 9.41268L8.83854 9.41269C9.11366 9.98648 9.32546 10.4282 9.79145 10.4282C9.98042 9.70186 9.54146 4.93624 9.41154 3.64297C9.4049 3.57684 9.39674 3.51207 9.38876 3.44872C9.34946 3.1368 9.31454 2.85958 9.48634 2.62724C9.63791 2.42056 9.96271 2.20796 10.2993 2.31426C10.8637 2.49368 10.9564 3.09855 11.0507 3.71418L11.0507 3.71423C11.063 3.79427 11.0753 3.87449 11.0887 3.95398C11.1308 4.20204 11.1961 4.63586 11.2754 5.16305C11.5516 6.99954 11.9983 9.96912 12.2323 10.1664C12.7767 10.6235 12.937 9.54134 13.02 8.98081L13.02 8.98079L13.02 8.98073C13.0325 8.89671 13.0432 8.82441 13.0532 8.77078L13.8504 4.71577C13.8894 4.51922 13.9186 4.33345 13.9455 4.16171L13.9456 4.16166C14.052 3.48373 14.1242 3.02437 14.6299 2.98353C15.5866 2.90676 15.5374 3.72564 15.4783 4.52483L15.183 9.13298C15.1688 9.44325 15.1657 9.77848 15.1626 10.1162V10.1162C15.158 10.6163 15.1533 11.1218 15.1122 11.5601C14.3563 11.8731 13.0709 12.375 12.2245 12.436C11.1162 12.5148 10.1773 12.9341 10.1222 14.0856C10.069 15.186 10.9922 15.8651 11.7953 16.184C12.7091 16.5471 13.4845 16.5029 14.3766 16.4521L14.3766 16.4521C14.6645 16.4357 14.9646 16.4186 15.2854 16.4143C15.0693 17.196 14.3594 18.1925 13.8902 18.8512L13.8902 18.8512C13.8336 18.9306 13.7806 19.0051 13.7323 19.0737C13.4213 19.5166 13.124 19.9142 12.8307 20.3039C12.7484 20.413 12.6545 20.5308 12.558 20.6519L12.5579 20.652L12.5579 20.652C12.3201 20.9504 12.0664 21.2687 11.9292 21.5264C11.2278 21.4804 10.7287 21.516 10.3372 21.544ZM14.6279 15.1112C13.8307 15.1702 11.3662 15.2805 11.4843 14.0226C11.7597 13.7907 12.0838 13.7735 12.4315 13.7551C12.6653 13.7427 12.9098 13.7297 13.1575 13.6506C13.33 13.5949 13.5106 13.5377 13.6933 13.4799L13.6934 13.4799L13.6935 13.4799C14.04 13.3703 14.3943 13.2582 14.7165 13.1486C15.4949 12.8854 16.2517 12.4998 17.0457 12.0952C18.0447 11.5862 19.1026 11.0472 20.3364 10.6841C20.9053 10.5168 21.6494 10.4774 22.2517 10.5719C22.8359 10.6651 23.0654 10.9089 23.3259 11.1854C23.3735 11.236 23.4221 11.2876 23.4741 11.3396C24.2979 12.1675 24.572 12.3107 25.0659 12.5687C25.2801 12.6806 25.5356 12.8141 25.8953 13.0345C26.7043 13.5325 26.6453 15.2155 26.4071 16.1663C26.0776 17.485 25.7185 18.3045 25.4061 19.0173C24.9681 20.0164 24.6221 20.806 24.5784 22.4673C24.5625 23.0754 24.5721 23.6775 24.5817 24.2808V24.281C24.5934 25.0173 24.6052 25.7555 24.5705 26.5085C24.5666 26.5916 24.565 26.6809 24.5633 26.7732C24.5535 27.319 24.5419 27.9687 24.0233 28.0597C23.3457 28.1772 23.2831 27.5666 23.225 26.9999C23.2208 26.9591 23.2167 26.9186 23.2123 26.8786C23.1679 26.4663 23.1256 26.0439 23.083 25.6189C23.003 24.8202 22.9222 24.0125 22.8245 23.2468C22.7655 22.7842 22.4052 21.733 21.9545 22.4437C21.6916 22.8586 21.2455 25.6588 21.037 26.9673L21.037 26.9673V26.9673C20.9973 27.2168 20.9662 27.4121 20.9466 27.5262C20.9268 27.6433 20.9083 27.7744 20.8888 27.9127L20.8888 27.913L20.8888 27.9132L20.8887 27.9134L20.8887 27.9134V27.9134L20.8887 27.9135C20.7804 28.6822 20.6407 29.6731 20.0687 29.7132C19.7931 29.7328 19.5156 29.6128 19.3975 29.4553C19.1684 29.1515 19.3676 27.7224 19.5784 26.2098C19.806 24.5764 20.0472 22.8456 19.7774 22.3295C19.4396 22.3659 19.3051 22.6127 19.1468 22.9034L19.1467 22.9034C19.1168 22.9583 19.0861 23.0147 19.053 23.0716L16.4526 27.6758C16.4057 27.7635 16.3591 27.8598 16.3109 27.9591L16.3109 27.9591C16.0313 28.5353 15.7011 29.2161 14.9842 28.9474C14.6555 28.8254 14.4468 28.3943 14.561 27.9258L16.7932 22.9436C16.837 22.8532 16.8883 22.7549 16.9423 22.6512C17.2284 22.1025 17.5927 21.4037 17.3444 20.9319C16.8504 20.8693 16.4976 21.285 16.2177 21.6147C16.1541 21.6897 16.0942 21.7602 16.0373 21.8197C15.9004 21.9617 15.7678 22.0965 15.6368 22.2295L15.6367 22.2296C15.4193 22.4505 15.2068 22.6664 14.9881 22.9023C14.5839 23.3371 14.1778 23.7373 13.7693 24.1397L13.7693 24.1397L13.7693 24.1397L13.7693 24.1397L13.7693 24.1397L13.7692 24.1398C13.4695 24.4351 13.1685 24.7316 12.8661 25.044C12.83 25.0814 12.787 25.1318 12.7378 25.1893C12.4792 25.4924 12.0507 25.9943 11.561 25.8471C10.9823 25.6739 10.8741 25.0223 11.2855 24.4928C11.549 24.1528 11.8139 23.8138 12.0789 23.4747L12.079 23.4745L12.0794 23.474C13.0692 22.2072 14.061 20.9379 14.994 19.6012L15.0212 19.5623C15.6192 18.7059 16.1148 17.9961 16.557 16.8985C17.3385 14.9557 16.1908 14.9931 14.6279 15.1112ZM27.3973 14.8218L27.3304 15.8316C27.3159 15.9162 27.292 16.0021 27.2693 16.0835L27.2693 16.0835C27.2519 16.1461 27.2352 16.206 27.2241 16.2607C27.2069 16.3473 27.1909 16.4021 27.1801 16.4393C27.1686 16.4787 27.1628 16.4984 27.1675 16.5153C27.1721 16.5322 27.187 16.5462 27.2169 16.5742C27.2355 16.5916 27.2598 16.6143 27.291 16.6466C28.1158 17.3729 28.0823 12.7963 27.1867 12.7963C26.8536 12.7963 26.9382 13.0215 27.0884 13.4212C27.2186 13.7679 27.3982 14.2458 27.3973 14.8218ZM6.70292 20.4634C6.96866 21.1012 7.43715 21.7311 7.93911 22.17C8.00736 22.2303 8.2286 22.3688 8.43405 22.4974L8.43408 22.4974L8.4341 22.4974C8.63158 22.621 8.81446 22.7355 8.83279 22.7625C9.17333 23.2684 8.3328 23.3314 7.3033 22.2921C7.05921 22.048 6.29545 20.9772 6.17538 20.4831C6.06317 20.0264 6.43128 19.8079 6.70292 20.4634ZM28.4425 17.0127C29.4405 16.9969 29.3657 13.3868 28.7575 13.1073C28.389 12.9378 28.4268 13.1028 28.5258 13.5343C28.6441 14.05 28.8497 14.9464 28.5528 16.1072C28.5174 16.2455 28.4719 16.3557 28.4326 16.451C28.3448 16.6636 28.2876 16.802 28.4425 17.0127ZM7.35297 23.3129C7.52017 23.4181 7.57319 23.4515 7.46668 23.7605C6.58678 24.0105 4.83092 21.4181 5.09666 20.5835C5.46596 20.4584 5.53805 20.6857 5.66799 21.0954C5.83865 21.6335 6.10908 22.4862 7.28361 23.2684C7.30852 23.2849 7.33168 23.2995 7.35297 23.3129Z" fill="white"/>
</svg>
