<svg width="24" height="24" viewBox="0 0 24 24" fill="none" xmlns="http://www.w3.org/2000/svg">
<path fill-rule="evenodd" clip-rule="evenodd" d="M24 12C24 5.37258 18.6274 0 12 0C5.37258 0 0 5.37258 0 12C0 18.6274 5.37258 24 12 24C18.6274 24 24 18.6274 24 12ZM22.4 12C22.4 17.7438 17.7438 22.4 12 22.4C6.25624 22.4 1.6 17.7438 1.6 12C1.6 6.25624 6.25624 1.6 12 1.6C17.7438 1.6 22.4 6.25624 22.4 12ZM11.5 6C11.9418 6 12.3 6.35817 12.3 6.8V11.5496L16.9886 15.1666C17.3385 15.4364 17.4033 15.9388 17.1334 16.2886C16.8636 16.6385 16.3612 16.7033 16.0114 16.4334L11.0425 12.6003C10.8265 12.4337 10.7 12.1763 10.7 11.9035V6.8C10.7 6.35817 11.0582 6 11.5 6Z" fill="#002364"/>
</svg>
