<svg width="24" height="25" viewBox="0 0 24 25" fill="none" xmlns="http://www.w3.org/2000/svg">
<path fill-rule="evenodd" clip-rule="evenodd" d="M21.1195 4.84714L22.5343 5.01236L21.8983 6.28687C21.5882 6.90839 21.2778 7.52992 20.967 8.15145C20.9302 8.28308 20.8654 8.39849 20.7697 8.54874C20.7296 8.61152 20.5929 8.81122 20.5865 8.82081C20.5504 8.87495 20.5237 8.91764 20.5045 8.95185V11.3404C20.5045 17.4524 14.5895 21.3363 9.00354 21.3363C7.86051 21.3363 6.99207 21.2815 5.99765 21.0645C4.36115 20.7074 3.14327 19.9975 2.58597 18.7569L2.01221 17.4795L3.40659 17.3513C4.66801 17.2353 5.76169 16.995 6.60159 16.6732C4.29577 16.3024 3.0036 15.2897 3.0036 13.3878V12.3878H4.0036C4.22331 12.3878 4.42143 12.3699 4.59854 12.3372C2.868 11.3025 2.00122 9.64266 2.00122 7.34039C2.00103 7.24226 2.00103 7.24226 2.00044 7.13734C1.99394 5.97689 2.05627 5.35683 2.37395 4.56546C2.57754 4.05828 2.87183 3.58875 3.2679 3.15854L4.02251 2.33887L4.75617 3.17733C7.17394 5.94047 9.56395 7.61682 12.0042 7.81959C12.0146 5.26991 13.9415 3.34039 16.5043 3.34039C17.6991 3.34039 18.7828 3.79388 19.6345 4.61159C20.1006 4.70738 20.5957 4.78596 21.1195 4.84714ZM18.9086 6.50088L18.6021 6.43147L18.3904 6.19914C17.8785 5.63742 17.2359 5.34039 16.5043 5.34039C15.0414 5.34039 14.0041 6.38277 14.0041 7.84039C14.0041 8.0786 13.998 8.22829 13.9683 8.42502C13.8499 9.21003 13.4096 9.84039 12.5041 9.84039C9.50607 9.84039 6.80136 8.23429 4.16389 5.49115C4.02793 5.90448 3.99595 6.32934 4.00041 7.12614C4.00102 7.2327 4.00102 7.2327 4.00122 7.34039C4.00122 9.3884 4.83094 10.5086 6.79547 11.1331L7.49256 11.3546V12.0861C7.49256 12.9731 6.65222 13.808 5.42269 14.182C5.98631 14.6096 7.139 14.8404 9.0039 14.8404H10.0039V15.8404C10.0039 17.2731 8.35762 18.3949 5.87075 18.9807C6.68178 19.2292 7.76166 19.3363 9.00354 19.3363C13.618 19.3363 18.5045 16.1277 18.5045 11.3404V8.84039C18.5045 8.54661 18.5897 8.2916 18.7311 8.02646C18.7865 7.92279 18.8474 7.82396 18.9225 7.71124C18.9367 7.69002 18.9892 7.61313 19.0309 7.55166L19.1101 7.39316C19.2386 7.13632 19.3669 6.87948 19.4953 6.62264C19.2958 6.58486 19.1003 6.54428 18.9086 6.50088Z" fill="white"/>
</svg>
