<svg width="28" height="28" viewBox="0 0 28 28" fill="none" xmlns="http://www.w3.org/2000/svg">
<path fill-rule="evenodd" clip-rule="evenodd" d="M26 14C26 7.37258 20.6274 2 14 2C7.37258 2 2 7.37258 2 14C2 20.6274 7.37258 26 14 26C20.6274 26 26 20.6274 26 14ZM24.4 14C24.4 19.7438 19.7438 24.4 14 24.4C8.25624 24.4 3.6 19.7438 3.6 14C3.6 8.25624 8.25624 3.6 14 3.6C19.7438 3.6 24.4 8.25624 24.4 14ZM13.5 8C13.9418 8 14.3 8.35817 14.3 8.8V13.5496L18.9886 17.1666C19.3385 17.4364 19.4033 17.9388 19.1334 18.2886C18.8636 18.6385 18.3612 18.7033 18.0114 18.4334L13.0425 14.6003C12.8265 14.4337 12.7 14.1763 12.7 13.9035V8.8C12.7 8.35817 13.0582 8 13.5 8Z" fill="#005FC8"/>
</svg>
