<svg width="24" height="24" viewBox="0 0 24 24" fill="none" xmlns="http://www.w3.org/2000/svg">
<path fill-rule="evenodd" clip-rule="evenodd" d="M19.3466 20.7022C20.1575 20.7022 20.8169 20.0428 20.8169 19.2328V9.68178C20.8169 8.87178 20.1575 8.2124 19.3466 8.2124H4.6527C3.8427 8.2124 3.18331 8.87178 3.18331 9.68178V10.4156V19.2328C3.18331 20.0428 3.8427 20.7022 4.6527 20.7022H19.3466ZM16.2039 3.21005L4.24954 6.62546C4.0576 6.68056 3.89321 6.78158 3.74352 6.90189C4.03188 6.80729 4.33403 6.74301 4.6527 6.74301H17.1434V3.91536C17.1434 3.44331 16.6888 3.07138 16.2039 3.21005ZM18.6128 6.74301H19.3466C20.9675 6.74301 22.2863 8.06087 22.2863 9.68178V19.2328C22.2863 20.8537 20.9675 22.1707 19.3466 22.1707H4.6527C3.0327 22.1707 1.71484 20.8537 1.71484 19.2328V10.4156V9.68178V8.03882C1.71484 6.73291 2.59097 5.57117 3.84637 5.21209L15.8035 1.79576C17.2196 1.39903 18.6119 2.49831 18.6128 3.91536V6.74301ZM16.4081 14.0898C16.4081 13.2788 17.0665 12.6204 17.8775 12.6204C18.6893 12.6204 19.3469 13.2788 19.3469 14.0898C19.3469 14.9007 18.6893 15.5592 17.8775 15.5592C17.0665 15.5592 16.4081 14.9007 16.4081 14.0898Z" fill="#002364"/>
</svg>
