<svg width="16" height="17" viewBox="0 0 16 17" fill="none" xmlns="http://www.w3.org/2000/svg">
<path fill-rule="evenodd" clip-rule="evenodd" d="M14.8574 8.49997C14.8574 12.2871 11.7873 15.3571 8.00021 15.3571C4.21311 15.3571 1.14307 12.2871 1.14307 8.49997C1.14307 4.71288 4.21311 1.64283 8.00021 1.64283C11.7873 1.64283 14.8574 4.71288 14.8574 8.49997ZM13.9431 8.49997C13.9431 5.21782 11.2824 2.55712 8.00021 2.55712C4.71806 2.55712 2.05735 5.21782 2.05735 8.49997C2.05735 11.7821 4.71806 14.4428 8.00021 14.4428C11.2824 14.4428 13.9431 11.7821 13.9431 8.49997ZM7.54307 12.0428V11.2428C7.54307 10.9904 7.74774 10.7857 8.00021 10.7857C8.25268 10.7857 8.45735 10.9904 8.45735 11.2428V12.0428C8.45735 12.2953 8.25268 12.5 8.00021 12.5C7.74774 12.5 7.54307 12.2953 7.54307 12.0428ZM7.54307 9.75712V4.95712C7.54307 4.70464 7.74774 4.49997 8.00021 4.49997C8.25268 4.49997 8.45735 4.70464 8.45735 4.95712V9.75712C8.45735 10.0096 8.25268 10.2143 8.00021 10.2143C7.74774 10.2143 7.54307 10.0096 7.54307 9.75712Z" fill="#7F9398"/>
</svg>
