<svg width="40" height="41" viewBox="0 0 40 41" fill="none" xmlns="http://www.w3.org/2000/svg">
<path fill-rule="evenodd" clip-rule="evenodd" d="M37.1431 20.6611C37.1431 30.1288 29.468 37.804 20.0003 37.804C10.5325 37.804 2.85742 30.1288 2.85742 20.6611C2.85742 11.1934 10.5325 3.51824 20.0003 3.51824C29.468 3.51824 37.1431 11.1934 37.1431 20.6611ZM34.8574 20.6611C34.8574 12.4557 28.2057 5.80396 20.0003 5.80396C11.7949 5.80396 5.14314 12.4557 5.14314 20.6611C5.14314 28.8665 11.7949 35.5182 20.0003 35.5182C28.2057 35.5182 34.8574 28.8665 34.8574 20.6611ZM18.8574 29.5182V27.5182C18.8574 26.8871 19.3691 26.3754 20.0003 26.3754C20.6315 26.3754 21.1431 26.8871 21.1431 27.5182V29.5182C21.1431 30.1494 20.6315 30.6611 20.0003 30.6611C19.3691 30.6611 18.8574 30.1494 18.8574 29.5182ZM18.8574 23.804V11.804C18.8574 11.1728 19.3691 10.6611 20.0003 10.6611C20.6315 10.6611 21.1431 11.1728 21.1431 11.804V23.804C21.1431 24.4351 20.6315 24.9468 20.0003 24.9468C19.3691 24.9468 18.8574 24.4351 18.8574 23.804Z" fill="#DC3545"/>
</svg>
